<svg xmlns="http://www.w3.org/2000/svg" xmlns:xlink="http://www.w3.org/1999/xlink" width="200" zoomAndPan="magnify" viewBox="0 0 150 149.999998" height="200" preserveAspectRatio="xMidYMid meet" version="1.0"><defs><g/><clipPath id="de5eff3ef4"><path d="M 31 88 L 46 88 L 46 94.144531 L 31 94.144531 Z M 31 88 " clip-rule="nonzero"/></clipPath><clipPath id="24aafd973b"><path d="M 15.675781 55.894531 L 134.925781 55.894531 L 134.925781 86 L 15.675781 86 Z M 15.675781 55.894531 " clip-rule="nonzero"/></clipPath></defs><path fill="#27a827" d="M 113.273438 59.886719 L 113.273438 57.699219 C 113.273438 56.800781 114 56.078125 114.890625 56.078125 L 117.074219 56.078125 C 117.96875 56.078125 118.691406 56.804688 118.691406 57.699219 L 118.691406 59.886719 C 118.691406 60.785156 117.96875 61.507812 117.074219 61.507812 L 114.890625 61.507812 C 114 61.511719 113.273438 60.785156 113.273438 59.886719 Z M 25.457031 69.660156 L 27.640625 69.660156 C 28.535156 69.660156 29.257812 68.933594 29.257812 68.039062 L 29.257812 65.847656 C 29.257812 64.953125 28.53125 64.230469 27.640625 64.230469 L 25.457031 64.230469 C 24.5625 64.230469 23.839844 64.957031 23.839844 65.847656 L 23.839844 68.039062 C 23.839844 68.933594 24.5625 69.660156 25.457031 69.660156 Z M 25.457031 69.660156 " fill-opacity="1" fill-rule="nonzero"/><g clip-path="url(#de5eff3ef4)"><path fill="#d81a1a" d="M 31.96875 92.488281 L 31.96875 90.300781 C 31.96875 89.402344 32.691406 88.679688 33.585938 88.679688 L 35.769531 88.679688 C 36.664062 88.679688 37.386719 89.40625 37.386719 90.300781 L 37.386719 92.488281 C 37.386719 93.386719 36.660156 94.109375 35.769531 94.109375 L 33.585938 94.109375 C 32.691406 94.113281 31.96875 93.386719 31.96875 92.488281 Z M 41.71875 94.113281 L 43.902344 94.113281 C 44.796875 94.113281 45.519531 93.386719 45.519531 92.492188 L 45.519531 90.300781 C 45.519531 89.40625 44.792969 88.683594 43.902344 88.683594 L 41.71875 88.683594 C 40.824219 88.683594 40.101562 89.40625 40.101562 90.300781 L 40.101562 92.492188 C 40.097656 93.386719 40.824219 94.113281 41.71875 94.113281 Z M 41.71875 94.113281 " fill-opacity="1" fill-rule="nonzero"/></g><g clip-path="url(#24aafd973b)"><path fill="#000000" d="M 121.15625 57.21875 L 121.15625 66.246094 C 121.15625 68.042969 122.609375 69.503906 124.40625 69.503906 L 129.496094 69.503906 C 129.503906 69.503906 129.503906 69.507812 129.503906 69.511719 L 129.503906 80.363281 C 129.503906 80.371094 129.503906 80.371094 129.496094 80.371094 L 110.414062 80.371094 C 110.410156 80.371094 110.40625 80.371094 110.40625 80.363281 L 110.40625 57.21875 C 110.40625 56.5 109.824219 55.917969 109.109375 55.917969 L 106.285156 55.917969 C 105.566406 55.917969 104.984375 56.5 104.984375 57.21875 L 104.984375 80.363281 C 104.984375 80.367188 104.984375 80.371094 104.976562 80.371094 L 102.347656 80.371094 C 102.339844 80.371094 102.339844 80.367188 102.339844 80.363281 L 102.339844 65.945312 C 102.339844 64.90625 101.5 64.070312 100.46875 64.070312 L 98.789062 64.070312 C 97.757812 64.070312 96.917969 64.90625 96.917969 65.945312 L 96.917969 80.363281 C 96.917969 80.367188 96.917969 80.371094 96.910156 80.371094 L 94.21875 80.371094 C 94.210938 80.371094 94.210938 80.367188 94.210938 80.363281 L 94.210938 65.945312 C 94.210938 64.90625 93.371094 64.070312 92.339844 64.070312 L 90.660156 64.070312 C 89.625 64.070312 88.789062 64.90625 88.789062 65.945312 L 88.789062 80.363281 C 88.789062 80.367188 88.785156 80.371094 88.78125 80.371094 L 86.085938 80.371094 C 86.082031 80.371094 86.078125 80.367188 86.078125 80.363281 L 86.078125 65.945312 C 86.078125 64.90625 85.242188 64.070312 84.210938 64.070312 L 82.53125 64.070312 C 81.496094 64.070312 80.660156 64.90625 80.660156 65.945312 L 80.660156 80.363281 C 80.660156 80.367188 80.65625 80.371094 80.652344 80.371094 L 77.988281 80.371094 C 77.984375 80.371094 77.980469 80.367188 77.980469 80.363281 L 77.980469 65.945312 C 77.980469 64.90625 77.144531 64.070312 76.109375 64.070312 L 66.332031 64.070312 C 65.296875 64.070312 64.460938 64.90625 64.460938 65.945312 L 64.460938 72.210938 C 64.460938 72.214844 64.457031 72.21875 64.453125 72.21875 L 53.625 72.21875 C 53.621094 72.21875 53.617188 72.214844 53.617188 72.210938 L 53.617188 57.792969 C 53.617188 56.757812 52.78125 55.917969 51.75 55.917969 L 50.070312 55.917969 C 49.035156 55.917969 48.199219 56.757812 48.199219 57.792969 L 48.199219 80.363281 C 48.199219 80.367188 48.195312 80.371094 48.191406 80.371094 L 45.496094 80.371094 C 45.488281 80.371094 45.488281 80.367188 45.488281 80.363281 L 45.488281 74.09375 C 45.488281 73.058594 44.648438 72.222656 43.617188 72.222656 L 41.9375 72.222656 C 40.902344 72.222656 40.066406 73.058594 40.066406 74.09375 L 40.066406 80.363281 C 40.066406 80.367188 40.0625 80.371094 40.058594 80.371094 L 37.363281 80.371094 C 37.359375 80.371094 37.355469 80.367188 37.355469 80.363281 L 37.355469 74.09375 C 37.355469 73.058594 36.519531 72.222656 35.488281 72.222656 L 33.808594 72.222656 C 32.773438 72.222656 31.9375 73.058594 31.9375 74.09375 L 31.9375 80.363281 C 31.9375 80.367188 31.933594 80.371094 31.929688 80.371094 L 21.101562 80.371094 C 21.097656 80.371094 21.09375 80.367188 21.09375 80.363281 L 21.09375 61.359375 C 21.09375 61.355469 21.097656 61.351562 21.101562 61.351562 L 35.550781 61.351562 C 36.582031 61.351562 37.417969 60.511719 37.417969 59.476562 L 37.417969 57.792969 C 37.417969 56.757812 36.582031 55.917969 35.550781 55.917969 L 19.15625 55.917969 C 17.234375 55.917969 15.675781 57.484375 15.675781 59.410156 L 15.675781 83.269531 C 15.675781 84.671875 16.808594 85.804688 18.203125 85.804688 L 132.394531 85.804688 C 133.792969 85.804688 134.925781 84.671875 134.925781 83.269531 L 134.925781 57.21875 C 134.925781 56.5 134.34375 55.917969 133.628906 55.917969 L 122.453125 55.917969 C 121.738281 55.917969 121.15625 56.5 121.15625 57.21875 Z M 72.550781 80.371094 L 53.625 80.371094 C 53.621094 80.371094 53.617188 80.367188 53.617188 80.363281 L 53.617188 77.660156 C 53.617188 77.65625 53.621094 77.652344 53.625 77.652344 L 67.65625 77.652344 C 68.882812 77.652344 69.878906 76.65625 69.878906 75.421875 L 69.878906 69.511719 C 69.878906 69.507812 69.882812 69.503906 69.886719 69.503906 L 72.550781 69.503906 C 72.554688 69.503906 72.558594 69.507812 72.558594 69.511719 L 72.558594 80.363281 C 72.558594 80.367188 72.554688 80.371094 72.550781 80.371094 Z M 130.757812 62.699219 L 130.738281 62.722656 L 130.765625 62.738281 L 128.546875 65.746094 C 128.546875 65.75 128.539062 65.753906 128.539062 65.75 L 125.472656 63.480469 C 124.640625 62.863281 124.464844 61.691406 125.078125 60.855469 C 125.695312 60.023438 126.863281 59.847656 127.695312 60.464844 L 127.734375 60.492188 L 127.78125 60.425781 C 128.367188 59.632812 129.460938 59.4375 130.28125 59.957031 C 131.214844 60.546875 131.414062 61.804688 130.757812 62.699219 Z M 130.757812 62.699219 " fill-opacity="1" fill-rule="nonzero"/></g><g fill="#ffffff" fill-opacity="1"><g transform="translate(1.687501, 11.079547)"><g><path d="M 0.5625 1.3125 L 0.5625 -3.234375 L 1.046875 -3.234375 L 1.046875 -2.75 L 1.109375 -2.734375 C 1.347656 -3.109375 1.695312 -3.296875 2.15625 -3.296875 C 2.425781 -3.296875 2.660156 -3.234375 2.859375 -3.109375 C 3.066406 -2.984375 3.222656 -2.796875 3.328125 -2.546875 C 3.441406 -2.296875 3.5 -1.984375 3.5 -1.609375 C 3.5 -1.242188 3.441406 -0.9375 3.328125 -0.6875 C 3.210938 -0.4375 3.050781 -0.25 2.84375 -0.125 C 2.632812 0 2.394531 0.0625 2.125 0.0625 C 1.90625 0.0625 1.707031 0.0234375 1.53125 -0.046875 C 1.363281 -0.128906 1.222656 -0.253906 1.109375 -0.421875 L 1.046875 -0.421875 L 1.046875 1.3125 Z M 2.015625 -0.359375 C 2.671875 -0.359375 3 -0.773438 3 -1.609375 C 3 -2.441406 2.671875 -2.859375 2.015625 -2.859375 C 1.828125 -2.859375 1.660156 -2.816406 1.515625 -2.734375 C 1.367188 -2.648438 1.253906 -2.515625 1.171875 -2.328125 C 1.085938 -2.140625 1.046875 -1.898438 1.046875 -1.609375 C 1.046875 -1.328125 1.085938 -1.09375 1.171875 -0.90625 C 1.253906 -0.71875 1.367188 -0.578125 1.515625 -0.484375 C 1.660156 -0.398438 1.828125 -0.359375 2.015625 -0.359375 Z M 2.015625 -0.359375 "/></g></g><g transform="translate(5.54297, 11.079547)"><g><path d="M 1.328125 0.0625 C 1.015625 0.0625 0.765625 -0.0195312 0.578125 -0.1875 C 0.398438 -0.351562 0.3125 -0.59375 0.3125 -0.90625 C 0.3125 -1.09375 0.351562 -1.25 0.4375 -1.375 C 0.519531 -1.507812 0.644531 -1.617188 0.8125 -1.703125 C 0.976562 -1.785156 1.191406 -1.851562 1.453125 -1.90625 C 1.691406 -1.9375 1.867188 -1.976562 1.984375 -2.03125 C 2.109375 -2.082031 2.191406 -2.132812 2.234375 -2.1875 C 2.273438 -2.25 2.296875 -2.328125 2.296875 -2.421875 C 2.296875 -2.566406 2.242188 -2.675781 2.140625 -2.75 C 2.046875 -2.832031 1.890625 -2.875 1.671875 -2.875 C 1.453125 -2.875 1.269531 -2.832031 1.125 -2.75 C 0.976562 -2.675781 0.84375 -2.554688 0.71875 -2.390625 L 0.65625 -2.390625 L 0.421875 -2.71875 C 0.554688 -2.894531 0.726562 -3.035156 0.9375 -3.140625 C 1.15625 -3.242188 1.398438 -3.296875 1.671875 -3.296875 C 2.046875 -3.296875 2.320312 -3.210938 2.5 -3.046875 C 2.6875 -2.878906 2.78125 -2.644531 2.78125 -2.34375 L 2.78125 -0.640625 C 2.78125 -0.453125 2.851562 -0.359375 3 -0.359375 C 3.050781 -0.359375 3.101562 -0.367188 3.15625 -0.390625 L 3.1875 -0.375 L 3.25 -0.046875 C 3.21875 -0.0234375 3.171875 -0.0078125 3.109375 0 C 3.054688 0.0195312 3 0.03125 2.9375 0.03125 C 2.757812 0.03125 2.625 -0.0078125 2.53125 -0.09375 C 2.4375 -0.175781 2.378906 -0.289062 2.359375 -0.4375 L 2.296875 -0.453125 C 2.203125 -0.273438 2.078125 -0.144531 1.921875 -0.0625 C 1.765625 0.0195312 1.566406 0.0625 1.328125 0.0625 Z M 1.4375 -0.3125 C 1.613281 -0.3125 1.769531 -0.351562 1.90625 -0.4375 C 2.039062 -0.519531 2.140625 -0.632812 2.203125 -0.78125 C 2.273438 -0.9375 2.3125 -1.113281 2.3125 -1.3125 L 2.3125 -1.71875 L 2.265625 -1.734375 C 2.191406 -1.679688 2.101562 -1.640625 2 -1.609375 C 1.894531 -1.578125 1.75 -1.546875 1.5625 -1.515625 C 1.375 -1.492188 1.222656 -1.457031 1.109375 -1.40625 C 1.003906 -1.351562 0.925781 -1.285156 0.875 -1.203125 C 0.832031 -1.117188 0.8125 -1.019531 0.8125 -0.90625 C 0.8125 -0.707031 0.863281 -0.554688 0.96875 -0.453125 C 1.082031 -0.359375 1.238281 -0.3125 1.4375 -0.3125 Z M 1.4375 -0.3125 "/></g></g><g transform="translate(8.885743, 11.079547)"><g><path d="M 1.28125 0.0625 C 1.050781 0.0625 0.867188 0 0.734375 -0.125 C 0.609375 -0.257812 0.546875 -0.457031 0.546875 -0.71875 L 0.546875 -4.53125 L 1.03125 -4.53125 L 1.03125 -0.75 C 1.03125 -0.613281 1.054688 -0.515625 1.109375 -0.453125 C 1.160156 -0.390625 1.238281 -0.359375 1.34375 -0.359375 C 1.414062 -0.359375 1.484375 -0.375 1.546875 -0.40625 L 1.59375 -0.390625 L 1.640625 -0.015625 C 1.609375 0.015625 1.554688 0.0351562 1.484375 0.046875 C 1.421875 0.0546875 1.351562 0.0625 1.28125 0.0625 Z M 1.28125 0.0625 "/></g></g><g transform="translate(10.643555, 11.079547)"><g><path d="M 3.078125 -1.5 L 0.859375 -1.5 C 0.867188 -1.113281 0.960938 -0.828125 1.140625 -0.640625 C 1.316406 -0.453125 1.554688 -0.359375 1.859375 -0.359375 C 2.085938 -0.359375 2.269531 -0.398438 2.40625 -0.484375 C 2.550781 -0.566406 2.664062 -0.695312 2.75 -0.875 L 2.8125 -0.875 L 3.125 -0.6875 C 3.03125 -0.457031 2.878906 -0.273438 2.671875 -0.140625 C 2.460938 -0.00390625 2.191406 0.0625 1.859375 0.0625 C 1.546875 0.0625 1.273438 0 1.046875 -0.125 C 0.828125 -0.25 0.65625 -0.4375 0.53125 -0.6875 C 0.414062 -0.9375 0.359375 -1.242188 0.359375 -1.609375 C 0.359375 -1.984375 0.421875 -2.296875 0.546875 -2.546875 C 0.671875 -2.796875 0.84375 -2.984375 1.0625 -3.109375 C 1.289062 -3.234375 1.546875 -3.296875 1.828125 -3.296875 C 2.242188 -3.296875 2.566406 -3.175781 2.796875 -2.9375 C 3.035156 -2.707031 3.15625 -2.363281 3.15625 -1.90625 C 3.15625 -1.726562 3.148438 -1.609375 3.140625 -1.546875 Z M 2.6875 -1.90625 C 2.675781 -2.25 2.597656 -2.5 2.453125 -2.65625 C 2.304688 -2.8125 2.097656 -2.890625 1.828125 -2.890625 C 1.546875 -2.890625 1.320312 -2.8125 1.15625 -2.65625 C 1 -2.5 0.90625 -2.25 0.875 -1.90625 Z M 2.6875 -1.90625 "/></g></g><g transform="translate(14.088868, 11.079547)"><g><path d="M 1.46875 0.0625 C 1.269531 0.0625 1.082031 0.0351562 0.90625 -0.015625 C 0.738281 -0.0664062 0.59375 -0.140625 0.46875 -0.234375 C 0.351562 -0.328125 0.269531 -0.4375 0.21875 -0.5625 L 0.5 -0.84375 L 0.5625 -0.84375 C 0.664062 -0.6875 0.789062 -0.566406 0.9375 -0.484375 C 1.09375 -0.398438 1.269531 -0.359375 1.46875 -0.359375 C 1.707031 -0.359375 1.890625 -0.40625 2.015625 -0.5 C 2.140625 -0.59375 2.203125 -0.722656 2.203125 -0.890625 C 2.203125 -1.015625 2.164062 -1.117188 2.09375 -1.203125 C 2.019531 -1.285156 1.894531 -1.347656 1.71875 -1.390625 L 1.1875 -1.53125 C 0.894531 -1.601562 0.679688 -1.710938 0.546875 -1.859375 C 0.410156 -2.015625 0.34375 -2.203125 0.34375 -2.421875 C 0.34375 -2.597656 0.382812 -2.75 0.46875 -2.875 C 0.5625 -3.007812 0.691406 -3.113281 0.859375 -3.1875 C 1.035156 -3.257812 1.238281 -3.296875 1.46875 -3.296875 C 1.757812 -3.296875 1.988281 -3.253906 2.15625 -3.171875 C 2.332031 -3.085938 2.46875 -2.972656 2.5625 -2.828125 L 2.296875 -2.5625 L 2.234375 -2.5625 C 2.140625 -2.675781 2.03125 -2.757812 1.90625 -2.8125 C 1.78125 -2.863281 1.632812 -2.890625 1.46875 -2.890625 C 1.257812 -2.890625 1.097656 -2.851562 0.984375 -2.78125 C 0.867188 -2.707031 0.8125 -2.597656 0.8125 -2.453125 C 0.8125 -2.316406 0.847656 -2.207031 0.921875 -2.125 C 1.003906 -2.050781 1.144531 -1.988281 1.34375 -1.9375 L 1.890625 -1.8125 C 2.171875 -1.75 2.375 -1.640625 2.5 -1.484375 C 2.625 -1.328125 2.6875 -1.132812 2.6875 -0.90625 C 2.6875 -0.707031 2.640625 -0.535156 2.546875 -0.390625 C 2.453125 -0.253906 2.3125 -0.144531 2.125 -0.0625 C 1.945312 0.0195312 1.726562 0.0625 1.46875 0.0625 Z M 1.46875 0.0625 "/></g></g><g transform="translate(17.077149, 11.079547)"><g><path d="M 2.1875 -0.515625 L 2.34375 -0.171875 C 2.257812 -0.0976562 2.15625 -0.0390625 2.03125 0 C 1.914062 0.0390625 1.785156 0.0625 1.640625 0.0625 C 1.015625 0.0625 0.703125 -0.25 0.703125 -0.875 L 0.703125 -2.84375 L 0.140625 -2.84375 L 0.140625 -3.234375 L 0.703125 -3.234375 L 0.703125 -3.921875 L 1.1875 -4 L 1.1875 -3.234375 L 2.234375 -3.234375 L 2.234375 -2.84375 L 1.1875 -2.84375 L 1.1875 -0.921875 C 1.1875 -0.546875 1.347656 -0.359375 1.671875 -0.359375 C 1.847656 -0.359375 2 -0.410156 2.125 -0.515625 Z M 2.1875 -0.515625 "/></g></g><g transform="translate(19.538086, 11.079547)"><g><path d="M 0.796875 -3.859375 C 0.703125 -3.859375 0.617188 -3.890625 0.546875 -3.953125 C 0.484375 -4.015625 0.453125 -4.09375 0.453125 -4.1875 C 0.453125 -4.289062 0.484375 -4.375 0.546875 -4.4375 C 0.617188 -4.5 0.703125 -4.53125 0.796875 -4.53125 C 0.898438 -4.53125 0.984375 -4.5 1.046875 -4.4375 C 1.109375 -4.375 1.140625 -4.289062 1.140625 -4.1875 C 1.140625 -4.09375 1.109375 -4.015625 1.046875 -3.953125 C 0.984375 -3.890625 0.898438 -3.859375 0.796875 -3.859375 Z M 0.5625 0 L 0.5625 -3.234375 L 1.046875 -3.234375 L 1.046875 0 Z M 0.5625 0 "/></g></g><g transform="translate(21.140625, 11.079547)"><g><path d="M 0.5625 0 L 0.5625 -3.234375 L 1.015625 -3.234375 L 1.015625 -2.71875 L 1.078125 -2.703125 C 1.179688 -2.898438 1.316406 -3.046875 1.484375 -3.140625 C 1.648438 -3.242188 1.851562 -3.296875 2.09375 -3.296875 C 2.488281 -3.296875 2.769531 -3.195312 2.9375 -3 C 3.113281 -2.800781 3.203125 -2.492188 3.203125 -2.078125 L 3.203125 0 L 2.734375 0 L 2.734375 -2.0625 C 2.734375 -2.257812 2.707031 -2.414062 2.65625 -2.53125 C 2.601562 -2.65625 2.523438 -2.742188 2.421875 -2.796875 C 2.316406 -2.847656 2.179688 -2.875 2.015625 -2.875 C 1.722656 -2.875 1.488281 -2.773438 1.3125 -2.578125 C 1.132812 -2.390625 1.046875 -2.082031 1.046875 -1.65625 L 1.046875 0 Z M 0.5625 0 "/></g></g><g transform="translate(24.861328, 11.079547)"><g><path d="M 3.078125 -1.5 L 0.859375 -1.5 C 0.867188 -1.113281 0.960938 -0.828125 1.140625 -0.640625 C 1.316406 -0.453125 1.554688 -0.359375 1.859375 -0.359375 C 2.085938 -0.359375 2.269531 -0.398438 2.40625 -0.484375 C 2.550781 -0.566406 2.664062 -0.695312 2.75 -0.875 L 2.8125 -0.875 L 3.125 -0.6875 C 3.03125 -0.457031 2.878906 -0.273438 2.671875 -0.140625 C 2.460938 -0.00390625 2.191406 0.0625 1.859375 0.0625 C 1.546875 0.0625 1.273438 0 1.046875 -0.125 C 0.828125 -0.25 0.65625 -0.4375 0.53125 -0.6875 C 0.414062 -0.9375 0.359375 -1.242188 0.359375 -1.609375 C 0.359375 -1.984375 0.421875 -2.296875 0.546875 -2.546875 C 0.671875 -2.796875 0.84375 -2.984375 1.0625 -3.109375 C 1.289062 -3.234375 1.546875 -3.296875 1.828125 -3.296875 C 2.242188 -3.296875 2.566406 -3.175781 2.796875 -2.9375 C 3.035156 -2.707031 3.15625 -2.363281 3.15625 -1.90625 C 3.15625 -1.726562 3.148438 -1.609375 3.140625 -1.546875 Z M 2.6875 -1.90625 C 2.675781 -2.25 2.597656 -2.5 2.453125 -2.65625 C 2.304688 -2.8125 2.097656 -2.890625 1.828125 -2.890625 C 1.546875 -2.890625 1.320312 -2.8125 1.15625 -2.65625 C 1 -2.5 0.90625 -2.25 0.875 -1.90625 Z M 2.6875 -1.90625 "/></g></g></g></svg>