<svg xmlns="http://www.w3.org/2000/svg" xmlns:xlink="http://www.w3.org/1999/xlink" width="200" zoomAndPan="magnify" viewBox="0 0 150 149.999998" height="200" preserveAspectRatio="xMidYMid meet" version="1.0"><defs><clipPath id="2a67cd6145"><path d="M 0 49.414062 L 98.25 49.414062 L 98.25 100.414062 L 0 100.414062 Z M 0 49.414062 " clip-rule="nonzero"/></clipPath><clipPath id="e466d90be3"><path d="M 0 49.414062 L 98.25 49.414062 L 98.25 67 L 0 67 Z M 0 49.414062 " clip-rule="nonzero"/></clipPath><clipPath id="a37d91b18a"><path d="M 0 66 L 98.25 66 L 98.25 84 L 0 84 Z M 0 66 " clip-rule="nonzero"/></clipPath><clipPath id="b59b537719"><path d="M 0 83 L 98.25 83 L 98.25 100.414062 L 0 100.414062 Z M 0 83 " clip-rule="nonzero"/></clipPath><clipPath id="f36f45c8ca"><path d="M 0 49.414062 L 45 49.414062 L 45 100.414062 L 0 100.414062 Z M 0 49.414062 " clip-rule="nonzero"/></clipPath><clipPath id="009a4faaa2"><path d="M 97.171875 49.414062 L 149.671875 49.414062 L 149.671875 100.414062 L 97.171875 100.414062 Z M 97.171875 49.414062 " clip-rule="nonzero"/></clipPath><clipPath id="d7d39ac6c7"><path d="M 97.171875 49.414062 L 149.671875 49.414062 L 149.671875 67 L 97.171875 67 Z M 97.171875 49.414062 " clip-rule="nonzero"/></clipPath><clipPath id="87e0ffc705"><path d="M 97.171875 66 L 149.671875 66 L 149.671875 84 L 97.171875 84 Z M 97.171875 66 " clip-rule="nonzero"/></clipPath><clipPath id="ad75d7794b"><path d="M 97.171875 83 L 149.671875 83 L 149.671875 100.414062 L 97.171875 100.414062 Z M 97.171875 83 " clip-rule="nonzero"/></clipPath></defs><g clip-path="url(#2a67cd6145)"><path fill="#ffffff" d="M 0 49.429688 L 98.25 49.429688 L 98.25 100.394531 L 0 100.394531 Z M 0 49.429688 " fill-opacity="1" fill-rule="nonzero"/></g><g clip-path="url(#e466d90be3)"><path fill="#020202" d="M 0 49.429688 L 98.25 49.429688 L 98.25 66.417969 L 0 66.417969 Z M 0 49.429688 " fill-opacity="1" fill-rule="nonzero"/></g><g clip-path="url(#a37d91b18a)"><path fill="#f2f4f3" d="M 0 66.417969 L 98.25 66.417969 L 98.25 83.40625 L 0 83.40625 Z M 0 66.417969 " fill-opacity="1" fill-rule="nonzero"/></g><g clip-path="url(#b59b537719)"><path fill="#0a7c3e" d="M 0 83.40625 L 98.25 83.40625 L 98.25 100.394531 L 0 100.394531 Z M 0 83.40625 " fill-opacity="1" fill-rule="nonzero"/></g><g clip-path="url(#f36f45c8ca)"><path fill="#ed2027" d="M 44.339844 74.914062 L 0 49.476562 L 0 100.347656 Z M 44.339844 74.914062 " fill-opacity="1" fill-rule="nonzero"/></g><g clip-path="url(#009a4faaa2)"><path fill="#ffffff" d="M 52.058594 49.429688 L 150.308594 49.429688 L 150.308594 100.394531 L 52.058594 100.394531 Z M 52.058594 49.429688 " fill-opacity="1" fill-rule="nonzero"/></g><g clip-path="url(#d7d39ac6c7)"><path fill="#020202" d="M 52.058594 49.429688 L 150.308594 49.429688 L 150.308594 66.417969 L 52.058594 66.417969 Z M 52.058594 49.429688 " fill-opacity="1" fill-rule="nonzero"/></g><g clip-path="url(#87e0ffc705)"><path fill="#f2f4f3" d="M 52.058594 66.417969 L 150.308594 66.417969 L 150.308594 83.40625 L 52.058594 83.40625 Z M 52.058594 66.417969 " fill-opacity="1" fill-rule="nonzero"/></g><g clip-path="url(#ad75d7794b)"><path fill="#0a7c3e" d="M 52.058594 83.40625 L 150.308594 83.40625 L 150.308594 100.394531 L 52.058594 100.394531 Z M 52.058594 83.40625 " fill-opacity="1" fill-rule="nonzero"/></g></svg>