<svg xmlns="http://www.w3.org/2000/svg" xmlns:xlink="http://www.w3.org/1999/xlink" width="100" zoomAndPan="magnify" viewBox="0 0 75 74.999997" height="100" preserveAspectRatio="xMidYMid meet" version="1.0"><defs><clipPath id="a9db7d0db0"><path d="M 0.1875 16.3125 L 74 16.3125 L 74 56 L 0.1875 56 Z M 0.1875 16.3125 " clip-rule="nonzero"/></clipPath></defs><path fill="#ffffff" d="M 27.230469 50.816406 C 27.710938 51.585938 28.515625 51.332031 29.042969 52.703125 C 28.550781 53.316406 28.1875 53.867188 27.664062 54.578125 L 29.871094 56.53125 C 30.875 54.988281 32.199219 54.515625 30.664062 53.417969 C 30.273438 53.136719 29.917969 52.851562 29.675781 52.554688 C 29.835938 52.1875 30.660156 51.316406 30.957031 50.960938 C 30.917969 50.070312 29.707031 49.160156 28.925781 48.796875 C 28.488281 49.097656 27.453125 50.398438 27.230469 50.816406 Z M 27.230469 50.816406 " fill-opacity="1" fill-rule="evenodd"/><g clip-path="url(#a9db7d0db0)"><path fill="#ffffff" d="M 65.179688 48.214844 C 65.140625 49.28125 65.417969 49.441406 65.980469 49.972656 C 67.6875 50.425781 69.59375 50.085938 70.984375 50.621094 C 71.054688 49.9375 70.890625 49.4375 71.203125 48.847656 C 71.21875 48.820312 71.253906 48.773438 71.269531 48.75 C 71.28125 48.726562 71.308594 48.679688 71.335938 48.648438 C 71.609375 49.070312 71.785156 49.078125 72.070312 49.640625 C 73.355469 52.164062 69.542969 53.390625 66.949219 52.71875 C 63.871094 51.925781 63.34375 49.292969 63.289062 46.335938 C 63.253906 44.203125 63.117188 42.078125 63.136719 39.945312 C 63.152344 38.078125 62.925781 32.5625 62.609375 30.621094 C 62.46875 29.734375 62.046875 28.742188 61.964844 28.011719 C 61.394531 27.828125 61.660156 27.785156 61.109375 29.171875 C 60.304688 31.199219 60.933594 31.253906 61.242188 34.464844 C 61.65625 38.820312 61.625 45.769531 61.574219 50.242188 C 61.558594 51.722656 61.753906 52.800781 59.90625 52.574219 C 59.363281 52.507812 58.828125 52.355469 58.46875 51.964844 C 57.917969 51.359375 58.210938 50.757812 58.226562 49.988281 C 57.378906 50.214844 57.902344 50 57.011719 51.414062 C 56.601562 52.066406 56.25 52.066406 55.851562 52.746094 C 54.960938 52.773438 54.277344 52.777344 53.777344 52.167969 C 53.132812 51.386719 53.71875 50.804688 53.386719 50.089844 C 52.652344 50.339844 52.585938 50.90625 52.183594 51.503906 C 51.5 52.527344 48.210938 54.757812 48.75 49.789062 C 46.628906 50.117188 43.75 52.15625 39.375 52.699219 C 35.328125 53.199219 32.550781 50.90625 33.5625 47.074219 C 35.5 47.378906 36.308594 47.855469 38.625 47.867188 C 40.355469 47.878906 42.199219 47.746094 43.871094 47.371094 C 44.792969 47.167969 45.183594 47.0625 45.984375 46.609375 C 47.710938 45.640625 49.144531 42.578125 49.132812 41.265625 C 49.125 40.332031 48.550781 39.648438 48.109375 39.300781 C 44.367188 36.382812 41.535156 37.496094 37.828125 40.464844 C 37.632812 40.621094 37.667969 40.621094 37.441406 40.800781 L 35.355469 42.75 C 35.613281 41.5625 36.164062 40.953125 36.28125 39.242188 C 36.734375 32.5625 27.425781 27.640625 29.433594 19.621094 C 29.992188 17.367188 30.660156 17.203125 30.648438 16.308594 C 30.617188 16.332031 30.574219 16.339844 30.5625 16.390625 L 30.410156 16.550781 C 30.390625 16.570312 30.355469 16.605469 30.335938 16.625 C 26.410156 20.816406 26.417969 25.414062 29.652344 30.25 C 30.667969 31.777344 32.617188 34.664062 33.394531 36.207031 C 34.402344 38.203125 35.414062 41.835938 33.953125 43.921875 C 32.429688 42.882812 32.097656 40.886719 31.441406 38.625 C 29.871094 38.878906 30.320312 40.4375 28.847656 41.464844 C 27.398438 42.46875 26.203125 40.757812 25.671875 39.597656 C 25.167969 39.976562 24.945312 40.785156 24.679688 41.53125 C 24.335938 42.492188 24.863281 42.804688 25.210938 43.527344 C 25.75 44.640625 26.675781 46.628906 26.28125 48.066406 C 25.917969 48.722656 21.777344 50.617188 20.84375 50.972656 C 15.085938 53.136719 8.976562 53.285156 3.238281 51.015625 C 2.335938 50.65625 1.042969 49.894531 0.207031 49.703125 C 0.582031 50.738281 0.769531 50.253906 1.707031 51.265625 L 3.3125 52.554688 C 5.625 54.433594 7 55.523438 10.398438 55.539062 C 12.84375 55.550781 15.148438 55.238281 17.503906 54.738281 C 24.285156 53.296875 27.042969 51.679688 27.421875 44.378906 C 30.261719 42.589844 29.179688 42.121094 30.167969 41.765625 C 30.519531 42.851562 30.394531 43.492188 30.933594 44.597656 C 31.253906 45.246094 32.003906 46.210938 32.6875 46.460938 C 31.878906 49.957031 31.292969 49.703125 32.835938 53.570312 C 33.019531 53.632812 32.871094 53.558594 33.0625 53.777344 C 33.4375 54.214844 33.351562 54.226562 33.964844 54.625 C 38.347656 57.445312 45.25 52.648438 47.273438 52.617188 C 47.367188 53.242188 47.21875 55.398438 49.195312 55.492188 C 50.667969 55.5625 51.28125 54.035156 51.941406 53.285156 C 52.265625 54.097656 52.265625 54.503906 52.882812 54.957031 C 53.367188 55.316406 54.308594 55.585938 54.835938 55.15625 C 55.984375 54.71875 55.800781 54.234375 56.574219 53.308594 C 57.140625 54.050781 56.875 54.554688 57.726562 55.027344 C 60.210938 56.410156 61.851562 53.617188 62.320312 51.648438 C 62.894531 52.171875 63.210938 55.101562 66.988281 55.367188 C 72.355469 55.75 75.179688 48.945312 72.535156 46 C 71.722656 45.09375 68.179688 43.164062 67.140625 42.964844 C 66.390625 43.851562 65.226562 46.945312 65.179688 48.214844 Z M 35.324219 44.59375 C 35.476562 44.085938 35.464844 44.234375 35.90625 43.90625 C 38.53125 41.988281 42.464844 38.171875 46.496094 41.792969 L 46.71875 42.003906 C 46.738281 42.027344 46.773438 42.050781 46.792969 42.070312 C 47.269531 42.5 47.597656 42.945312 47.726562 43.582031 C 45.5 45.214844 38.152344 45.714844 35.324219 44.59375 Z M 69.902344 47.507812 C 68.332031 47.679688 66.328125 47.582031 66.402344 45.855469 C 67.011719 45.886719 67.636719 46.277344 68.226562 46.5625 C 68.523438 46.710938 68.796875 46.828125 69.097656 46.988281 C 69.433594 47.167969 69.59375 47.359375 69.902344 47.507812 Z M 69.902344 47.507812 " fill-opacity="1" fill-rule="evenodd"/></g><path fill="#ffffff" d="M 4.269531 34.824219 C 4.726562 33.863281 5.589844 34.71875 5.855469 35.1875 C 4.285156 35.519531 2.625 35.175781 3.925781 39.183594 C 4.222656 40.089844 4.539062 40.867188 4.800781 41.78125 C 4.925781 42.210938 5.058594 42.742188 5.113281 43.175781 L 5.226562 44.417969 C 5.414062 44.847656 5.082031 44.507812 5.574219 44.796875 C 6.382812 42.5625 4.117188 38.171875 4.167969 36.726562 C 5.484375 36.382812 8.183594 36.761719 6.859375 34.398438 C 5.652344 32.257812 4.183594 33.285156 4.269531 34.824219 Z M 4.269531 34.824219 " fill-opacity="1" fill-rule="evenodd"/><path fill="#ffffff" d="M 55.996094 43.511719 C 55.15625 41.777344 55.257812 40.535156 53.246094 40.117188 C 52.769531 40.757812 52.859375 41.542969 52.878906 42.371094 C 53.230469 42.625 53.867188 43.007812 54.242188 43.050781 L 54.652344 43.070312 C 55.144531 43.113281 55.308594 45.246094 56.28125 45.832031 C 56.851562 44.953125 56.019531 42.140625 57.445312 40.597656 C 58.035156 40.589844 57.898438 40.632812 58.394531 40.90625 C 58.332031 38.816406 57.117188 38.519531 56.695312 39.953125 C 56.449219 40.789062 56.230469 43.023438 55.996094 43.511719 Z M 55.996094 43.511719 " fill-opacity="1" fill-rule="evenodd"/><path fill="#ffffff" d="M 17.492188 35.566406 C 17.164062 34.976562 17.050781 34.324219 16.664062 33.714844 C 16.410156 33.308594 15.664062 32.644531 14.894531 32.601562 C 14.414062 34.253906 14.476562 34.574219 15.457031 35.074219 C 15.902344 35.308594 15.902344 35.230469 16.378906 35.132812 C 16.527344 35.574219 16.789062 35.890625 16.980469 36.410156 C 17.207031 37.03125 17.214844 37.464844 17.785156 37.667969 C 18.328125 36.089844 17.75 34.632812 18.664062 33.042969 L 19.617188 33.015625 C 19.609375 31.984375 19.652344 31.570312 18.492188 31.726562 C 17.636719 32.996094 17.957031 34.546875 17.492188 35.566406 Z M 17.492188 35.566406 " fill-opacity="1" fill-rule="evenodd"/><path fill="#ffffff" d="M 54.160156 34.078125 C 55.839844 34.242188 56.441406 33.976562 56.769531 32.472656 C 57.195312 30.53125 56.300781 30.769531 54.960938 30.265625 C 55.058594 29.9375 55.175781 29.84375 55.207031 29.722656 C 55.523438 28.5 55.363281 29.359375 55.03125 29.027344 C 54.664062 29.632812 54.191406 30.445312 53.90625 31.371094 C 53.433594 32.910156 53.613281 32.929688 54.160156 34.078125 Z M 54.78125 32.6875 C 54.164062 31.90625 54.347656 31.3125 55.441406 31.847656 C 56.605469 32.414062 55.976562 32.972656 54.78125 32.6875 Z M 54.78125 32.6875 " fill-opacity="1" fill-rule="evenodd"/><path fill="#ffffff" d="M 66.230469 39.675781 L 66.472656 39.910156 C 67.550781 40.800781 67.890625 41.355469 68.296875 41.628906 C 68.722656 41.433594 69.960938 39.925781 69.90625 39.53125 C 69.871094 39.269531 68.605469 37.898438 67.652344 37.601562 C 67.273438 38.328125 66.613281 38.886719 66.230469 39.675781 Z M 66.230469 39.675781 " fill-opacity="1" fill-rule="evenodd"/><path fill="#ffffff" d="M 12.144531 44.6875 C 12.417969 45.140625 12.828125 45.214844 13.21875 45.542969 C 13.570312 45.828125 13.855469 46.3125 14.078125 46.699219 C 14.773438 46.382812 14.984375 45.890625 15.492188 45.335938 C 15.734375 45.070312 15.796875 45.253906 15.839844 44.71875 C 15.894531 43.988281 14.929688 43.488281 14.191406 42.863281 C 13.589844 43.207031 12.671875 44.089844 12.144531 44.6875 Z M 12.144531 44.6875 " fill-opacity="1" fill-rule="evenodd"/><path fill="#ffffff" d="M 61.351562 24.730469 L 63.585938 23.9375 L 63.867188 23.292969 C 62.742188 23.40625 61.035156 24.21875 59.933594 24.632812 C 58.722656 25.09375 56.890625 25.46875 56.515625 26.746094 C 58.132812 26.171875 59.503906 25.234375 61.351562 24.730469 Z M 61.351562 24.730469 " fill-opacity="1" fill-rule="evenodd"/><path fill="#ffffff" d="M 66.167969 58.691406 C 67.269531 58.375 68.691406 57.53125 69.890625 57.0625 C 71.921875 56.273438 73.171875 56.257812 73.429688 55.210938 C 72.25 55.429688 70.660156 56.199219 69.511719 56.664062 C 67.457031 57.492188 66.515625 57.4375 66.167969 58.691406 Z M 66.167969 58.691406 " fill-opacity="1" fill-rule="evenodd"/><path fill="#ffffff" d="M 38.703125 35.371094 C 39.835938 35.386719 40.210938 34.558594 40.152344 33.40625 C 39.308594 33.929688 39.648438 34.199219 39.042969 34.058594 C 38.558594 33.253906 39.34375 32.40625 39.390625 31.402344 C 39.117188 31.609375 39.332031 31.335938 39.054688 31.726562 L 38.5 33.039062 C 38.261719 34.027344 38.347656 34.65625 38.703125 35.371094 Z M 38.703125 35.371094 " fill-opacity="1" fill-rule="evenodd"/><path fill="#ffffff" d="M 28.28125 34.085938 C 27.53125 34.664062 27.898438 34.976562 27.117188 34.683594 C 26.753906 33.859375 27.429688 33.070312 27.539062 32.054688 C 27.210938 32.320312 27.511719 31.976562 27.242188 32.335938 C 26.8125 32.90625 26.347656 34.472656 26.542969 35.339844 C 26.847656 36.671875 28.410156 36.101562 28.28125 34.085938 Z M 28.28125 34.085938 " fill-opacity="1" fill-rule="evenodd"/><path fill="#ffffff" d="M 66.707031 33.980469 C 67.484375 33.894531 67.851562 33.207031 67.699219 32.308594 C 67.0625 32.714844 67.503906 32.886719 66.707031 32.828125 C 66.402344 32.027344 66.957031 31.464844 67.058594 30.492188 C 66.855469 30.640625 66.824219 30.410156 66.523438 31.257812 C 66.433594 31.507812 66.261719 31.957031 66.203125 32.25 C 66.03125 33.144531 66.167969 33.613281 66.707031 33.980469 Z M 66.707031 33.980469 " fill-opacity="1" fill-rule="evenodd"/></svg>