<svg xmlns="http://www.w3.org/2000/svg" xmlns:xlink="http://www.w3.org/1999/xlink" width="1024" zoomAndPan="magnify" viewBox="0 0 768 767.999994" height="1024" preserveAspectRatio="xMidYMid meet" version="1.0"><defs><g/><clipPath id="8855abb5fe"><path d="M 0.078125 1 L 3.921875 1 L 3.921875 2.640625 L 0.078125 2.640625 Z M 0.078125 1 " clip-rule="nonzero"/></clipPath><clipPath id="94e612b49b"><rect x="0" width="4" y="0" height="3"/></clipPath><clipPath id="87cb122b18"><path d="M 44.75 6.710938 L 723.5 6.710938 L 723.5 767.960938 L 44.75 767.960938 Z M 44.75 6.710938 " clip-rule="nonzero"/></clipPath><clipPath id="754b0afb7f"><path d="M 45 7 L 723.5 7 L 723.5 767.960938 L 45 767.960938 Z M 45 7 " clip-rule="nonzero"/></clipPath></defs><g transform="matrix(1, 0, 0, 1, 382, 366)"><g clip-path="url(#94e612b49b)"><g clip-path="url(#8855abb5fe)"><g fill="#ffffff" fill-opacity="1"><g transform="translate(0.254681, 2.199999)"><g><path d="M 0.3125 0.015625 C 0.257812 0.015625 0.210938 0.00390625 0.171875 -0.015625 C 0.140625 -0.046875 0.113281 -0.0820312 0.09375 -0.125 C 0.0703125 -0.164062 0.0625 -0.210938 0.0625 -0.265625 C 0.0625 -0.328125 0.0703125 -0.378906 0.09375 -0.421875 C 0.113281 -0.460938 0.140625 -0.492188 0.171875 -0.515625 C 0.210938 -0.535156 0.257812 -0.546875 0.3125 -0.546875 C 0.363281 -0.546875 0.40625 -0.535156 0.4375 -0.515625 C 0.476562 -0.492188 0.503906 -0.46875 0.515625 -0.4375 L 0.46875 -0.390625 L 0.453125 -0.390625 C 0.441406 -0.421875 0.421875 -0.441406 0.390625 -0.453125 C 0.367188 -0.472656 0.34375 -0.484375 0.3125 -0.484375 C 0.28125 -0.484375 0.25 -0.472656 0.21875 -0.453125 C 0.195312 -0.441406 0.175781 -0.421875 0.15625 -0.390625 C 0.144531 -0.359375 0.140625 -0.316406 0.140625 -0.265625 C 0.140625 -0.222656 0.144531 -0.1875 0.15625 -0.15625 C 0.175781 -0.125 0.195312 -0.0976562 0.21875 -0.078125 C 0.25 -0.0664062 0.28125 -0.0625 0.3125 -0.0625 C 0.34375 -0.0625 0.367188 -0.0664062 0.390625 -0.078125 C 0.421875 -0.0976562 0.441406 -0.128906 0.453125 -0.171875 L 0.46875 -0.171875 L 0.515625 -0.140625 C 0.503906 -0.0859375 0.476562 -0.046875 0.4375 -0.015625 C 0.40625 0.00390625 0.363281 0.015625 0.3125 0.015625 Z M 0.3125 0.015625 "/></g></g><g transform="translate(0.809856, 2.199999)"><g><path d="M 0.21875 0.015625 C 0.164062 0.015625 0.125 0 0.09375 -0.03125 C 0.0625 -0.0625 0.046875 -0.101562 0.046875 -0.15625 C 0.046875 -0.1875 0.0507812 -0.210938 0.0625 -0.234375 C 0.0820312 -0.253906 0.101562 -0.269531 0.125 -0.28125 C 0.15625 -0.300781 0.195312 -0.3125 0.25 -0.3125 C 0.28125 -0.320312 0.304688 -0.328125 0.328125 -0.328125 C 0.347656 -0.335938 0.363281 -0.347656 0.375 -0.359375 C 0.382812 -0.367188 0.390625 -0.382812 0.390625 -0.40625 C 0.390625 -0.425781 0.378906 -0.441406 0.359375 -0.453125 C 0.335938 -0.472656 0.3125 -0.484375 0.28125 -0.484375 C 0.238281 -0.484375 0.207031 -0.472656 0.1875 -0.453125 C 0.164062 -0.441406 0.144531 -0.425781 0.125 -0.40625 L 0.109375 -0.40625 L 0.078125 -0.453125 C 0.0976562 -0.484375 0.125 -0.503906 0.15625 -0.515625 C 0.1875 -0.535156 0.226562 -0.546875 0.28125 -0.546875 C 0.34375 -0.546875 0.390625 -0.53125 0.421875 -0.5 C 0.453125 -0.476562 0.46875 -0.441406 0.46875 -0.390625 L 0.46875 -0.109375 C 0.46875 -0.078125 0.476562 -0.0625 0.5 -0.0625 C 0.507812 -0.0625 0.519531 -0.0625 0.53125 -0.0625 L 0.546875 -0.015625 C 0.535156 -0.00390625 0.523438 0 0.515625 0 C 0.503906 0 0.492188 0 0.484375 0 C 0.453125 0 0.429688 -0.00390625 0.421875 -0.015625 C 0.410156 -0.0234375 0.398438 -0.046875 0.390625 -0.078125 L 0.375 -0.078125 C 0.363281 -0.046875 0.34375 -0.0195312 0.3125 0 C 0.289062 0.0078125 0.257812 0.015625 0.21875 0.015625 Z M 0.234375 -0.046875 C 0.265625 -0.046875 0.289062 -0.0507812 0.3125 -0.0625 C 0.332031 -0.0820312 0.347656 -0.101562 0.359375 -0.125 C 0.378906 -0.15625 0.390625 -0.1875 0.390625 -0.21875 L 0.390625 -0.28125 L 0.375 -0.296875 C 0.363281 -0.285156 0.347656 -0.273438 0.328125 -0.265625 C 0.316406 -0.265625 0.296875 -0.257812 0.265625 -0.25 C 0.234375 -0.25 0.207031 -0.242188 0.1875 -0.234375 C 0.164062 -0.222656 0.148438 -0.210938 0.140625 -0.203125 C 0.140625 -0.191406 0.140625 -0.175781 0.140625 -0.15625 C 0.140625 -0.125 0.144531 -0.0976562 0.15625 -0.078125 C 0.175781 -0.0546875 0.203125 -0.046875 0.234375 -0.046875 Z M 0.234375 -0.046875 "/></g></g><g transform="translate(1.366983, 2.199999)"><g><path d="M 0.09375 0 L 0.09375 -0.53125 L 0.171875 -0.53125 L 0.171875 -0.453125 L 0.1875 -0.453125 C 0.195312 -0.484375 0.21875 -0.503906 0.25 -0.515625 C 0.28125 -0.535156 0.3125 -0.546875 0.34375 -0.546875 C 0.414062 -0.546875 0.460938 -0.53125 0.484375 -0.5 C 0.515625 -0.46875 0.53125 -0.414062 0.53125 -0.34375 L 0.53125 0 L 0.453125 0 L 0.453125 -0.34375 C 0.453125 -0.375 0.445312 -0.398438 0.4375 -0.421875 C 0.4375 -0.441406 0.425781 -0.457031 0.40625 -0.46875 C 0.382812 -0.476562 0.359375 -0.484375 0.328125 -0.484375 C 0.285156 -0.484375 0.25 -0.46875 0.21875 -0.4375 C 0.1875 -0.40625 0.171875 -0.351562 0.171875 -0.28125 L 0.171875 0 Z M 0.09375 0 "/></g></g><g transform="translate(1.987099, 2.199999)"><g><path d="M 0.21875 0.015625 C 0.164062 0.015625 0.125 0 0.09375 -0.03125 C 0.0625 -0.0625 0.046875 -0.101562 0.046875 -0.15625 C 0.046875 -0.1875 0.0507812 -0.210938 0.0625 -0.234375 C 0.0820312 -0.253906 0.101562 -0.269531 0.125 -0.28125 C 0.15625 -0.300781 0.195312 -0.3125 0.25 -0.3125 C 0.28125 -0.320312 0.304688 -0.328125 0.328125 -0.328125 C 0.347656 -0.335938 0.363281 -0.347656 0.375 -0.359375 C 0.382812 -0.367188 0.390625 -0.382812 0.390625 -0.40625 C 0.390625 -0.425781 0.378906 -0.441406 0.359375 -0.453125 C 0.335938 -0.472656 0.3125 -0.484375 0.28125 -0.484375 C 0.238281 -0.484375 0.207031 -0.472656 0.1875 -0.453125 C 0.164062 -0.441406 0.144531 -0.425781 0.125 -0.40625 L 0.109375 -0.40625 L 0.078125 -0.453125 C 0.0976562 -0.484375 0.125 -0.503906 0.15625 -0.515625 C 0.1875 -0.535156 0.226562 -0.546875 0.28125 -0.546875 C 0.34375 -0.546875 0.390625 -0.53125 0.421875 -0.5 C 0.453125 -0.476562 0.46875 -0.441406 0.46875 -0.390625 L 0.46875 -0.109375 C 0.46875 -0.078125 0.476562 -0.0625 0.5 -0.0625 C 0.507812 -0.0625 0.519531 -0.0625 0.53125 -0.0625 L 0.546875 -0.015625 C 0.535156 -0.00390625 0.523438 0 0.515625 0 C 0.503906 0 0.492188 0 0.484375 0 C 0.453125 0 0.429688 -0.00390625 0.421875 -0.015625 C 0.410156 -0.0234375 0.398438 -0.046875 0.390625 -0.078125 L 0.375 -0.078125 C 0.363281 -0.046875 0.34375 -0.0195312 0.3125 0 C 0.289062 0.0078125 0.257812 0.015625 0.21875 0.015625 Z M 0.234375 -0.046875 C 0.265625 -0.046875 0.289062 -0.0507812 0.3125 -0.0625 C 0.332031 -0.0820312 0.347656 -0.101562 0.359375 -0.125 C 0.378906 -0.15625 0.390625 -0.1875 0.390625 -0.21875 L 0.390625 -0.28125 L 0.375 -0.296875 C 0.363281 -0.285156 0.347656 -0.273438 0.328125 -0.265625 C 0.316406 -0.265625 0.296875 -0.257812 0.265625 -0.25 C 0.234375 -0.25 0.207031 -0.242188 0.1875 -0.234375 C 0.164062 -0.222656 0.148438 -0.210938 0.140625 -0.203125 C 0.140625 -0.191406 0.140625 -0.175781 0.140625 -0.15625 C 0.140625 -0.125 0.144531 -0.0976562 0.15625 -0.078125 C 0.175781 -0.0546875 0.203125 -0.046875 0.234375 -0.046875 Z M 0.234375 -0.046875 "/></g></g><g transform="translate(2.544226, 2.199999)"><g><path d="M 0.28125 0.015625 C 0.238281 0.015625 0.195312 0.00390625 0.15625 -0.015625 C 0.125 -0.0351562 0.0976562 -0.0664062 0.078125 -0.109375 C 0.0664062 -0.148438 0.0625 -0.203125 0.0625 -0.265625 C 0.0625 -0.328125 0.0703125 -0.378906 0.09375 -0.421875 C 0.113281 -0.460938 0.140625 -0.492188 0.171875 -0.515625 C 0.203125 -0.535156 0.238281 -0.546875 0.28125 -0.546875 C 0.320312 -0.546875 0.351562 -0.539062 0.375 -0.53125 C 0.40625 -0.519531 0.429688 -0.5 0.453125 -0.46875 L 0.46875 -0.46875 L 0.46875 -0.75 L 0.546875 -0.75 L 0.546875 0 L 0.46875 0 L 0.46875 -0.078125 L 0.453125 -0.078125 C 0.441406 -0.0546875 0.421875 -0.0351562 0.390625 -0.015625 C 0.359375 0.00390625 0.320312 0.015625 0.28125 0.015625 Z M 0.296875 -0.0625 C 0.347656 -0.0625 0.390625 -0.078125 0.421875 -0.109375 C 0.453125 -0.148438 0.46875 -0.203125 0.46875 -0.265625 C 0.46875 -0.335938 0.453125 -0.390625 0.421875 -0.421875 C 0.390625 -0.460938 0.347656 -0.484375 0.296875 -0.484375 C 0.253906 -0.484375 0.21875 -0.460938 0.1875 -0.421875 C 0.15625 -0.390625 0.140625 -0.335938 0.140625 -0.265625 C 0.140625 -0.128906 0.191406 -0.0625 0.296875 -0.0625 Z M 0.296875 -0.0625 "/></g></g><g transform="translate(3.187291, 2.199999)"><g><path d="M 0.21875 0.015625 C 0.164062 0.015625 0.125 0 0.09375 -0.03125 C 0.0625 -0.0625 0.046875 -0.101562 0.046875 -0.15625 C 0.046875 -0.1875 0.0507812 -0.210938 0.0625 -0.234375 C 0.0820312 -0.253906 0.101562 -0.269531 0.125 -0.28125 C 0.15625 -0.300781 0.195312 -0.3125 0.25 -0.3125 C 0.28125 -0.320312 0.304688 -0.328125 0.328125 -0.328125 C 0.347656 -0.335938 0.363281 -0.347656 0.375 -0.359375 C 0.382812 -0.367188 0.390625 -0.382812 0.390625 -0.40625 C 0.390625 -0.425781 0.378906 -0.441406 0.359375 -0.453125 C 0.335938 -0.472656 0.3125 -0.484375 0.28125 -0.484375 C 0.238281 -0.484375 0.207031 -0.472656 0.1875 -0.453125 C 0.164062 -0.441406 0.144531 -0.425781 0.125 -0.40625 L 0.109375 -0.40625 L 0.078125 -0.453125 C 0.0976562 -0.484375 0.125 -0.503906 0.15625 -0.515625 C 0.1875 -0.535156 0.226562 -0.546875 0.28125 -0.546875 C 0.34375 -0.546875 0.390625 -0.53125 0.421875 -0.5 C 0.453125 -0.476562 0.46875 -0.441406 0.46875 -0.390625 L 0.46875 -0.109375 C 0.46875 -0.078125 0.476562 -0.0625 0.5 -0.0625 C 0.507812 -0.0625 0.519531 -0.0625 0.53125 -0.0625 L 0.546875 -0.015625 C 0.535156 -0.00390625 0.523438 0 0.515625 0 C 0.503906 0 0.492188 0 0.484375 0 C 0.453125 0 0.429688 -0.00390625 0.421875 -0.015625 C 0.410156 -0.0234375 0.398438 -0.046875 0.390625 -0.078125 L 0.375 -0.078125 C 0.363281 -0.046875 0.34375 -0.0195312 0.3125 0 C 0.289062 0.0078125 0.257812 0.015625 0.21875 0.015625 Z M 0.234375 -0.046875 C 0.265625 -0.046875 0.289062 -0.0507812 0.3125 -0.0625 C 0.332031 -0.0820312 0.347656 -0.101562 0.359375 -0.125 C 0.378906 -0.15625 0.390625 -0.1875 0.390625 -0.21875 L 0.390625 -0.28125 L 0.375 -0.296875 C 0.363281 -0.285156 0.347656 -0.273438 0.328125 -0.265625 C 0.316406 -0.265625 0.296875 -0.257812 0.265625 -0.25 C 0.234375 -0.25 0.207031 -0.242188 0.1875 -0.234375 C 0.164062 -0.222656 0.148438 -0.210938 0.140625 -0.203125 C 0.140625 -0.191406 0.140625 -0.175781 0.140625 -0.15625 C 0.140625 -0.125 0.144531 -0.0976562 0.15625 -0.078125 C 0.175781 -0.0546875 0.203125 -0.046875 0.234375 -0.046875 Z M 0.234375 -0.046875 "/></g></g></g></g></g></g><g clip-path="url(#87cb122b18)"><path stroke-linecap="butt" transform="matrix(0.750285, 0, 0, 0.749965, 44.878928, 6.711299)" fill="none" stroke-linejoin="miter" d="M 618.863732 180.377659 L 584.699633 202.790155 C 581.872582 204.675659 578.655055 205.795502 575.354226 206.024679 C 561.286656 207.066394 549.817057 206.024679 540.950635 202.909952 C 536.97298 201.586974 533.495135 199.024355 531.001291 195.597113 C 520.213724 180.976645 511.623239 165.309253 505.229835 148.605355 C 485.253052 96.26439 469.550687 48.673646 458.122738 5.83833 C 457.03461 1.952733 452.999685 -0.312997 449.110538 0.770387 C 446.564631 1.483961 444.601835 3.515305 443.977072 6.077924 C 430.633185 62.018013 412.572341 115.838213 389.799746 167.543731 C 364.866513 224.244273 323.991423 212.853121 285.99024 179.289067 C 283.808777 177.466066 280.560012 177.752537 278.732581 179.940139 C 277.769406 181.091234 277.358104 182.606929 277.602802 184.086164 C 298.459459 290.653597 318.118654 350.224063 311.282711 426.102575 C 310.819345 431.113224 306.378325 434.795686 301.369811 434.337331 C 300.666954 434.26962 299.964096 434.12378 299.297682 433.894602 C 280.835949 427.665147 263.654978 417.38863 247.754771 403.085885 C 194.21262 354.9847 165.723447 328.889742 162.287253 324.816637 C 160.970045 323.155101 158.554296 322.879047 156.898676 324.196816 C 156.044833 324.873931 155.518992 325.884394 155.451309 326.967778 L 154.134101 342.072644 C 152.796068 356.906664 139.63961 367.834253 124.733816 366.474815 C 122.541941 366.276889 120.376098 365.808117 118.293556 365.089334 L 7.533566 326.139614 C 4.784611 325.17082 1.775338 326.613595 0.806956 329.363722 C 0.30194 330.790871 0.442511 332.369069 1.181814 333.692047 L 42.895127 405.966226 C 45.711765 410.799783 45.711765 416.794853 42.895127 421.670078 L 35.460453 434.498797 C 33.174863 438.540651 33.362292 443.535674 35.944644 447.442105 L 53.80244 474.052711 C 55.718379 476.839299 57.249047 479.907149 58.358001 483.167717 C 70.660617 520.086092 56.400411 542.019399 15.566972 548.972846 C 11.92773 549.634335 9.475537 553.092828 10.079474 556.691953 C 10.397061 558.577457 11.52684 560.223367 13.166842 561.19737 C 48.163958 582.292097 85.608061 607.105745 125.488738 635.638316 C 139.712499 645.784619 151.458035 656.415319 160.730553 667.52 C 169.576149 678.109032 168.904529 693.667044 159.173853 703.365409 L 74.664303 787.87453 C 73.274207 789.291262 73.295032 791.567409 74.716367 792.958098 C 75.403606 793.635213 76.335543 794.005022 77.298719 793.989396 C 148.021841 794.390456 198.966021 795.54676 230.136467 797.463515 C 269.371556 799.942797 285.99024 819.365571 279.997726 855.72142 C 279.628074 857.80485 281.023377 859.799734 283.105919 860.169543 C 284.022238 860.331009 284.959382 860.159126 285.755954 859.674728 L 433.55395 774.332236 C 435.620873 773.134264 438.255289 773.837422 439.45275 775.900017 C 439.874465 776.629217 440.072306 777.452172 440.030656 778.285544 C 434.912809 854.122388 420.569302 924.92254 397.000134 990.696418 C 393.694099 999.847883 398.385025 1009.931684 407.47532 1013.218294 C 407.855384 1013.353717 408.240654 1013.473514 408.625924 1013.588103 L 409.224655 1013.822489 C 419.241681 1016.655953 429.680422 1010.817141 432.595981 1000.759384 C 454.572004 923.886034 464.958682 849.127365 463.76122 776.483377 C 463.792458 774.504119 465.37519 772.89467 467.296335 772.889461 C 467.910685 772.889461 468.509416 773.050927 469.035257 773.36865 L 616.83846 858.711142 C 619.457257 860.127874 622.726848 859.148662 624.142976 856.528749 C 624.85104 855.21098 624.986405 853.658825 624.507421 852.242092 C 616.515666 830.590049 624.309579 813.724685 647.878747 801.656418 C 652.220847 799.447982 656.969042 798.218758 661.78492 798.062501 L 830.918558 793.031018 C 833.433228 793.031018 835.479325 790.989257 835.479325 788.478724 C 835.479325 786.999489 834.760848 785.614008 833.552974 784.759802 C 800.232304 759.987822 770.623765 733.497013 744.732563 705.287373 C 730.586897 689.942913 729.946516 676.713134 742.816625 665.608453 C 783.165873 630.606833 832.959449 595.365618 892.171321 559.884809 C 894.545419 558.53058 895.315959 555.509607 893.894625 553.134497 C 893.045989 551.707348 891.546559 550.780221 889.896144 550.650007 C 878.785783 549.931224 866.681009 544.936201 853.571408 535.670147 C 850.499658 533.456503 847.990195 530.539701 846.261686 527.154128 C 831.876528 498.267374 850.338261 465.182509 866.87885 446.483727 C 869.263361 443.691931 869.414345 439.618826 867.238089 436.655147 C 848.057878 411.242512 887.735507 355.745152 903.437873 329.009539 C 904.218826 327.759481 903.786698 326.139614 902.479903 325.384371 C 901.75622 324.962477 900.865933 324.884348 900.079774 325.17082 C 870.590981 336.280709 837.988788 347.906247 802.267989 360.052643 C 783.650064 366.365435 768.947319 366.047712 758.154545 359.094265 C 754.822478 357.000418 752.281777 353.786728 750.96457 349.984468 C 749.282917 345.187371 749.126726 338.874579 750.480379 331.046092 C 751.073903 327.717813 748.855996 324.545791 745.534342 323.957222 C 743.748562 323.639499 741.915925 324.129105 740.525828 325.295825 C 707.559191 352.984607 660.816538 412.560282 611.309312 432.69663 C 604.515019 435.498843 596.726312 432.201816 593.920087 425.336915 C 593.534817 424.388954 593.248467 423.399325 593.08707 422.383653 C 589.650876 400.247212 590.129861 376.714872 594.529231 351.781426 C 602.755271 304.471945 613.11071 248.854787 625.569517 184.924744 C 626.006851 182.513174 624.4085 180.205776 622.003164 179.768256 C 620.920242 179.580747 619.79567 179.794299 618.863732 180.377659 " stroke="#f49393" stroke-width="2" stroke-opacity="1" stroke-miterlimit="4"/></g><g clip-path="url(#754b0afb7f)"><path fill="#e82626" d="M 509.203125 141.988281 C 510.761719 141.015625 512.8125 141.488281 513.789062 143.046875 C 514.226562 143.75 514.386719 144.59375 514.238281 145.40625 C 504.886719 193.351562 497.121094 235.0625 490.949219 270.542969 C 487.648438 289.246094 487.292969 306.890625 489.867188 323.492188 C 490.761719 328.980469 495.902344 332.71875 501.34375 331.84375 C 502.097656 331.722656 502.832031 331.515625 503.535156 331.222656 C 540.679688 316.121094 575.753906 271.441406 600.484375 250.675781 C 602.425781 249.050781 605.320312 249.300781 606.949219 251.238281 C 607.824219 252.28125 608.1875 253.652344 607.953125 254.992188 C 606.933594 260.867188 607.054688 265.601562 608.316406 269.195312 C 609.304688 272.046875 611.207031 274.457031 613.710938 276.027344 C 621.808594 281.242188 632.839844 281.480469 646.808594 276.746094 C 673.609375 267.636719 698.070312 258.917969 720.195312 250.585938 C 721.261719 250.199219 722.460938 250.71875 722.867188 251.742188 C 723.09375 252.308594 723.039062 252.941406 722.714844 253.464844 C 710.933594 273.511719 681.164062 315.132812 695.554688 334.191406 C 697.1875 336.414062 697.074219 339.46875 695.285156 341.566406 C 682.871094 355.589844 669.023438 380.402344 679.816406 402.066406 C 681.117188 404.605469 682.996094 406.792969 685.300781 408.453125 C 695.136719 415.402344 704.21875 419.148438 712.554688 419.6875 C 714.625 419.851562 716.203125 421.636719 716.085938 423.679688 C 716.011719 424.90625 715.332031 426 714.265625 426.609375 C 669.839844 453.21875 632.484375 479.648438 602.207031 505.898438 C 592.550781 514.226562 593.035156 524.144531 603.644531 535.65625 C 623.070312 556.8125 645.28125 576.679688 670.285156 595.257812 C 671.828125 596.347656 672.1875 598.480469 671.097656 600.023438 C 670.453125 600.925781 669.414062 601.464844 668.308594 601.464844 L 541.410156 605.238281 C 537.796875 605.355469 534.234375 606.277344 530.976562 607.933594 C 513.289062 616.984375 507.445312 629.632812 513.441406 645.871094 C 514.15625 647.992188 513.019531 650.28125 510.898438 650.996094 C 509.835938 651.355469 508.671875 651.257812 507.6875 650.722656 L 396.792969 586.71875 C 395.554688 585.976562 393.949219 586.417969 393.207031 587.707031 C 392.96875 588.117188 392.839844 588.582031 392.832031 589.054688 C 393.730469 643.535156 385.9375 699.601562 369.449219 757.253906 C 367.261719 764.796875 359.429688 769.175781 351.914062 767.050781 L 351.464844 766.875 C 344.488281 764.890625 340.457031 757.59375 342.460938 750.574219 C 342.542969 750.28125 342.636719 749.992188 342.742188 749.703125 C 360.429688 700.375 371.191406 647.277344 375.027344 590.402344 C 375.117188 588.617188 373.746094 587.09375 371.960938 587.003906 C 371.335938 586.972656 370.710938 587.121094 370.171875 587.4375 L 259.28125 651.441406 C 257.917969 652.261719 256.148438 651.824219 255.332031 650.457031 C 254.972656 649.859375 254.84375 649.15625 254.960938 648.472656 C 259.457031 621.207031 246.988281 606.640625 217.550781 604.78125 C 194.164062 603.347656 155.941406 602.476562 102.878906 602.175781 C 101.386719 602.203125 100.160156 601.019531 100.128906 599.53125 C 100.113281 598.808594 100.390625 598.109375 100.902344 597.59375 L 164.308594 534.214844 C 171.609375 526.941406 172.117188 515.273438 165.476562 507.335938 C 158.523438 499.003906 149.707031 491.03125 139.035156 483.421875 C 109.105469 462.023438 81.015625 443.414062 54.757812 427.59375 C 52.402344 426.195312 51.667969 423.144531 53.113281 420.777344 C 53.871094 419.542969 55.128906 418.683594 56.554688 418.421875 C 87.191406 413.207031 97.890625 396.753906 88.660156 369.070312 C 87.824219 366.625 86.675781 364.324219 85.242188 362.238281 L 71.84375 342.277344 C 69.90625 339.347656 69.769531 335.597656 71.480469 332.570312 L 77.058594 322.949219 C 79.171875 319.292969 79.171875 314.796875 77.058594 311.171875 L 45.765625 256.964844 C 44.695312 255.058594 45.378906 252.648438 47.28125 251.582031 C 48.277344 251.027344 49.460938 250.921875 50.53125 251.300781 L 133.632812 280.519531 C 144.238281 284.195312 155.8125 278.621094 159.484375 268.070312 C 160.023438 266.511719 160.375 264.898438 160.523438 263.257812 L 161.511719 251.929688 C 161.605469 250.34375 162.96875 249.136719 164.554688 249.230469 C 165.371094 249.28125 166.128906 249.671875 166.636719 250.316406 C 169.214844 253.371094 190.589844 272.941406 230.761719 309.015625 C 242.695312 319.742188 255.582031 327.449219 269.433594 332.121094 C 273.007812 333.332031 276.890625 331.410156 278.09375 327.835938 C 278.265625 327.328125 278.375 326.808594 278.425781 326.277344 C 283.554688 269.371094 268.800781 224.695312 253.15625 144.773438 C 252.808594 142.667969 254.230469 140.679688 256.339844 140.328125 C 257.449219 140.148438 258.582031 140.453125 259.453125 141.175781 C 287.960938 166.347656 318.628906 174.890625 337.335938 132.367188 C 354.421875 93.589844 367.972656 53.226562 377.984375 11.273438 C 378.703125 8.332031 381.671875 6.527344 384.617188 7.246094 C 386.542969 7.714844 388.0625 9.1875 388.597656 11.09375 C 397.171875 43.21875 408.953125 78.910156 423.941406 118.164062 C 428.738281 130.691406 435.183594 142.4375 443.277344 153.40625 C 445.148438 155.976562 447.757812 157.898438 450.742188 158.890625 C 457.398438 161.226562 466 162.007812 476.554688 161.226562 C 479.03125 161.050781 481.445312 160.210938 483.566406 158.800781 Z M 509.203125 141.988281 " fill-opacity="1" fill-rule="nonzero"/></g></svg>