<svg xmlns="http://www.w3.org/2000/svg" xmlns:xlink="http://www.w3.org/1999/xlink" width="1024" zoomAndPan="magnify" viewBox="0 0 768 767.999994" height="1024" preserveAspectRatio="xMidYMid meet" version="1.0"><defs><clipPath id="99e5fba566"><path d="M 99.046875 351.035156 L 112.546875 351.035156 L 112.546875 366 L 99.046875 366 Z M 99.046875 351.035156 " clip-rule="nonzero"/></clipPath><clipPath id="46537e0709"><path d="M 0 105.601562 L 768 105.601562 L 768 691.351562 L 0 691.351562 Z M 0 105.601562 " clip-rule="nonzero"/></clipPath></defs><g clip-path="url(#99e5fba566)"><path fill="#ffffff" d="M 107.886719 351.265625 C 107.886719 351.140625 107.988281 351.035156 108.113281 351.035156 C 108.238281 351.035156 108.34375 351.140625 108.34375 351.265625 L 108.34375 352.289062 C 108.34375 352.414062 108.238281 352.519531 108.113281 352.519531 C 107.988281 352.519531 107.886719 352.414062 107.886719 352.289062 Z M 109.230469 362.300781 L 110.5 363.570312 C 110.855469 363.929688 110.84375 364.507812 110.464844 364.847656 C 109.507812 365.710938 108.707031 366.074219 107.101562 365.707031 C 107.101562 365.707031 107.097656 365.707031 107.097656 365.707031 C 104.214844 364.855469 99.988281 360.5 99.191406 357.800781 C 98.824219 356.191406 99.191406 355.390625 100.054688 354.433594 C 100.390625 354.058594 100.972656 354.042969 101.328125 354.402344 L 102.597656 355.667969 C 102.9375 356.007812 102.988281 356.527344 102.71875 356.929688 C 101.722656 358.417969 102.117188 359.484375 103.765625 361.132812 C 105.417969 362.785156 106.484375 363.179688 107.972656 362.179688 C 108.371094 361.910156 108.890625 361.960938 109.230469 362.300781 Z M 107.523438 359.488281 L 111.714844 359.488281 C 111.734375 359.488281 111.746094 359.472656 111.742188 359.453125 L 111.566406 358.738281 C 111.507812 358.507812 111.308594 358.347656 111.070312 358.347656 L 105.160156 358.347656 C 104.921875 358.347656 104.71875 358.507812 104.660156 358.738281 L 104.484375 359.453125 C 104.480469 359.472656 104.496094 359.488281 104.515625 359.488281 Z M 105.695312 357.859375 C 105.691406 357.878906 105.707031 357.894531 105.722656 357.894531 L 107.855469 357.894531 C 107.871094 357.894531 107.886719 357.878906 107.886719 357.863281 L 107.886719 356.46875 C 107.886719 356.457031 107.878906 356.449219 107.871094 356.441406 C 107.6875 356.351562 107.5625 356.164062 107.5625 355.945312 C 107.5625 355.640625 107.808594 355.394531 108.113281 355.394531 C 108.417969 355.394531 108.667969 355.640625 108.667969 355.945312 C 108.667969 356.164062 108.542969 356.351562 108.359375 356.441406 C 108.347656 356.449219 108.34375 356.457031 108.34375 356.46875 L 108.34375 357.863281 C 108.34375 357.878906 108.355469 357.894531 108.371094 357.894531 L 110.503906 357.894531 C 110.523438 357.894531 110.535156 357.878906 110.535156 357.859375 C 110.324219 354.453125 109.230469 353.863281 108.113281 353.867188 C 107 353.863281 105.90625 354.453125 105.695312 357.859375 Z M 112.257812 354.488281 C 112.386719 354.488281 112.488281 354.589844 112.488281 354.71875 C 112.488281 354.84375 112.386719 354.945312 112.257812 354.945312 L 111.148438 354.945312 C 111.023438 354.945312 110.917969 354.84375 110.917969 354.71875 C 110.917969 354.589844 111.023438 354.488281 111.148438 354.488281 Z M 110.441406 352.070312 C 110.527344 351.980469 110.671875 351.980469 110.761719 352.070312 C 110.851562 352.160156 110.851562 352.304688 110.761719 352.390625 L 110.035156 353.117188 C 109.945312 353.207031 109.800781 353.207031 109.714844 353.117188 C 109.625 353.027344 109.625 352.886719 109.714844 352.796875 Z M 103.96875 354.945312 L 105.082031 354.945312 C 105.207031 354.945312 105.308594 354.84375 105.308594 354.71875 C 105.308594 354.589844 105.207031 354.488281 105.082031 354.488281 L 103.96875 354.488281 C 103.84375 354.488281 103.742188 354.589844 103.742188 354.71875 C 103.742188 354.84375 103.84375 354.945312 103.96875 354.945312 Z M 105.464844 352.390625 C 105.378906 352.304688 105.378906 352.160156 105.464844 352.070312 C 105.554688 351.980469 105.699219 351.980469 105.789062 352.070312 L 106.515625 352.796875 C 106.605469 352.886719 106.605469 353.027344 106.515625 353.117188 C 106.425781 353.207031 106.28125 353.207031 106.191406 353.117188 Z M 105.464844 352.390625 " fill-opacity="1" fill-rule="evenodd"/></g><g clip-path="url(#46537e0709)"><path fill="#009639" d="M 434.21875 250.945312 L 638.183594 604.226562 C 660.566406 643 632.738281 691.207031 587.96875 691.207031 L 180.035156 691.207031 C 135.265625 691.207031 107.433594 642.996094 129.816406 604.226562 L 333.78125 250.945312 C 356.167969 212.175781 411.832031 212.175781 434.21875 250.945312 Z M 103.285156 114.816406 L 84.035156 139.816406 C 75.476562 150.9375 78.367188 166.824219 90.296875 174.214844 L 211.667969 249.402344 C 219.605469 254.320312 229.875 252.449219 235.570312 245.050781 L 243.78125 234.386719 C 249.476562 226.988281 248.65625 216.578125 241.875 210.164062 L 138.140625 112.070312 C 127.957031 102.4375 111.835938 103.707031 103.285156 114.816406 Z M 1.738281 323.3125 L 0.230469 354.828125 C -0.441406 368.84375 11.011719 380.230469 25.023438 379.480469 L 167.589844 371.835938 C 176.914062 371.335938 184.277344 363.929688 184.722656 354.601562 L 185.363281 341.160156 C 185.8125 331.832031 179.191406 323.761719 169.957031 322.371094 L 28.773438 301.136719 C 14.898438 299.050781 2.410156 309.292969 1.738281 323.3125 Z M 664.714844 114.816406 C 656.164062 103.707031 640.042969 102.4375 629.859375 112.070312 L 526.125 210.164062 C 519.339844 216.582031 518.523438 226.988281 524.21875 234.386719 L 532.429688 245.050781 C 538.125 252.453125 548.394531 254.320312 556.332031 249.402344 L 677.703125 174.21875 C 689.628906 166.828125 692.523438 150.9375 683.964844 139.816406 Z M 766.261719 323.3125 C 765.589844 309.296875 753.101562 299.054688 739.226562 301.140625 L 598.042969 322.375 C 588.808594 323.765625 582.1875 331.835938 582.636719 341.164062 L 583.277344 354.605469 C 583.722656 363.933594 591.085938 371.339844 600.410156 371.839844 L 742.976562 379.484375 C 756.988281 380.234375 768.441406 368.847656 767.769531 354.832031 Z M 384 579.558594 C 366.589844 579.558594 352.472656 593.675781 352.472656 611.085938 C 352.472656 628.5 366.589844 642.613281 384 642.613281 C 401.410156 642.613281 415.527344 628.5 415.527344 611.085938 C 415.527344 593.675781 401.410156 579.558594 384 579.558594 Z M 374.238281 346.050781 C 356.972656 346.050781 343.644531 360.804688 345.394531 377.984375 L 358.910156 510.777344 C 360.042969 521.925781 369.339844 530.324219 380.546875 530.324219 L 387.457031 530.324219 C 398.660156 530.324219 407.957031 521.925781 409.09375 510.777344 L 422.605469 377.984375 C 424.355469 360.804688 411.027344 346.050781 393.761719 346.050781 Z M 374.238281 346.050781 " fill-opacity="1" fill-rule="evenodd"/></g></svg>