<svg xmlns="http://www.w3.org/2000/svg" xmlns:xlink="http://www.w3.org/1999/xlink" width="1024" zoomAndPan="magnify" viewBox="0 0 768 767.999994" height="1024" preserveAspectRatio="xMidYMid meet" version="1.0"><defs><g/><clipPath id="8743bbcfa5"><path d="M 0 26.398438 L 761 26.398438 L 761 741 L 0 741 Z M 0 26.398438 " clip-rule="nonzero"/></clipPath><clipPath id="efadd00bf4"><path d="M 0.078125 1 L 3.921875 1 L 3.921875 2.640625 L 0.078125 2.640625 Z M 0.078125 1 " clip-rule="nonzero"/></clipPath><clipPath id="d2718c1439"><rect x="0" width="4" y="0" height="3"/></clipPath></defs><g clip-path="url(#8743bbcfa5)"><path fill="#009639" d="M 514.386719 26.988281 C 507.972656 26.988281 500.261719 29.246094 489.765625 33.273438 C 464.917969 42.808594 425.171875 61.957031 392.273438 79.6875 C 359.375 97.417969 333.410156 113.675781 313.183594 131.847656 C 304.980469 139.21875 297.714844 146.910156 290.207031 155.460938 L 290.207031 155.464844 L 290.199219 155.46875 C 285.183594 161.183594 280.074219 167.269531 274.503906 173.902344 L 274.488281 173.917969 L 274.476562 173.9375 C 267.84375 181.832031 260.574219 190.488281 252.078125 200.167969 C 246.496094 206.527344 240.390625 213.320312 233.871094 220.578125 L 233.824219 220.632812 C 209.605469 247.582031 179.703125 280.863281 149.914062 321.527344 C 112.082031 373.175781 74.402344 436.765625 36.703125 500.40625 L 36.699219 500.410156 C 36.699219 500.410156 36.695312 500.414062 36.695312 500.414062 L 36.617188 500.550781 C 19.679688 530.113281 2.933594 559.394531 -0.160156 577.382812 C -1.828125 587.082031 0.507812 593.433594 4.078125 598.953125 L 4.078125 598.957031 L 4.078125 598.953125 C 5.558594 601.238281 7.257812 603.394531 8.996094 605.597656 L 9.015625 605.617188 L 9.015625 605.621094 L 9.085938 605.710938 L 9.085938 605.714844 C 10.824219 607.910156 12.605469 610.171875 14.199219 612.636719 C 14.214844 612.664062 14.230469 612.6875 14.25 612.707031 L 14.246094 612.710938 C 16.597656 616.355469 18.53125 620.425781 20.5 624.578125 L 20.5 624.582031 L 20.527344 624.632812 C 24.484375 632.964844 28.648438 641.714844 36.777344 648.917969 C 46.292969 657.347656 61.300781 663.714844 78.128906 670.230469 C 80.453125 671.128906 83.132812 672.15625 85.515625 673.066406 C 88.089844 674.050781 90.574219 675 93.183594 676.011719 C 94.839844 676.652344 96.226562 677.191406 97.902344 677.847656 C 97.929688 677.859375 97.953125 677.867188 97.976562 677.871094 L 97.96875 677.875 C 119.140625 686.128906 143.304688 695.542969 200.472656 707.332031 C 262.019531 720.023438 361.769531 735.457031 429.292969 739.566406 C 442.925781 740.398438 455.21875 740.765625 466.488281 740.765625 C 510.875 740.765625 538.988281 735.050781 567.121094 729.308594 L 567.359375 729.257812 L 567.359375 729.261719 C 567.421875 729.246094 567.484375 729.242188 567.546875 729.242188 C 567.558594 729.242188 567.570312 729.242188 567.578125 729.242188 L 567.589844 729.242188 L 567.59375 729.246094 L 567.621094 729.242188 L 567.621094 729.246094 C 578.644531 729.664062 589.640625 730.082031 600.507812 730.082031 C 631.980469 730.082031 662.195312 726.558594 688.203125 709.480469 C 723.265625 686.457031 750.851562 638.679688 758.46875 598.046875 C 766.0625 557.558594 753.808594 524.207031 724.367188 492.371094 C 695.253906 460.886719 649.550781 431.113281 606.578125 431.113281 C 605.949219 431.113281 605.421875 431.117188 604.792969 431.132812 C 561.292969 431.972656 520.617188 463.796875 479.597656 495.9375 C 479.433594 496.066406 479.226562 496.132812 479.027344 496.132812 C 478.863281 496.132812 478.703125 496.089844 478.558594 496.007812 C 449.679688 479.011719 421.117188 462.238281 394.023438 462.238281 C 394.003906 462.238281 393.980469 462.238281 393.96875 462.238281 L 393.953125 462.238281 C 393.949219 462.238281 393.941406 462.238281 393.933594 462.238281 C 393.925781 462.238281 393.921875 462.238281 393.914062 462.238281 C 366.8125 462.28125 341.035156 479.144531 314.941406 496.25 L 314.941406 496.253906 C 314.792969 496.351562 314.613281 496.402344 314.4375 496.402344 C 314.335938 496.402344 314.226562 496.386719 314.128906 496.351562 L 314.085938 496.335938 L 314.082031 496.332031 C 310.597656 495.085938 307.238281 493.898438 302.75 493.898438 C 299.214844 493.898438 294.941406 494.636719 289.335938 496.742188 C 276.574219 501.542969 257.175781 513.351562 237.613281 525.277344 L 237.609375 525.28125 L 237.300781 525.464844 C 237.152344 525.554688 236.988281 525.601562 236.820312 525.601562 C 236.570312 525.601562 236.328125 525.5 236.144531 525.308594 C 235.847656 524.988281 235.8125 524.5 236.066406 524.144531 L 236.066406 524.140625 L 236.085938 524.117188 L 236.101562 524.09375 C 244.71875 511.867188 253.289062 499.695312 259.058594 472.585938 C 261.914062 459.160156 264.085938 442.074219 266.273438 424.824219 L 266.273438 424.820312 L 266.28125 424.773438 L 266.285156 424.726562 L 266.285156 424.730469 C 268.53125 407.042969 270.796875 389.207031 273.847656 375.0625 C 279.863281 347.214844 288.921875 333.734375 297.957031 320.421875 L 297.949219 320.425781 C 298.007812 320.363281 298.054688 320.292969 298.085938 320.214844 L 298.097656 320.183594 L 298.101562 320.183594 L 298.296875 319.6875 C 314.910156 277.539062 331.574219 235.332031 348.136719 210.226562 C 364.832031 184.917969 381.484375 176.878906 392.542969 174.78125 L 392.542969 174.785156 C 394.6875 174.375 396.628906 174.191406 398.398438 174.191406 C 405.792969 174.191406 410.089844 177.398438 414.097656 180.402344 L 414.105469 180.40625 L 414.191406 180.46875 L 414.183594 180.460938 L 414.195312 180.46875 C 419.097656 184.144531 423.734375 187.609375 432.4375 188.402344 C 432.453125 188.40625 432.472656 188.40625 432.488281 188.40625 L 432.496094 188.410156 C 433.867188 188.527344 435.359375 188.585938 436.925781 188.589844 L 436.929688 188.59375 C 436.949219 188.589844 436.96875 188.585938 436.988281 188.585938 L 436.980469 188.589844 C 445.515625 188.578125 456.5625 186.910156 467.707031 185.226562 C 467.75 185.21875 467.800781 185.21875 467.847656 185.21875 C 467.855469 185.21875 467.863281 185.21875 467.875 185.21875 C 478.375 185.554688 488.882812 185.890625 498.578125 185.890625 C 516.457031 185.890625 531.386719 184.734375 538.898438 180.53125 C 542.464844 178.53125 544.34375 175.839844 545.351562 172.8125 C 546.515625 169.324219 546.535156 165.394531 546.546875 161.460938 L 546.546875 161.148438 C 546.558594 157.730469 546.589844 154.277344 547.542969 151.417969 L 547.542969 151.414062 L 547.542969 151.417969 C 549.832031 144.5625 557.234375 141.359375 563.835938 139.097656 C 564.976562 138.707031 566.144531 138.332031 567.234375 137.976562 L 567.277344 137.964844 L 567.277344 137.960938 C 568.332031 137.621094 569.34375 137.296875 570.296875 136.972656 C 570.308594 136.964844 570.324219 136.960938 570.335938 136.957031 L 570.328125 136.960938 C 570.410156 136.929688 570.460938 136.914062 570.542969 136.886719 C 570.550781 136.882812 570.558594 136.878906 570.566406 136.878906 L 570.558594 136.882812 C 577.601562 134.4375 581.757812 132.207031 575.292969 113.539062 C 568.679688 94.457031 551.136719 59.003906 537.414062 41.296875 C 529.515625 31.097656 523.039062 26.988281 514.386719 26.988281 Z M 514.386719 26.988281 " fill-opacity="0.984" fill-rule="nonzero"/></g><g transform="matrix(1, 0, 0, 1, 382, 366)"><g clip-path="url(#d2718c1439)"><g clip-path="url(#efadd00bf4)"><g fill="#ffffff" fill-opacity="1"><g transform="translate(0.254681, 2.199999)"><g><path d="M 0.3125 0.015625 C 0.257812 0.015625 0.210938 0.00390625 0.171875 -0.015625 C 0.140625 -0.046875 0.113281 -0.0820312 0.09375 -0.125 C 0.0703125 -0.164062 0.0625 -0.210938 0.0625 -0.265625 C 0.0625 -0.328125 0.0703125 -0.378906 0.09375 -0.421875 C 0.113281 -0.460938 0.140625 -0.492188 0.171875 -0.515625 C 0.210938 -0.535156 0.257812 -0.546875 0.3125 -0.546875 C 0.363281 -0.546875 0.40625 -0.535156 0.4375 -0.515625 C 0.476562 -0.492188 0.503906 -0.46875 0.515625 -0.4375 L 0.46875 -0.390625 L 0.453125 -0.390625 C 0.441406 -0.421875 0.421875 -0.441406 0.390625 -0.453125 C 0.367188 -0.472656 0.34375 -0.484375 0.3125 -0.484375 C 0.28125 -0.484375 0.25 -0.472656 0.21875 -0.453125 C 0.195312 -0.441406 0.175781 -0.421875 0.15625 -0.390625 C 0.144531 -0.359375 0.140625 -0.316406 0.140625 -0.265625 C 0.140625 -0.222656 0.144531 -0.1875 0.15625 -0.15625 C 0.175781 -0.125 0.195312 -0.0976562 0.21875 -0.078125 C 0.25 -0.0664062 0.28125 -0.0625 0.3125 -0.0625 C 0.34375 -0.0625 0.367188 -0.0664062 0.390625 -0.078125 C 0.421875 -0.0976562 0.441406 -0.128906 0.453125 -0.171875 L 0.46875 -0.171875 L 0.515625 -0.140625 C 0.503906 -0.0859375 0.476562 -0.046875 0.4375 -0.015625 C 0.40625 0.00390625 0.363281 0.015625 0.3125 0.015625 Z M 0.3125 0.015625 "/></g></g><g transform="translate(0.809856, 2.199999)"><g><path d="M 0.21875 0.015625 C 0.164062 0.015625 0.125 0 0.09375 -0.03125 C 0.0625 -0.0625 0.046875 -0.101562 0.046875 -0.15625 C 0.046875 -0.1875 0.0507812 -0.210938 0.0625 -0.234375 C 0.0820312 -0.253906 0.101562 -0.269531 0.125 -0.28125 C 0.15625 -0.300781 0.195312 -0.3125 0.25 -0.3125 C 0.28125 -0.320312 0.304688 -0.328125 0.328125 -0.328125 C 0.347656 -0.335938 0.363281 -0.347656 0.375 -0.359375 C 0.382812 -0.367188 0.390625 -0.382812 0.390625 -0.40625 C 0.390625 -0.425781 0.378906 -0.441406 0.359375 -0.453125 C 0.335938 -0.472656 0.3125 -0.484375 0.28125 -0.484375 C 0.238281 -0.484375 0.207031 -0.472656 0.1875 -0.453125 C 0.164062 -0.441406 0.144531 -0.425781 0.125 -0.40625 L 0.109375 -0.40625 L 0.078125 -0.453125 C 0.0976562 -0.484375 0.125 -0.503906 0.15625 -0.515625 C 0.1875 -0.535156 0.226562 -0.546875 0.28125 -0.546875 C 0.34375 -0.546875 0.390625 -0.53125 0.421875 -0.5 C 0.453125 -0.476562 0.46875 -0.441406 0.46875 -0.390625 L 0.46875 -0.109375 C 0.46875 -0.078125 0.476562 -0.0625 0.5 -0.0625 C 0.507812 -0.0625 0.519531 -0.0625 0.53125 -0.0625 L 0.546875 -0.015625 C 0.535156 -0.00390625 0.523438 0 0.515625 0 C 0.503906 0 0.492188 0 0.484375 0 C 0.453125 0 0.429688 -0.00390625 0.421875 -0.015625 C 0.410156 -0.0234375 0.398438 -0.046875 0.390625 -0.078125 L 0.375 -0.078125 C 0.363281 -0.046875 0.34375 -0.0195312 0.3125 0 C 0.289062 0.0078125 0.257812 0.015625 0.21875 0.015625 Z M 0.234375 -0.046875 C 0.265625 -0.046875 0.289062 -0.0507812 0.3125 -0.0625 C 0.332031 -0.0820312 0.347656 -0.101562 0.359375 -0.125 C 0.378906 -0.15625 0.390625 -0.1875 0.390625 -0.21875 L 0.390625 -0.28125 L 0.375 -0.296875 C 0.363281 -0.285156 0.347656 -0.273438 0.328125 -0.265625 C 0.316406 -0.265625 0.296875 -0.257812 0.265625 -0.25 C 0.234375 -0.25 0.207031 -0.242188 0.1875 -0.234375 C 0.164062 -0.222656 0.148438 -0.210938 0.140625 -0.203125 C 0.140625 -0.191406 0.140625 -0.175781 0.140625 -0.15625 C 0.140625 -0.125 0.144531 -0.0976562 0.15625 -0.078125 C 0.175781 -0.0546875 0.203125 -0.046875 0.234375 -0.046875 Z M 0.234375 -0.046875 "/></g></g><g transform="translate(1.366983, 2.199999)"><g><path d="M 0.09375 0 L 0.09375 -0.53125 L 0.171875 -0.53125 L 0.171875 -0.453125 L 0.1875 -0.453125 C 0.195312 -0.484375 0.21875 -0.503906 0.25 -0.515625 C 0.28125 -0.535156 0.3125 -0.546875 0.34375 -0.546875 C 0.414062 -0.546875 0.460938 -0.53125 0.484375 -0.5 C 0.515625 -0.46875 0.53125 -0.414062 0.53125 -0.34375 L 0.53125 0 L 0.453125 0 L 0.453125 -0.34375 C 0.453125 -0.375 0.445312 -0.398438 0.4375 -0.421875 C 0.4375 -0.441406 0.425781 -0.457031 0.40625 -0.46875 C 0.382812 -0.476562 0.359375 -0.484375 0.328125 -0.484375 C 0.285156 -0.484375 0.25 -0.46875 0.21875 -0.4375 C 0.1875 -0.40625 0.171875 -0.351562 0.171875 -0.28125 L 0.171875 0 Z M 0.09375 0 "/></g></g><g transform="translate(1.987099, 2.199999)"><g><path d="M 0.21875 0.015625 C 0.164062 0.015625 0.125 0 0.09375 -0.03125 C 0.0625 -0.0625 0.046875 -0.101562 0.046875 -0.15625 C 0.046875 -0.1875 0.0507812 -0.210938 0.0625 -0.234375 C 0.0820312 -0.253906 0.101562 -0.269531 0.125 -0.28125 C 0.15625 -0.300781 0.195312 -0.3125 0.25 -0.3125 C 0.28125 -0.320312 0.304688 -0.328125 0.328125 -0.328125 C 0.347656 -0.335938 0.363281 -0.347656 0.375 -0.359375 C 0.382812 -0.367188 0.390625 -0.382812 0.390625 -0.40625 C 0.390625 -0.425781 0.378906 -0.441406 0.359375 -0.453125 C 0.335938 -0.472656 0.3125 -0.484375 0.28125 -0.484375 C 0.238281 -0.484375 0.207031 -0.472656 0.1875 -0.453125 C 0.164062 -0.441406 0.144531 -0.425781 0.125 -0.40625 L 0.109375 -0.40625 L 0.078125 -0.453125 C 0.0976562 -0.484375 0.125 -0.503906 0.15625 -0.515625 C 0.1875 -0.535156 0.226562 -0.546875 0.28125 -0.546875 C 0.34375 -0.546875 0.390625 -0.53125 0.421875 -0.5 C 0.453125 -0.476562 0.46875 -0.441406 0.46875 -0.390625 L 0.46875 -0.109375 C 0.46875 -0.078125 0.476562 -0.0625 0.5 -0.0625 C 0.507812 -0.0625 0.519531 -0.0625 0.53125 -0.0625 L 0.546875 -0.015625 C 0.535156 -0.00390625 0.523438 0 0.515625 0 C 0.503906 0 0.492188 0 0.484375 0 C 0.453125 0 0.429688 -0.00390625 0.421875 -0.015625 C 0.410156 -0.0234375 0.398438 -0.046875 0.390625 -0.078125 L 0.375 -0.078125 C 0.363281 -0.046875 0.34375 -0.0195312 0.3125 0 C 0.289062 0.0078125 0.257812 0.015625 0.21875 0.015625 Z M 0.234375 -0.046875 C 0.265625 -0.046875 0.289062 -0.0507812 0.3125 -0.0625 C 0.332031 -0.0820312 0.347656 -0.101562 0.359375 -0.125 C 0.378906 -0.15625 0.390625 -0.1875 0.390625 -0.21875 L 0.390625 -0.28125 L 0.375 -0.296875 C 0.363281 -0.285156 0.347656 -0.273438 0.328125 -0.265625 C 0.316406 -0.265625 0.296875 -0.257812 0.265625 -0.25 C 0.234375 -0.25 0.207031 -0.242188 0.1875 -0.234375 C 0.164062 -0.222656 0.148438 -0.210938 0.140625 -0.203125 C 0.140625 -0.191406 0.140625 -0.175781 0.140625 -0.15625 C 0.140625 -0.125 0.144531 -0.0976562 0.15625 -0.078125 C 0.175781 -0.0546875 0.203125 -0.046875 0.234375 -0.046875 Z M 0.234375 -0.046875 "/></g></g><g transform="translate(2.544226, 2.199999)"><g><path d="M 0.28125 0.015625 C 0.238281 0.015625 0.195312 0.00390625 0.15625 -0.015625 C 0.125 -0.0351562 0.0976562 -0.0664062 0.078125 -0.109375 C 0.0664062 -0.148438 0.0625 -0.203125 0.0625 -0.265625 C 0.0625 -0.328125 0.0703125 -0.378906 0.09375 -0.421875 C 0.113281 -0.460938 0.140625 -0.492188 0.171875 -0.515625 C 0.203125 -0.535156 0.238281 -0.546875 0.28125 -0.546875 C 0.320312 -0.546875 0.351562 -0.539062 0.375 -0.53125 C 0.40625 -0.519531 0.429688 -0.5 0.453125 -0.46875 L 0.46875 -0.46875 L 0.46875 -0.75 L 0.546875 -0.75 L 0.546875 0 L 0.46875 0 L 0.46875 -0.078125 L 0.453125 -0.078125 C 0.441406 -0.0546875 0.421875 -0.0351562 0.390625 -0.015625 C 0.359375 0.00390625 0.320312 0.015625 0.28125 0.015625 Z M 0.296875 -0.0625 C 0.347656 -0.0625 0.390625 -0.078125 0.421875 -0.109375 C 0.453125 -0.148438 0.46875 -0.203125 0.46875 -0.265625 C 0.46875 -0.335938 0.453125 -0.390625 0.421875 -0.421875 C 0.390625 -0.460938 0.347656 -0.484375 0.296875 -0.484375 C 0.253906 -0.484375 0.21875 -0.460938 0.1875 -0.421875 C 0.15625 -0.390625 0.140625 -0.335938 0.140625 -0.265625 C 0.140625 -0.128906 0.191406 -0.0625 0.296875 -0.0625 Z M 0.296875 -0.0625 "/></g></g><g transform="translate(3.187291, 2.199999)"><g><path d="M 0.21875 0.015625 C 0.164062 0.015625 0.125 0 0.09375 -0.03125 C 0.0625 -0.0625 0.046875 -0.101562 0.046875 -0.15625 C 0.046875 -0.1875 0.0507812 -0.210938 0.0625 -0.234375 C 0.0820312 -0.253906 0.101562 -0.269531 0.125 -0.28125 C 0.15625 -0.300781 0.195312 -0.3125 0.25 -0.3125 C 0.28125 -0.320312 0.304688 -0.328125 0.328125 -0.328125 C 0.347656 -0.335938 0.363281 -0.347656 0.375 -0.359375 C 0.382812 -0.367188 0.390625 -0.382812 0.390625 -0.40625 C 0.390625 -0.425781 0.378906 -0.441406 0.359375 -0.453125 C 0.335938 -0.472656 0.3125 -0.484375 0.28125 -0.484375 C 0.238281 -0.484375 0.207031 -0.472656 0.1875 -0.453125 C 0.164062 -0.441406 0.144531 -0.425781 0.125 -0.40625 L 0.109375 -0.40625 L 0.078125 -0.453125 C 0.0976562 -0.484375 0.125 -0.503906 0.15625 -0.515625 C 0.1875 -0.535156 0.226562 -0.546875 0.28125 -0.546875 C 0.34375 -0.546875 0.390625 -0.53125 0.421875 -0.5 C 0.453125 -0.476562 0.46875 -0.441406 0.46875 -0.390625 L 0.46875 -0.109375 C 0.46875 -0.078125 0.476562 -0.0625 0.5 -0.0625 C 0.507812 -0.0625 0.519531 -0.0625 0.53125 -0.0625 L 0.546875 -0.015625 C 0.535156 -0.00390625 0.523438 0 0.515625 0 C 0.503906 0 0.492188 0 0.484375 0 C 0.453125 0 0.429688 -0.00390625 0.421875 -0.015625 C 0.410156 -0.0234375 0.398438 -0.046875 0.390625 -0.078125 L 0.375 -0.078125 C 0.363281 -0.046875 0.34375 -0.0195312 0.3125 0 C 0.289062 0.0078125 0.257812 0.015625 0.21875 0.015625 Z M 0.234375 -0.046875 C 0.265625 -0.046875 0.289062 -0.0507812 0.3125 -0.0625 C 0.332031 -0.0820312 0.347656 -0.101562 0.359375 -0.125 C 0.378906 -0.15625 0.390625 -0.1875 0.390625 -0.21875 L 0.390625 -0.28125 L 0.375 -0.296875 C 0.363281 -0.285156 0.347656 -0.273438 0.328125 -0.265625 C 0.316406 -0.265625 0.296875 -0.257812 0.265625 -0.25 C 0.234375 -0.25 0.207031 -0.242188 0.1875 -0.234375 C 0.164062 -0.222656 0.148438 -0.210938 0.140625 -0.203125 C 0.140625 -0.191406 0.140625 -0.175781 0.140625 -0.15625 C 0.140625 -0.125 0.144531 -0.0976562 0.15625 -0.078125 C 0.175781 -0.0546875 0.203125 -0.046875 0.234375 -0.046875 Z M 0.234375 -0.046875 "/></g></g></g></g></g></g></svg>