<svg xmlns="http://www.w3.org/2000/svg" xmlns:xlink="http://www.w3.org/1999/xlink" width="1024" zoomAndPan="magnify" viewBox="0 0 768 767.999994" height="1024" preserveAspectRatio="xMidYMid meet" version="1.0"><path fill="#ffffff" d="M 354.382812 626.992188 C 354.984375 627.644531 355.550781 628.320312 356.089844 629.027344 C 356.625 629.730469 357.128906 630.457031 357.59375 631.210938 C 358.0625 631.960938 358.496094 632.734375 358.890625 633.527344 C 359.285156 634.320312 359.640625 635.128906 359.960938 635.957031 C 360.277344 636.785156 360.554688 637.625 360.792969 638.476562 C 361.03125 639.328125 361.230469 640.191406 361.386719 641.0625 C 361.546875 641.9375 361.660156 642.8125 361.734375 643.695312 C 361.808594 644.578125 361.839844 645.460938 361.832031 646.347656 C 361.820312 647.234375 361.769531 648.117188 361.675781 649 C 361.582031 649.878906 361.449219 650.753906 361.273438 651.621094 C 361.097656 652.488281 360.878906 653.347656 360.621094 654.195312 C 360.363281 655.042969 360.066406 655.875 359.730469 656.695312 C 359.394531 657.515625 359.023438 658.316406 358.609375 659.101562 C 358.199219 659.886719 357.75 660.648438 357.265625 661.390625 C 356.78125 662.132812 356.261719 662.847656 355.710938 663.542969 C 355.160156 664.234375 354.574219 664.898438 353.960938 665.535156 C 344.875 675.566406 335.265625 685.066406 325.132812 694.03125 C 320.253906 697.492188 315 700.238281 309.371094 702.269531 C 307.925781 702.394531 306.476562 702.414062 305.027344 702.328125 C 303.578125 702.238281 302.140625 702.046875 300.71875 701.75 C 299.296875 701.453125 297.90625 701.050781 296.542969 700.550781 C 295.179688 700.046875 293.859375 699.449219 292.585938 698.753906 C 291.3125 698.058594 290.09375 697.273438 288.933594 696.398438 C 287.773438 695.523438 286.683594 694.570312 285.664062 693.535156 C 284.644531 692.5 283.707031 691.398438 282.847656 690.222656 C 281.992188 689.050781 281.222656 687.824219 280.546875 686.539062 C 279.871094 685.417969 279.289062 684.25 278.796875 683.035156 C 278.308594 681.824219 277.914062 680.582031 277.613281 679.304688 C 277.316406 678.03125 277.121094 676.742188 277.023438 675.4375 C 276.925781 674.132812 276.933594 672.828125 277.039062 671.523438 C 277.144531 670.21875 277.351562 668.929688 277.660156 667.660156 C 277.96875 666.386719 278.375 665.148438 278.875 663.9375 C 279.375 662.730469 279.96875 661.566406 280.648438 660.449219 C 281.332031 659.335938 282.097656 658.277344 282.945312 657.28125 C 293.222656 645.359375 304.304688 634.246094 316.199219 623.933594 C 316.871094 623.359375 317.574219 622.816406 318.300781 622.308594 C 319.03125 621.804688 319.78125 621.332031 320.554688 620.898438 C 321.332031 620.464844 322.125 620.070312 322.9375 619.71875 C 323.75 619.363281 324.578125 619.046875 325.425781 618.773438 C 326.269531 618.5 327.125 618.269531 327.992188 618.078125 C 328.859375 617.890625 329.730469 617.742188 330.613281 617.640625 C 331.496094 617.539062 332.378906 617.476562 333.265625 617.460938 C 334.152344 617.445312 335.039062 617.472656 335.925781 617.542969 C 336.808594 617.613281 337.6875 617.726562 338.5625 617.886719 C 339.433594 618.042969 340.296875 618.242188 341.152344 618.484375 C 342.003906 618.726562 342.84375 619.011719 343.671875 619.335938 C 344.496094 619.660156 345.304688 620.023438 346.09375 620.429688 C 346.882812 620.832031 347.652344 621.277344 348.398438 621.753906 C 349.144531 622.234375 349.867188 622.75 350.5625 623.300781 C 351.257812 623.851562 351.925781 624.4375 352.5625 625.054688 C 353.199219 625.671875 353.808594 626.316406 354.382812 626.992188 Z M 170.101562 445.800781 C 169.5 444.507812 168.808594 443.257812 168.03125 442.058594 C 167.253906 440.859375 166.398438 439.71875 165.464844 438.636719 C 164.527344 437.558594 163.523438 436.546875 162.445312 435.605469 C 161.371094 434.664062 160.234375 433.800781 159.039062 433.015625 C 157.84375 432.234375 156.601562 431.535156 155.308594 430.925781 C 154.015625 430.3125 152.6875 429.796875 151.324219 429.367188 C 149.960938 428.941406 148.574219 428.613281 147.164062 428.378906 C 145.753906 428.144531 144.332031 428.007812 142.902344 427.972656 C 136.789062 430.054688 131.046875 432.894531 125.679688 436.496094 C 115.0625 445.867188 105.039062 455.835938 95.609375 466.402344 C 94.976562 467.054688 94.382812 467.734375 93.820312 468.449219 C 93.257812 469.160156 92.730469 469.894531 92.242188 470.660156 C 91.753906 471.425781 91.304688 472.210938 90.894531 473.019531 C 90.484375 473.828125 90.113281 474.65625 89.789062 475.5 C 89.460938 476.34375 89.175781 477.207031 88.933594 478.078125 C 88.691406 478.953125 88.492188 479.835938 88.339844 480.730469 C 88.183594 481.625 88.074219 482.523438 88.011719 483.429688 C 87.949219 484.332031 87.929688 485.238281 87.957031 486.144531 C 87.980469 487.050781 88.054688 487.953125 88.167969 488.851562 C 88.285156 489.753906 88.445312 490.644531 88.652344 491.527344 C 88.859375 492.410156 89.105469 493.28125 89.398438 494.140625 C 89.691406 495 90.023438 495.839844 90.402344 496.664062 C 90.777344 497.488281 91.195312 498.292969 91.652344 499.078125 C 92.105469 499.863281 92.601562 500.621094 93.132812 501.355469 C 93.667969 502.089844 94.234375 502.792969 94.835938 503.472656 C 95.4375 504.148438 96.074219 504.796875 96.742188 505.410156 C 97.363281 506.042969 98.015625 506.644531 98.699219 507.214844 C 99.378906 507.785156 100.085938 508.320312 100.816406 508.820312 C 101.550781 509.324219 102.304688 509.789062 103.082031 510.21875 C 103.859375 510.648438 104.65625 511.039062 105.472656 511.390625 C 106.285156 511.746094 107.117188 512.058594 107.960938 512.328125 C 108.804688 512.601562 109.664062 512.835938 110.53125 513.023438 C 111.398438 513.214844 112.273438 513.363281 113.152344 513.46875 C 114.035156 513.578125 114.917969 513.640625 115.808594 513.660156 C 116.695312 513.683594 117.582031 513.660156 118.46875 513.597656 C 119.351562 513.53125 120.234375 513.425781 121.109375 513.277344 C 121.984375 513.128906 122.851562 512.9375 123.707031 512.703125 C 124.566406 512.472656 125.410156 512.199219 126.238281 511.886719 C 127.070312 511.574219 127.882812 511.21875 128.679688 510.828125 C 129.476562 510.4375 130.253906 510.007812 131.011719 509.539062 C 131.765625 509.074219 132.496094 508.570312 133.203125 508.035156 C 133.910156 507.5 134.589844 506.929688 135.246094 506.324219 C 145.984375 496.621094 156.195312 486.390625 165.882812 475.636719 C 166.824219 474.675781 167.6875 473.644531 168.464844 472.542969 C 169.246094 471.445312 169.929688 470.289062 170.527344 469.082031 C 171.121094 467.871094 171.617188 466.625 172.015625 465.335938 C 172.414062 464.046875 172.707031 462.738281 172.894531 461.402344 C 173.082031 460.066406 173.164062 458.726562 173.140625 457.378906 C 173.117188 456.03125 172.984375 454.695312 172.75 453.367188 C 172.511719 452.042969 172.171875 450.742188 171.726562 449.46875 C 171.285156 448.199219 170.742188 446.96875 170.101562 445.78125 Z M 226.828125 499.707031 C 226.160156 499.09375 225.464844 498.515625 224.746094 497.972656 C 224.023438 497.425781 223.277344 496.914062 222.507812 496.441406 C 221.738281 495.964844 220.945312 495.527344 220.136719 495.125 C 219.324219 494.722656 218.496094 494.363281 217.652344 494.039062 C 216.808594 493.714844 215.949219 493.433594 215.078125 493.191406 C 214.207031 492.949219 213.324219 492.75 212.433594 492.589844 C 211.542969 492.429688 210.648438 492.3125 209.746094 492.238281 C 208.84375 492.164062 207.941406 492.128906 207.035156 492.140625 C 206.132812 492.152344 205.230469 492.203125 204.328125 492.296875 C 203.429688 492.394531 202.535156 492.53125 201.648438 492.710938 C 200.761719 492.890625 199.886719 493.109375 199.019531 493.371094 C 198.152344 493.632812 197.300781 493.933594 196.464844 494.277344 C 195.628906 494.617188 194.808594 495 194.003906 495.417969 C 193.203125 495.835938 192.421875 496.292969 191.664062 496.785156 C 190.90625 497.277344 190.171875 497.804688 189.460938 498.367188 C 188.753906 498.929688 188.070312 499.523438 187.417969 500.148438 C 177.421875 509.25 167.941406 518.859375 158.972656 528.976562 C 155.675781 533.558594 153.074219 538.503906 151.171875 543.820312 C 151 545.304688 150.941406 546.792969 151 548.285156 C 151.058594 549.78125 151.226562 551.261719 151.511719 552.726562 C 151.796875 554.195312 152.195312 555.628906 152.699219 557.035156 C 153.207031 558.441406 153.816406 559.800781 154.53125 561.113281 C 155.246094 562.425781 156.058594 563.675781 156.964844 564.863281 C 157.871094 566.050781 158.863281 567.164062 159.941406 568.199219 C 161.019531 569.234375 162.171875 570.179688 163.394531 571.035156 C 164.617188 571.894531 165.902344 572.652344 167.242188 573.316406 C 168.457031 573.976562 169.71875 574.542969 171.019531 575.007812 C 172.324219 575.472656 173.660156 575.832031 175.019531 576.089844 C 176.382812 576.347656 177.753906 576.496094 179.136719 576.535156 C 180.523438 576.574219 181.902344 576.507812 183.277344 576.332031 C 184.648438 576.15625 186 575.875 187.332031 575.484375 C 188.660156 575.097656 189.949219 574.609375 191.203125 574.015625 C 192.457031 573.425781 193.65625 572.742188 194.800781 571.960938 C 195.945312 571.183594 197.023438 570.320312 198.03125 569.371094 C 208.511719 559.890625 218.621094 549.964844 228.136719 539.515625 C 228.785156 538.855469 229.402344 538.160156 229.980469 537.433594 C 230.5625 536.710938 231.105469 535.957031 231.609375 535.175781 C 232.113281 534.394531 232.578125 533.59375 233 532.765625 C 233.425781 531.9375 233.804688 531.089844 234.140625 530.226562 C 234.480469 529.359375 234.773438 528.480469 235.019531 527.585938 C 235.269531 526.691406 235.472656 525.785156 235.628906 524.867188 C 235.785156 523.953125 235.894531 523.03125 235.957031 522.105469 C 236.019531 521.175781 236.039062 520.25 236.007812 519.320312 C 235.976562 518.394531 235.898438 517.46875 235.773438 516.546875 C 235.652344 515.625 235.480469 514.714844 235.265625 513.8125 C 235.046875 512.90625 234.785156 512.015625 234.480469 511.140625 C 234.171875 510.261719 233.824219 509.402344 233.429688 508.5625 C 233.035156 507.722656 232.601562 506.902344 232.125 506.105469 C 231.648438 505.304688 231.132812 504.535156 230.578125 503.789062 C 230.023438 503.042969 229.433594 502.328125 228.808594 501.644531 C 228.179688 500.957031 227.519531 500.304688 226.828125 499.6875 Z M 299.171875 587.214844 C 298.058594 571.769531 293.148438 562.503906 281.894531 557.449219 C 280.617188 556.828125 279.296875 556.304688 277.9375 555.890625 C 276.574219 555.476562 275.191406 555.171875 273.78125 554.972656 C 272.371094 554.777344 270.957031 554.691406 269.53125 554.722656 C 268.109375 554.75 266.699219 554.886719 265.296875 555.140625 C 263.898438 555.390625 262.523438 555.75 261.179688 556.21875 C 259.835938 556.6875 258.539062 557.257812 257.285156 557.929688 C 256.03125 558.605469 254.839844 559.371094 253.707031 560.234375 C 252.578125 561.097656 251.519531 562.042969 250.535156 563.070312 C 241.066406 571.800781 232.007812 581.046875 223.121094 590.34375 C 222.433594 590.992188 221.78125 591.671875 221.160156 592.386719 C 220.542969 593.097656 219.960938 593.839844 219.414062 594.613281 C 218.867188 595.386719 218.363281 596.183594 217.898438 597.003906 C 217.433594 597.828125 217.007812 598.667969 216.628906 599.535156 C 216.246094 600.398438 215.910156 601.28125 215.617188 602.179688 C 215.324219 603.078125 215.078125 603.988281 214.875 604.910156 C 214.671875 605.835938 214.519531 606.765625 214.410156 607.703125 C 214.300781 608.644531 214.238281 609.585938 214.226562 610.527344 C 214.210938 611.472656 214.242188 612.417969 214.324219 613.359375 C 214.402344 614.300781 214.53125 615.234375 214.703125 616.164062 C 214.878906 617.09375 215.097656 618.011719 215.363281 618.917969 C 215.628906 619.824219 215.9375 620.714844 216.292969 621.59375 C 216.648438 622.46875 217.042969 623.324219 217.484375 624.160156 C 217.925781 624.996094 218.40625 625.808594 218.925781 626.597656 C 219.449219 627.382812 220.007812 628.144531 220.605469 628.875 C 221.203125 629.609375 221.835938 630.308594 222.503906 630.976562 C 223.175781 631.640625 223.878906 632.273438 224.613281 632.867188 C 225.347656 633.464844 226.109375 634.023438 226.902344 634.542969 C 227.691406 635.0625 228.503906 635.542969 229.34375 635.980469 C 230.179688 636.421875 231.035156 636.820312 231.914062 637.171875 C 232.789062 637.527344 233.683594 637.839844 234.589844 638.105469 C 235.496094 638.371094 236.414062 638.59375 237.34375 638.769531 C 238.273438 638.941406 239.210938 639.074219 240.152344 639.15625 C 241.09375 639.238281 242.039062 639.273438 242.984375 639.261719 C 243.929688 639.253906 244.875 639.195312 245.8125 639.089844 C 246.753906 638.988281 247.6875 638.835938 248.609375 638.640625 C 249.535156 638.445312 250.449219 638.203125 251.351562 637.914062 C 252.253906 637.628906 253.136719 637.296875 254.003906 636.921875 C 254.875 636.546875 255.722656 636.132812 256.550781 635.671875 C 257.375 635.214844 258.179688 634.714844 258.957031 634.179688 C 259.734375 633.640625 260.484375 633.066406 261.203125 632.453125 C 261.925781 631.839844 262.613281 631.195312 263.273438 630.511719 C 272.613281 622.070312 281.472656 613.148438 289.851562 603.746094 C 293.601562 598.585938 296.707031 593.066406 299.171875 587.183594 Z M 724.050781 179.03125 C 718.390625 170.835938 712.105469 163.148438 705.199219 155.96875 C 698.351562 148.589844 690.980469 141.773438 683.085938 135.523438 C 672.78125 127.566406 661.695312 120.914062 649.824219 115.5625 C 633.8125 108.070312 617.203125 102.28125 600 98.195312 C 582.800781 94.109375 565.363281 91.8125 547.6875 91.308594 C 538.734375 91.53125 529.820312 92.285156 520.953125 93.570312 C 512.089844 94.855469 503.328125 96.660156 494.679688 98.988281 C 486.027344 101.320312 477.546875 104.152344 469.234375 107.492188 C 460.917969 110.832031 452.835938 114.65625 444.976562 118.960938 C 432.359375 126.441406 420.386719 134.84375 409.0625 144.164062 C 397.734375 153.484375 387.183594 163.613281 377.410156 174.550781 C 347.679688 204.480469 317.515625 233.996094 287.84375 263.964844 C 287.347656 264.425781 286.859375 264.902344 286.386719 265.390625 C 285.914062 265.882812 285.457031 266.382812 285.011719 266.898438 C 284.566406 267.414062 284.136719 267.941406 283.722656 268.480469 C 283.304688 269.019531 282.90625 269.566406 282.519531 270.128906 C 282.136719 270.691406 281.765625 271.261719 281.414062 271.84375 C 281.058594 272.425781 280.722656 273.015625 280.402344 273.617188 C 280.082031 274.21875 279.777344 274.828125 279.492188 275.445312 C 279.207031 276.0625 278.9375 276.6875 278.683594 277.316406 C 278.433594 277.949219 278.199219 278.589844 277.984375 279.234375 C 277.765625 279.878906 277.570312 280.53125 277.386719 281.1875 C 277.207031 281.84375 277.046875 282.503906 276.902344 283.167969 C 276.761719 283.832031 276.636719 284.503906 276.527344 285.175781 C 276.421875 285.847656 276.335938 286.523438 276.265625 287.199219 C 276.199219 287.875 276.148438 288.554688 276.117188 289.234375 C 276.085938 289.914062 276.074219 290.59375 276.082031 291.273438 C 276.085938 291.953125 276.113281 292.632812 276.15625 293.3125 C 276.203125 293.992188 276.265625 294.671875 276.347656 295.34375 C 276.429688 296.019531 276.53125 296.695312 276.652344 297.363281 C 276.769531 298.035156 276.910156 298.699219 277.066406 299.363281 C 277.222656 300.023438 277.398438 300.679688 277.589844 301.335938 C 277.78125 301.988281 277.996094 302.632812 278.222656 303.273438 C 278.453125 303.914062 278.699219 304.550781 278.964844 305.175781 C 279.226562 305.804688 279.507812 306.421875 279.808594 307.035156 C 280.105469 307.644531 280.421875 308.246094 280.753906 308.839844 C 281.085938 309.4375 281.4375 310.019531 281.800781 310.59375 C 282.164062 311.167969 282.546875 311.734375 282.941406 312.285156 C 283.335938 312.839844 283.75 313.382812 284.175781 313.910156 C 284.601562 314.441406 285.042969 314.960938 285.496094 315.46875 C 285.953125 315.972656 286.421875 316.464844 286.902344 316.945312 C 287.386719 317.425781 287.878906 317.890625 288.390625 318.34375 C 288.898438 318.796875 289.417969 319.234375 289.949219 319.660156 C 290.484375 320.082031 291.027344 320.492188 291.582031 320.882812 C 292.4375 321.515625 293.320312 322.109375 294.230469 322.660156 C 295.136719 323.214844 296.070312 323.730469 297.023438 324.199219 C 297.976562 324.671875 298.949219 325.101562 299.941406 325.488281 C 300.933594 325.875 301.9375 326.21875 302.960938 326.515625 C 303.980469 326.816406 305.015625 327.066406 306.058594 327.273438 C 307.101562 327.484375 308.152344 327.644531 309.210938 327.757812 C 310.269531 327.875 311.328125 327.941406 312.390625 327.964844 C 313.457031 327.988281 314.519531 327.960938 315.582031 327.890625 C 316.640625 327.820312 317.699219 327.703125 318.75 327.539062 C 319.800781 327.375 320.84375 327.164062 321.875 326.90625 C 322.910156 326.652344 323.929688 326.351562 324.9375 326.003906 C 325.941406 325.660156 326.929688 325.269531 327.902344 324.839844 C 328.875 324.40625 329.828125 323.933594 330.757812 323.417969 C 331.6875 322.902344 332.59375 322.34375 333.476562 321.75 C 334.359375 321.152344 335.210938 320.519531 336.039062 319.851562 C 336.863281 319.179688 337.660156 318.472656 338.425781 317.734375 C 352.292969 304.699219 422.296875 236.527344 442.402344 216.308594 C 547.957031 320.863281 625.210938 398.054688 643.800781 417.121094 C 656.734375 430.371094 668.644531 442.765625 668.644531 442.765625 C 676.972656 451.503906 685.433594 460.453125 694.296875 469.695312 C 700.300781 462.128906 706.960938 454.574219 713.457031 446.71875 C 719.996094 438.816406 726.085938 430.582031 731.722656 422.011719 C 736.484375 414.414062 740.792969 406.566406 744.636719 398.464844 C 748.484375 390.363281 751.84375 382.066406 754.714844 373.570312 C 757.589844 365.078125 759.957031 356.445312 761.820312 347.671875 C 763.679688 338.902344 765.023438 330.050781 765.847656 321.121094 C 766.449219 311.363281 766.375 301.605469 765.621094 291.859375 C 764.871094 282.109375 763.453125 272.457031 761.363281 262.90625 C 759.273438 253.355469 756.535156 243.992188 753.148438 234.820312 C 749.761719 225.648438 745.761719 216.75 741.140625 208.132812 C 736.082031 198.058594 730.386719 188.355469 724.050781 179.03125 Z M 442.363281 261.140625 C 413.1875 289.515625 367.960938 333.835938 356.675781 343.738281 C 355.058594 345.085938 353.378906 346.355469 351.644531 347.546875 C 349.910156 348.738281 348.121094 349.847656 346.285156 350.878906 C 344.449219 351.90625 342.566406 352.847656 340.644531 353.703125 C 338.71875 354.558594 336.757812 355.324219 334.765625 356 C 332.769531 356.675781 330.75 357.257812 328.703125 357.75 C 326.652344 358.238281 324.585938 358.632812 322.503906 358.933594 C 320.417969 359.234375 318.324219 359.4375 316.222656 359.546875 C 314.121094 359.65625 312.015625 359.667969 309.910156 359.582031 C 307.808594 359.496094 305.710938 359.316406 303.625 359.035156 C 301.539062 358.757812 299.46875 358.386719 297.414062 357.917969 C 295.359375 357.453125 293.332031 356.890625 291.332031 356.238281 C 289.328125 355.582031 287.363281 354.839844 285.429688 354.003906 C 283.496094 353.167969 281.605469 352.246094 279.757812 351.238281 C 277.90625 350.230469 276.109375 349.140625 274.359375 347.96875 C 272.613281 346.792969 270.921875 345.542969 269.285156 344.214844 C 267.652344 342.886719 266.085938 341.484375 264.578125 340.011719 C 263.070312 338.542969 261.632812 337.003906 260.269531 335.398438 C 258.902344 333.796875 257.613281 332.132812 256.40625 330.40625 C 255.195312 328.683594 254.066406 326.90625 253.019531 325.078125 C 251.976562 323.25 251.015625 321.375 250.144531 319.457031 C 249.273438 317.539062 248.496094 315.585938 247.804688 313.59375 C 247.117188 311.605469 246.519531 309.585938 246.019531 307.539062 C 245.515625 305.492188 245.109375 303.429688 244.800781 301.34375 C 244.492188 299.261719 244.28125 297.167969 244.164062 295.0625 C 244.050781 292.960938 244.035156 290.855469 244.113281 288.75 C 244.195312 286.644531 244.375 284.550781 244.648438 282.460938 C 244.925781 280.371094 245.296875 278.300781 245.765625 276.246094 C 246.234375 274.191406 246.796875 272.164062 247.453125 270.164062 C 248.113281 268.164062 248.859375 266.195312 249.699219 264.265625 C 250.539062 262.332031 251.46875 260.445312 252.484375 258.597656 C 253.5 256.753906 254.601562 254.957031 255.78125 253.214844 C 256.964844 251.472656 258.226562 249.785156 259.566406 248.160156 C 268.460938 237.585938 278.570312 228.023438 288.390625 218.210938 C 312.769531 193.722656 337.3125 169.300781 362.378906 144.304688 C 358.96875 141.234375 355.460938 138.28125 351.855469 135.441406 C 348.25 132.605469 344.550781 129.886719 340.765625 127.292969 C 336.980469 124.699219 333.113281 122.234375 329.164062 119.894531 C 325.21875 117.554688 321.195312 115.351562 317.101562 113.277344 C 313.007812 111.203125 308.847656 109.269531 304.625 107.46875 C 300.402344 105.671875 296.128906 104.011719 291.796875 102.496094 C 287.464844 100.980469 283.085938 99.609375 278.664062 98.382812 C 274.242188 97.15625 269.785156 96.078125 265.289062 95.144531 C 260.796875 94.210938 256.277344 93.429688 251.734375 92.796875 C 247.1875 92.164062 242.625 91.679688 238.050781 91.347656 C 233.472656 91.015625 228.886719 90.832031 224.300781 90.804688 C 219.710938 90.773438 215.125 90.894531 210.542969 91.167969 C 205.960938 91.441406 201.394531 91.867188 196.84375 92.441406 C 192.289062 93.015625 187.761719 93.738281 183.253906 94.613281 C 178.75 95.488281 174.277344 96.511719 169.839844 97.679688 C 165.402344 98.847656 161.007812 100.164062 156.65625 101.621094 C 68.832031 131.46875 17.902344 194.183594 7.554688 286.582031 C 7.117188 290.28125 6.777344 293.992188 6.539062 297.710938 C 6.300781 301.429688 6.167969 305.15625 6.132812 308.882812 C 6.101562 312.609375 6.171875 316.332031 6.34375 320.054688 C 6.515625 323.78125 6.792969 327.496094 7.167969 331.203125 C 7.542969 334.910156 8.023438 338.605469 8.601562 342.289062 C 9.183594 345.96875 9.863281 349.632812 10.644531 353.277344 C 11.425781 356.921875 12.304688 360.542969 13.285156 364.136719 C 14.265625 367.734375 15.34375 371.300781 16.519531 374.835938 C 17.695312 378.371094 18.96875 381.875 20.339844 385.339844 C 21.707031 388.808594 23.171875 392.234375 24.726562 395.621094 C 26.285156 399.003906 27.933594 402.347656 29.675781 405.640625 C 31.414062 408.9375 33.246094 412.183594 35.164062 415.378906 C 37.082031 418.574219 39.089844 421.710938 41.179688 424.796875 C 43.273438 427.882812 45.449219 430.90625 47.707031 433.871094 C 49.964844 436.835938 52.300781 439.738281 54.71875 442.574219 C 57.136719 445.410156 59.632812 448.179688 62.203125 450.878906 C 76.46875 437.84375 89.566406 425.5625 102.949219 413.671875 C 103.8125 412.847656 104.699219 412.050781 105.609375 411.28125 C 106.519531 410.511719 107.453125 409.769531 108.40625 409.054688 C 109.363281 408.339844 110.335938 407.65625 111.332031 407 C 112.328125 406.34375 113.34375 405.71875 114.375 405.121094 C 115.410156 404.527344 116.460938 403.964844 117.527344 403.429688 C 118.59375 402.898438 119.675781 402.398438 120.773438 401.929688 C 121.871094 401.464844 122.980469 401.027344 124.101562 400.628906 C 125.226562 400.226562 126.359375 399.859375 127.503906 399.527344 C 128.648438 399.191406 129.804688 398.894531 130.964844 398.628906 C 132.128906 398.367188 133.296875 398.136719 134.476562 397.941406 C 135.652344 397.746094 136.832031 397.589844 138.019531 397.464844 C 139.203125 397.339844 140.394531 397.253906 141.585938 397.203125 C 142.777344 397.148438 143.96875 397.132812 145.160156 397.152344 C 146.351562 397.167969 147.542969 397.222656 148.730469 397.316406 C 149.921875 397.40625 151.105469 397.53125 152.289062 397.691406 C 153.46875 397.851562 154.644531 398.050781 155.816406 398.28125 C 156.984375 398.511719 158.148438 398.777344 159.300781 399.078125 C 160.453125 399.378906 161.597656 399.714844 162.730469 400.085938 C 163.867188 400.453125 164.988281 400.855469 166.097656 401.292969 C 167.207031 401.730469 168.300781 402.199219 169.382812 402.703125 C 170.464844 403.203125 171.53125 403.738281 172.582031 404.304688 C 173.628906 404.871094 174.664062 405.46875 175.675781 406.09375 C 176.691406 406.722656 177.683594 407.378906 178.660156 408.066406 C 179.632812 408.753906 180.585938 409.46875 181.519531 410.214844 C 182.449219 410.957031 183.359375 411.730469 184.242188 412.527344 C 185.128906 413.328125 185.992188 414.152344 186.828125 415 C 187.664062 415.851562 188.472656 416.726562 189.257812 417.625 C 190.039062 418.523438 190.796875 419.445312 191.527344 420.386719 C 192.253906 421.332031 192.953125 422.296875 193.625 423.28125 C 194.296875 424.269531 194.9375 425.273438 195.546875 426.296875 C 196.160156 427.320312 196.738281 428.363281 197.285156 429.421875 C 197.835938 430.480469 198.351562 431.554688 198.835938 432.644531 C 202.183594 441.398438 204.753906 450.375 206.546875 459.578125 C 244.433594 462.902344 265.074219 484.109375 268.460938 522.292969 C 307.3125 525.8125 328.285156 546.816406 331.402344 584.898438 C 332.503906 585.257812 333.625 585.523438 334.769531 585.691406 C 335.921875 585.722656 337.070312 585.785156 338.21875 585.882812 C 339.367188 585.980469 340.511719 586.109375 341.652344 586.273438 C 342.792969 586.4375 343.929688 586.632812 345.058594 586.859375 C 346.191406 587.085938 347.3125 587.34375 348.425781 587.636719 C 349.542969 587.925781 350.648438 588.25 351.746094 588.605469 C 352.839844 588.957031 353.925781 589.34375 355 589.757812 C 356.078125 590.175781 357.136719 590.621094 358.1875 591.097656 C 359.238281 591.574219 360.273438 592.078125 361.292969 592.613281 C 362.3125 593.148438 363.316406 593.710938 364.304688 594.304688 C 365.292969 594.898438 366.265625 595.515625 367.21875 596.164062 C 368.171875 596.8125 369.105469 597.488281 370.019531 598.1875 C 370.9375 598.886719 371.828125 599.613281 372.703125 600.367188 C 373.578125 601.117188 374.429688 601.894531 375.257812 602.695312 C 376.085938 603.496094 376.894531 604.316406 377.675781 605.164062 C 378.457031 606.007812 379.214844 606.878906 379.949219 607.765625 C 380.683594 608.65625 381.390625 609.566406 382.070312 610.492188 C 382.75 611.421875 383.40625 612.371094 384.035156 613.339844 C 384.660156 614.304688 385.261719 615.289062 385.832031 616.289062 C 386.402344 617.289062 386.945312 618.304688 387.460938 619.335938 C 387.972656 620.371094 388.457031 621.414062 388.910156 622.472656 C 389.363281 623.53125 389.789062 624.605469 390.179688 625.6875 C 390.574219 626.769531 390.9375 627.863281 391.265625 628.96875 C 391.597656 630.074219 391.898438 631.183594 392.164062 632.304688 C 392.433594 633.425781 392.667969 634.554688 392.871094 635.6875 C 393.074219 636.824219 393.246094 637.960938 393.382812 639.105469 C 393.523438 640.25 393.628906 641.398438 393.703125 642.546875 C 393.773438 643.699219 393.816406 644.847656 393.824219 646 C 393.832031 647.152344 393.804688 648.304688 393.746094 649.457031 C 393.691406 650.605469 393.597656 651.753906 393.476562 652.902344 C 393.351562 654.046875 393.195312 655.1875 393.007812 656.324219 C 392.820312 657.460938 392.601562 658.59375 392.347656 659.71875 C 392.09375 660.839844 391.8125 661.957031 391.496094 663.066406 C 391.207031 664.386719 391.210938 665.707031 391.507812 667.023438 C 391.804688 668.34375 392.363281 669.539062 393.183594 670.613281 C 404.394531 682.101562 415.574219 693.683594 427.589844 704.308594 C 428.796875 705.265625 430.074219 706.109375 431.425781 706.847656 C 432.777344 707.585938 434.183594 708.207031 435.640625 708.707031 C 437.097656 709.203125 438.585938 709.578125 440.105469 709.824219 C 441.625 710.066406 443.15625 710.183594 444.695312 710.167969 C 446.238281 710.152344 447.765625 710.007812 449.28125 709.730469 C 450.796875 709.457031 452.277344 709.054688 453.722656 708.527344 C 455.171875 707.996094 456.5625 707.351562 457.898438 706.585938 C 459.234375 705.820312 460.496094 704.949219 461.683594 703.96875 C 462.53125 703.316406 463.339844 702.625 464.105469 701.882812 C 464.875 701.144531 465.597656 700.363281 466.277344 699.539062 C 466.960938 698.71875 467.589844 697.863281 468.175781 696.96875 C 468.757812 696.078125 469.292969 695.15625 469.769531 694.203125 C 470.25 693.25 470.675781 692.273438 471.046875 691.273438 C 471.417969 690.273438 471.730469 689.253906 471.984375 688.21875 C 472.242188 687.183594 472.4375 686.136719 472.578125 685.078125 C 472.714844 684.023438 472.792969 682.960938 472.8125 681.894531 C 472.832031 680.828125 472.789062 679.761719 472.6875 678.699219 C 472.589844 677.640625 472.429688 676.585938 472.207031 675.542969 C 471.988281 674.5 471.710938 673.46875 471.378906 672.457031 C 471.042969 671.445312 470.652344 670.453125 470.207031 669.484375 C 469.757812 668.515625 469.261719 667.578125 468.707031 666.664062 C 468.15625 665.75 467.554688 664.871094 466.902344 664.027344 C 466.253906 663.183594 465.554688 662.375 464.8125 661.609375 C 464.074219 660.84375 463.289062 660.121094 462.46875 659.441406 C 434.199219 631.152344 405.792969 603.003906 377.546875 574.695312 C 376.289062 573.425781 375.160156 572.054688 374.15625 570.578125 L 325.011719 521.429688 C 324.3125 520.707031 323.691406 519.925781 323.148438 519.082031 C 322.605469 518.242188 322.148438 517.355469 321.773438 516.421875 C 321.402344 515.492188 321.125 514.535156 320.941406 513.546875 C 320.753906 512.5625 320.667969 511.570312 320.675781 510.566406 C 320.683594 509.5625 320.789062 508.570312 320.992188 507.589844 C 321.195312 506.605469 321.488281 505.652344 321.875 504.730469 C 322.265625 503.804688 322.738281 502.925781 323.296875 502.09375 C 323.855469 501.261719 324.488281 500.492188 325.199219 499.78125 C 325.90625 499.074219 326.679688 498.4375 327.511719 497.878906 C 328.34375 497.320312 329.222656 496.847656 330.144531 496.460938 C 331.070312 496.070312 332.023438 495.777344 333.007812 495.574219 C 333.988281 495.375 334.980469 495.269531 335.984375 495.257812 C 336.984375 495.25 337.980469 495.339844 338.964844 495.523438 C 339.953125 495.707031 340.910156 495.988281 341.839844 496.359375 C 342.773438 496.730469 343.660156 497.1875 344.5 497.730469 C 345.34375 498.277344 346.125 498.898438 346.847656 499.59375 L 396.261719 549.007812 C 397.597656 549.945312 398.855469 550.972656 400.039062 552.097656 C 408.933594 560.550781 417.878906 568.960938 426.609375 577.578125 C 446.996094 597.722656 467.070312 618.179688 487.667969 638.101562 C 488.355469 638.808594 489.078125 639.480469 489.835938 640.113281 C 490.59375 640.742188 491.382812 641.335938 492.199219 641.886719 C 493.019531 642.433594 493.863281 642.941406 494.738281 643.402344 C 495.609375 643.863281 496.503906 644.277344 497.417969 644.644531 C 498.332031 645.011719 499.265625 645.332031 500.214844 645.601562 C 501.164062 645.871094 502.125 646.09375 503.09375 646.261719 C 504.066406 646.433594 505.046875 646.550781 506.027344 646.617188 C 507.011719 646.683594 508 646.703125 508.984375 646.664062 C 509.96875 646.628906 510.953125 646.542969 511.929688 646.402344 C 512.90625 646.265625 513.871094 646.078125 514.828125 645.835938 C 515.785156 645.597656 516.726562 645.308594 517.65625 644.96875 C 518.582031 644.632812 519.488281 644.246094 520.375 643.8125 C 521.261719 643.378906 522.121094 642.898438 522.957031 642.375 C 523.792969 641.851562 524.601562 641.289062 525.378906 640.679688 C 526.15625 640.070312 526.898438 639.425781 527.605469 638.738281 C 528.316406 638.054688 528.988281 637.332031 529.621094 636.578125 C 530.207031 635.859375 530.753906 635.117188 531.269531 634.347656 C 531.78125 633.578125 532.257812 632.785156 532.695312 631.96875 C 533.132812 631.152344 533.53125 630.320312 533.886719 629.464844 C 534.246094 628.613281 534.5625 627.746094 534.839844 626.859375 C 535.113281 625.976562 535.34375 625.082031 535.535156 624.175781 C 535.726562 623.273438 535.871094 622.359375 535.972656 621.4375 C 536.074219 620.519531 536.132812 619.597656 536.148438 618.671875 C 536.164062 617.746094 536.132812 616.824219 536.058594 615.902344 C 535.988281 614.976562 535.871094 614.0625 535.707031 613.152344 C 535.546875 612.238281 535.34375 611.339844 535.09375 610.445312 C 534.847656 609.554688 534.558594 608.675781 534.226562 607.8125 C 533.894531 606.949219 533.523438 606.101562 533.113281 605.273438 C 532.699219 604.445312 532.25 603.636719 531.761719 602.851562 C 531.273438 602.066406 530.746094 601.308594 530.1875 600.570312 C 529.625 599.835938 529.027344 599.128906 528.398438 598.449219 C 527.769531 597.773438 527.109375 597.125 526.417969 596.507812 C 497.59375 567.488281 468.480469 538.664062 439.5 509.722656 C 425.683594 495.929688 411.703125 482.308594 398.25 468.152344 C 397.871094 467.804688 397.507812 467.4375 397.167969 467.050781 C 396.828125 466.667969 396.503906 466.265625 396.207031 465.847656 C 395.90625 465.429688 395.628906 464.996094 395.371094 464.550781 C 395.117188 464.101562 394.882812 463.644531 394.675781 463.171875 C 394.464844 462.703125 394.28125 462.222656 394.121094 461.734375 C 393.960938 461.246094 393.828125 460.75 393.71875 460.246094 C 393.613281 459.742188 393.527344 459.234375 393.472656 458.722656 C 393.414062 458.210938 393.386719 457.699219 393.382812 457.183594 C 393.378906 456.667969 393.402344 456.15625 393.449219 455.640625 C 393.5 455.128906 393.574219 454.621094 393.675781 454.117188 C 393.773438 453.613281 393.902344 453.113281 394.054688 452.621094 C 394.207031 452.128906 394.382812 451.648438 394.585938 451.171875 C 394.785156 450.699219 395.011719 450.238281 395.261719 449.789062 C 395.511719 449.335938 395.78125 448.902344 396.074219 448.476562 C 396.371094 448.054688 396.683594 447.648438 397.019531 447.257812 C 397.355469 446.867188 397.710938 446.496094 398.082031 446.140625 C 398.8125 445.414062 399.601562 444.761719 400.453125 444.1875 C 401.304688 443.609375 402.207031 443.121094 403.152344 442.71875 C 404.101562 442.316406 405.078125 442.011719 406.085938 441.796875 C 407.09375 441.582031 408.109375 441.46875 409.140625 441.453125 C 410.167969 441.433594 411.1875 441.515625 412.203125 441.699219 C 413.214844 441.878906 414.203125 442.152344 415.160156 442.523438 C 416.121094 442.894531 417.039062 443.355469 417.910156 443.902344 C 418.78125 444.453125 419.589844 445.078125 420.339844 445.78125 C 422.269531 447.386719 424.097656 449.101562 425.816406 450.929688 C 466.882812 491.808594 507.835938 532.792969 549.128906 573.4375 C 551.347656 575.625 553.800781 577.503906 556.492188 579.074219 C 559.183594 580.640625 562.027344 581.851562 565.027344 582.703125 C 566.484375 583.074219 567.960938 583.324219 569.457031 583.449219 C 570.957031 583.578125 572.457031 583.582031 573.953125 583.460938 C 575.453125 583.339844 576.933594 583.097656 578.390625 582.734375 C 579.847656 582.371094 581.269531 581.886719 582.648438 581.289062 C 584.027344 580.691406 585.347656 579.984375 586.609375 579.167969 C 587.871094 578.347656 589.058594 577.433594 590.171875 576.421875 C 591.28125 575.410156 592.304688 574.3125 593.234375 573.132812 C 594.164062 571.949219 594.992188 570.699219 595.714844 569.382812 C 596.476562 568.042969 597.121094 566.652344 597.65625 565.210938 C 598.1875 563.765625 598.601562 562.289062 598.890625 560.777344 C 599.183594 559.265625 599.351562 557.742188 599.390625 556.203125 C 599.433594 554.667969 599.351562 553.132812 599.140625 551.609375 C 598.933594 550.085938 598.601562 548.585938 598.148438 547.117188 C 597.695312 545.648438 597.128906 544.222656 596.441406 542.84375 C 595.753906 541.46875 594.960938 540.15625 594.058594 538.90625 C 593.160156 537.660156 592.164062 536.492188 591.070312 535.410156 C 559.609375 503.648438 527.882812 472.136719 496.246094 440.542969 C 484.921875 429.21875 473.320312 418.058594 462.179688 406.496094 C 461.773438 406.148438 461.386719 405.78125 461.015625 405.394531 C 460.644531 405.007812 460.296875 404.601562 459.96875 404.179688 C 459.636719 403.757812 459.332031 403.320312 459.046875 402.867188 C 458.761719 402.414062 458.5 401.949219 458.261719 401.46875 C 458.023438 400.992188 457.808594 400.5 457.617188 400 C 457.429688 399.5 457.265625 398.992188 457.125 398.472656 C 456.988281 397.957031 456.875 397.433594 456.789062 396.90625 C 456.703125 396.378906 456.640625 395.847656 456.609375 395.3125 C 456.578125 394.777344 456.570312 394.246094 456.589844 393.710938 C 456.609375 393.175781 456.660156 392.640625 456.730469 392.113281 C 456.804688 391.582031 456.90625 391.058594 457.03125 390.535156 C 457.160156 390.015625 457.3125 389.503906 457.488281 389 C 457.667969 388.496094 457.867188 388 458.097656 387.515625 C 458.324219 387.03125 458.574219 386.558594 458.847656 386.101562 C 459.125 385.640625 459.421875 385.195312 459.738281 384.765625 C 460.058594 384.335938 460.398438 383.925781 460.757812 383.527344 C 461.148438 383.136719 461.558594 382.769531 461.988281 382.417969 C 462.414062 382.070312 462.859375 381.742188 463.320312 381.433594 C 463.78125 381.128906 464.253906 380.847656 464.742188 380.589844 C 465.230469 380.332031 465.730469 380.097656 466.242188 379.886719 C 466.753906 379.679688 467.273438 379.496094 467.804688 379.339844 C 468.335938 379.183594 468.871094 379.050781 469.414062 378.949219 C 469.957031 378.84375 470.503906 378.769531 471.054688 378.71875 C 471.601562 378.667969 472.15625 378.648438 472.707031 378.652344 C 473.261719 378.65625 473.8125 378.691406 474.359375 378.75 C 474.910156 378.808594 475.453125 378.898438 475.996094 379.011719 C 476.535156 379.125 477.070312 379.265625 477.597656 379.433594 C 478.121094 379.601562 478.640625 379.792969 479.148438 380.011719 C 479.65625 380.230469 480.148438 380.472656 480.632812 380.742188 C 481.117188 381.007812 481.585938 381.300781 482.039062 381.613281 C 482.496094 381.929688 482.933594 382.265625 483.355469 382.621094 C 483.773438 382.980469 484.175781 383.355469 484.5625 383.753906 C 485.980469 384.980469 487.214844 386.441406 488.554688 387.769531 C 529.351562 428.457031 570.175781 469.125 611.035156 509.773438 C 612.011719 510.90625 613.0625 511.960938 614.191406 512.9375 C 615.320312 513.917969 616.515625 514.8125 617.773438 515.617188 C 619.027344 516.425781 620.335938 517.140625 621.699219 517.757812 C 623.058594 518.378906 624.453125 518.898438 625.890625 519.316406 C 627.324219 519.734375 628.78125 520.046875 630.261719 520.257812 C 631.738281 520.464844 633.226562 520.566406 634.722656 520.5625 C 636.214844 520.558594 637.703125 520.445312 639.179688 520.226562 C 640.660156 520.007812 642.113281 519.683594 643.542969 519.257812 L 644.347656 518.976562 C 644.921875 518.746094 645.488281 518.496094 646.046875 518.226562 C 646.605469 517.957031 647.152344 517.671875 647.691406 517.367188 C 648.230469 517.0625 648.761719 516.742188 649.277344 516.402344 C 649.796875 516.066406 650.304688 515.710938 650.800781 515.339844 C 651.296875 514.96875 651.777344 514.582031 652.25 514.179688 C 652.71875 513.777344 653.175781 513.359375 653.621094 512.925781 C 654.066406 512.496094 654.492188 512.050781 654.910156 511.589844 C 655.324219 511.128906 655.722656 510.65625 656.109375 510.171875 C 656.492188 509.6875 656.859375 509.1875 657.210938 508.679688 C 657.566406 508.171875 657.898438 507.652344 658.21875 507.121094 C 658.539062 506.589844 658.839844 506.046875 659.121094 505.496094 C 659.40625 504.945312 659.671875 504.386719 659.917969 503.820312 C 660.167969 503.253906 660.394531 502.675781 660.605469 502.09375 C 660.816406 501.511719 661.007812 500.925781 661.179688 500.328125 C 661.351562 499.734375 661.503906 499.136719 661.636719 498.53125 C 661.773438 497.925781 661.886719 497.316406 661.980469 496.707031 C 662.074219 496.09375 662.148438 495.480469 662.203125 494.863281 C 662.257812 494.246094 662.292969 493.628906 662.304688 493.007812 C 662.320312 492.390625 662.316406 491.769531 662.289062 491.152344 C 662.265625 490.53125 662.21875 489.914062 662.152344 489.300781 C 662.089844 488.683594 662.003906 488.070312 661.898438 487.460938 C 661.792969 486.851562 661.667969 486.242188 661.523438 485.640625 C 661.382812 485.039062 661.21875 484.441406 661.035156 483.851562 C 660.851562 483.257812 660.652344 482.675781 660.429688 482.09375 C 660.210938 481.515625 659.96875 480.945312 659.714844 480.382812 C 659.457031 479.820312 659.179688 479.265625 658.886719 478.71875 C 658.59375 478.175781 658.285156 477.640625 657.957031 477.113281 C 657.628906 476.589844 657.28125 476.074219 656.921875 475.570312 C 656.5625 475.066406 656.183594 474.578125 655.792969 474.097656 C 655.398438 473.621094 654.992188 473.152344 654.566406 472.703125 C 654.144531 472.25 653.707031 471.8125 653.257812 471.386719 C 652.804688 470.964844 652.339844 470.554688 651.863281 470.160156 C 605.660156 423.925781 501.363281 319.804688 442.363281 261.140625 Z M 442.363281 261.140625 " fill-opacity="1" fill-rule="nonzero"/></svg>