<svg xmlns="http://www.w3.org/2000/svg" xmlns:xlink="http://www.w3.org/1999/xlink" width="1024" zoomAndPan="magnify" viewBox="0 0 768 767.999994" height="1024" preserveAspectRatio="xMidYMid meet" version="1.0"><rect x="-76.8" width="921.6" fill="#ffffff" y="-76.799999" height="921.599993" fill-opacity="1"/><rect x="-76.8" width="921.6" fill="#009639" y="-76.799999" height="921.599993" fill-opacity="1"/><path fill="#ffffff" d="M 361.640625 559.519531 C 362.09375 560.011719 362.523438 560.523438 362.929688 561.054688 C 363.335938 561.585938 363.714844 562.136719 364.066406 562.707031 C 364.421875 563.273438 364.746094 563.855469 365.042969 564.453125 C 365.339844 565.054688 365.609375 565.664062 365.851562 566.289062 C 366.089844 566.914062 366.300781 567.546875 366.480469 568.191406 C 366.660156 568.835938 366.8125 569.484375 366.929688 570.144531 C 367.046875 570.800781 367.136719 571.464844 367.191406 572.128906 C 367.246094 572.796875 367.269531 573.464844 367.265625 574.132812 C 367.257812 574.800781 367.21875 575.46875 367.148438 576.132812 C 367.078125 576.796875 366.976562 577.457031 366.84375 578.113281 C 366.710938 578.769531 366.546875 579.414062 366.351562 580.054688 C 366.15625 580.695312 365.933594 581.324219 365.679688 581.945312 C 365.425781 582.5625 365.144531 583.167969 364.832031 583.757812 C 364.519531 584.351562 364.183594 584.925781 363.816406 585.488281 C 363.453125 586.046875 363.0625 586.589844 362.644531 587.109375 C 362.226562 587.632812 361.785156 588.136719 361.320312 588.617188 C 354.464844 596.1875 347.210938 603.359375 339.5625 610.128906 C 335.878906 612.738281 331.914062 614.8125 327.664062 616.34375 C 326.570312 616.441406 325.480469 616.453125 324.382812 616.390625 C 323.289062 616.324219 322.207031 616.179688 321.132812 615.953125 C 320.058594 615.726562 319.007812 615.425781 317.980469 615.046875 C 316.949219 614.667969 315.957031 614.214844 314.992188 613.691406 C 314.03125 613.164062 313.113281 612.574219 312.234375 611.914062 C 311.359375 611.253906 310.539062 610.53125 309.769531 609.75 C 309 608.96875 308.289062 608.136719 307.644531 607.253906 C 306.996094 606.367188 306.417969 605.441406 305.90625 604.46875 C 305.394531 603.625 304.957031 602.742188 304.585938 601.828125 C 304.214844 600.910156 303.917969 599.972656 303.691406 599.011719 C 303.46875 598.050781 303.316406 597.074219 303.246094 596.089844 C 303.171875 595.105469 303.175781 594.121094 303.257812 593.136719 C 303.339844 592.152344 303.496094 591.179688 303.726562 590.21875 C 303.960938 589.257812 304.265625 588.324219 304.644531 587.410156 C 305.019531 586.496094 305.46875 585.621094 305.984375 584.777344 C 306.5 583.933594 307.074219 583.136719 307.714844 582.382812 C 315.472656 573.386719 323.839844 564.996094 332.816406 557.214844 C 333.328125 556.777344 333.855469 556.371094 334.40625 555.988281 C 334.957031 555.605469 335.523438 555.25 336.105469 554.921875 C 336.691406 554.59375 337.292969 554.296875 337.90625 554.027344 C 338.519531 553.761719 339.144531 553.523438 339.78125 553.316406 C 340.417969 553.109375 341.066406 552.9375 341.71875 552.792969 C 342.375 552.648438 343.035156 552.539062 343.699219 552.460938 C 344.363281 552.382812 345.03125 552.339844 345.703125 552.324219 C 346.371094 552.3125 347.039062 552.335938 347.707031 552.386719 C 348.375 552.441406 349.039062 552.527344 349.699219 552.644531 C 350.355469 552.765625 351.007812 552.914062 351.652344 553.097656 C 352.296875 553.28125 352.933594 553.496094 353.554688 553.742188 C 354.179688 553.984375 354.789062 554.261719 355.382812 554.566406 C 355.980469 554.871094 356.5625 555.207031 357.125 555.566406 C 357.6875 555.929688 358.230469 556.320312 358.757812 556.734375 C 359.28125 557.152344 359.785156 557.59375 360.265625 558.058594 C 360.75 558.523438 361.207031 559.011719 361.640625 559.519531 Z M 222.535156 422.746094 C 222.078125 421.769531 221.558594 420.828125 220.972656 419.921875 C 220.386719 419.015625 219.738281 418.152344 219.03125 417.339844 C 218.328125 416.523438 217.566406 415.757812 216.753906 415.046875 C 215.945312 414.335938 215.085938 413.6875 214.183594 413.09375 C 213.28125 412.503906 212.34375 411.976562 211.367188 411.515625 C 210.390625 411.054688 209.390625 410.664062 208.359375 410.339844 C 207.328125 410.019531 206.28125 409.769531 205.21875 409.59375 C 204.152344 409.417969 203.082031 409.316406 202.003906 409.285156 C 197.386719 410.859375 193.050781 413.003906 189 415.722656 C 180.988281 422.796875 173.421875 430.320312 166.300781 438.296875 C 165.824219 438.789062 165.375 439.304688 164.949219 439.839844 C 164.527344 440.378906 164.128906 440.933594 163.761719 441.511719 C 163.390625 442.085938 163.050781 442.679688 162.742188 443.292969 C 162.433594 443.902344 162.15625 444.527344 161.90625 445.164062 C 161.660156 445.804688 161.445312 446.453125 161.261719 447.113281 C 161.078125 447.769531 160.929688 448.4375 160.8125 449.113281 C 160.699219 449.789062 160.617188 450.464844 160.566406 451.148438 C 160.519531 451.832031 160.503906 452.515625 160.523438 453.199219 C 160.542969 453.882812 160.597656 454.566406 160.6875 455.246094 C 160.773438 455.921875 160.894531 456.597656 161.050781 457.261719 C 161.207031 457.929688 161.394531 458.585938 161.613281 459.234375 C 161.835938 459.882812 162.085938 460.519531 162.371094 461.140625 C 162.65625 461.765625 162.96875 462.371094 163.3125 462.960938 C 163.660156 463.554688 164.03125 464.125 164.433594 464.679688 C 164.835938 465.234375 165.261719 465.769531 165.71875 466.28125 C 166.171875 466.792969 166.652344 467.277344 167.15625 467.742188 C 167.625 468.21875 168.117188 468.675781 168.632812 469.105469 C 169.148438 469.535156 169.679688 469.9375 170.234375 470.316406 C 170.785156 470.695312 171.355469 471.046875 171.941406 471.371094 C 172.53125 471.695312 173.132812 471.992188 173.746094 472.257812 C 174.359375 472.523438 174.988281 472.761719 175.625 472.964844 C 176.265625 473.171875 176.910156 473.347656 177.566406 473.492188 C 178.21875 473.632812 178.878906 473.746094 179.546875 473.828125 C 180.210938 473.90625 180.878906 473.953125 181.546875 473.972656 C 182.21875 473.988281 182.886719 473.96875 183.558594 473.921875 C 184.226562 473.875 184.890625 473.792969 185.550781 473.679688 C 186.210938 473.566406 186.867188 473.425781 187.511719 473.25 C 188.160156 473.074219 188.796875 472.867188 189.425781 472.632812 C 190.050781 472.394531 190.664062 472.128906 191.265625 471.832031 C 191.867188 471.535156 192.453125 471.210938 193.023438 470.859375 C 193.59375 470.507812 194.148438 470.128906 194.679688 469.722656 C 195.214844 469.320312 195.726562 468.886719 196.222656 468.433594 C 204.328125 461.109375 212.035156 453.386719 219.347656 445.269531 C 220.058594 444.539062 220.710938 443.761719 221.296875 442.933594 C 221.886719 442.101562 222.40625 441.230469 222.855469 440.320312 C 223.304688 439.40625 223.679688 438.464844 223.980469 437.492188 C 224.277344 436.519531 224.5 435.53125 224.640625 434.523438 C 224.785156 433.515625 224.847656 432.503906 224.828125 431.484375 C 224.808594 430.46875 224.710938 429.460938 224.53125 428.457031 C 224.351562 427.457031 224.097656 426.476562 223.761719 425.515625 C 223.425781 424.554688 223.015625 423.625 222.535156 422.730469 Z M 265.355469 463.4375 C 264.851562 462.976562 264.328125 462.539062 263.78125 462.128906 C 263.238281 461.714844 262.675781 461.328125 262.09375 460.972656 C 261.511719 460.613281 260.914062 460.28125 260.304688 459.980469 C 259.691406 459.675781 259.066406 459.402344 258.429688 459.160156 C 257.789062 458.914062 257.140625 458.703125 256.484375 458.519531 C 255.824219 458.335938 255.160156 458.183594 254.488281 458.0625 C 253.816406 457.945312 253.140625 457.855469 252.460938 457.800781 C 251.777344 457.742188 251.097656 457.71875 250.414062 457.726562 C 249.730469 457.734375 249.050781 457.773438 248.371094 457.84375 C 247.691406 457.917969 247.015625 458.019531 246.347656 458.15625 C 245.679688 458.289062 245.015625 458.457031 244.363281 458.65625 C 243.710938 458.851562 243.066406 459.082031 242.433594 459.339844 C 241.800781 459.597656 241.183594 459.882812 240.578125 460.199219 C 239.972656 460.515625 239.382812 460.859375 238.8125 461.234375 C 238.238281 461.605469 237.683594 462.003906 237.148438 462.425781 C 236.613281 462.851562 236.097656 463.296875 235.605469 463.769531 C 228.058594 470.640625 220.902344 477.894531 214.132812 485.53125 C 211.644531 488.988281 209.679688 492.726562 208.242188 496.738281 C 208.113281 497.859375 208.070312 498.980469 208.113281 500.109375 C 208.15625 501.234375 208.285156 502.351562 208.503906 503.460938 C 208.71875 504.566406 209.015625 505.652344 209.398438 506.714844 C 209.78125 507.773438 210.242188 508.800781 210.78125 509.792969 C 211.320312 510.78125 211.933594 511.726562 212.617188 512.621094 C 213.300781 513.519531 214.050781 514.359375 214.863281 515.140625 C 215.679688 515.921875 216.546875 516.632812 217.472656 517.28125 C 218.394531 517.929688 219.363281 518.503906 220.375 519 C 221.292969 519.503906 222.242188 519.929688 223.226562 520.28125 C 224.210938 520.628906 225.21875 520.902344 226.246094 521.097656 C 227.273438 521.289062 228.308594 521.402344 229.355469 521.433594 C 230.398438 521.460938 231.441406 521.410156 232.476562 521.277344 C 233.515625 521.144531 234.535156 520.933594 235.539062 520.640625 C 236.542969 520.347656 237.515625 519.976562 238.464844 519.53125 C 239.410156 519.085938 240.3125 518.570312 241.179688 517.980469 C 242.042969 517.394531 242.855469 516.742188 243.617188 516.023438 C 251.527344 508.867188 259.160156 501.375 266.339844 493.488281 C 266.832031 492.988281 267.296875 492.464844 267.734375 491.917969 C 268.175781 491.371094 268.582031 490.800781 268.964844 490.210938 C 269.34375 489.625 269.695312 489.015625 270.015625 488.390625 C 270.332031 487.769531 270.621094 487.128906 270.875 486.476562 C 271.128906 485.820312 271.351562 485.15625 271.539062 484.480469 C 271.726562 483.804688 271.878906 483.121094 271.996094 482.429688 C 272.117188 481.738281 272.199219 481.042969 272.246094 480.34375 C 272.292969 479.644531 272.304688 478.945312 272.285156 478.242188 C 272.261719 477.542969 272.203125 476.84375 272.109375 476.148438 C 272.015625 475.453125 271.886719 474.765625 271.722656 474.085938 C 271.558594 473.402344 271.363281 472.730469 271.132812 472.066406 C 270.898438 471.40625 270.636719 470.757812 270.339844 470.121094 C 270.042969 469.488281 269.714844 468.867188 269.355469 468.265625 C 268.992188 467.664062 268.605469 467.082031 268.1875 466.519531 C 267.769531 465.957031 267.320312 465.417969 266.847656 464.898438 C 266.375 464.382812 265.878906 463.886719 265.355469 463.421875 Z M 319.964844 529.492188 C 319.125 517.835938 315.417969 510.84375 306.921875 507.027344 C 305.957031 506.554688 304.960938 506.164062 303.933594 505.847656 C 302.90625 505.535156 301.863281 505.304688 300.796875 505.15625 C 299.734375 505.007812 298.664062 504.945312 297.589844 504.964844 C 296.515625 504.988281 295.453125 505.09375 294.394531 505.28125 C 293.335938 505.472656 292.300781 505.742188 291.285156 506.09375 C 290.273438 506.449219 289.292969 506.878906 288.347656 507.386719 C 287.398438 507.898438 286.5 508.476562 285.644531 509.128906 C 284.792969 509.777344 283.992188 510.492188 283.25 511.269531 C 276.101562 517.859375 269.261719 524.839844 262.558594 531.855469 C 262.039062 532.34375 261.542969 532.859375 261.078125 533.398438 C 260.609375 533.9375 260.167969 534.496094 259.757812 535.078125 C 259.347656 535.660156 258.964844 536.261719 258.613281 536.882812 C 258.261719 537.503906 257.941406 538.140625 257.65625 538.792969 C 257.367188 539.445312 257.113281 540.113281 256.890625 540.789062 C 256.671875 541.46875 256.484375 542.15625 256.332031 542.851562 C 256.179688 543.550781 256.0625 544.253906 255.980469 544.960938 C 255.898438 545.667969 255.851562 546.378906 255.839844 547.09375 C 255.832031 547.808594 255.855469 548.519531 255.914062 549.230469 C 255.976562 549.941406 256.070312 550.644531 256.203125 551.347656 C 256.332031 552.046875 256.5 552.742188 256.699219 553.425781 C 256.898438 554.109375 257.132812 554.78125 257.402344 555.445312 C 257.667969 556.105469 257.96875 556.75 258.300781 557.382812 C 258.632812 558.015625 258.996094 558.625 259.390625 559.222656 C 259.785156 559.816406 260.207031 560.390625 260.65625 560.941406 C 261.109375 561.496094 261.585938 562.023438 262.089844 562.527344 C 262.597656 563.03125 263.128906 563.507812 263.683594 563.957031 C 264.238281 564.40625 264.8125 564.828125 265.410156 565.21875 C 266.007812 565.613281 266.621094 565.976562 267.253906 566.308594 C 267.882812 566.640625 268.53125 566.9375 269.195312 567.207031 C 269.855469 567.472656 270.527344 567.707031 271.214844 567.910156 C 271.898438 568.109375 272.59375 568.277344 273.292969 568.410156 C 273.996094 568.542969 274.703125 568.640625 275.414062 568.703125 C 276.125 568.765625 276.835938 568.792969 277.550781 568.785156 C 278.265625 568.777344 278.976562 568.730469 279.6875 568.652344 C 280.394531 568.574219 281.101562 568.460938 281.796875 568.3125 C 282.496094 568.164062 283.1875 567.984375 283.867188 567.765625 C 284.546875 567.550781 285.214844 567.300781 285.871094 567.015625 C 286.527344 566.734375 287.164062 566.417969 287.789062 566.074219 C 288.414062 565.726562 289.019531 565.351562 289.609375 564.945312 C 290.195312 564.539062 290.761719 564.105469 291.304688 563.644531 C 291.847656 563.179688 292.367188 562.691406 292.863281 562.179688 C 299.917969 555.804688 306.605469 549.070312 312.929688 541.972656 C 315.761719 538.078125 318.105469 533.910156 319.964844 529.46875 Z M 640.691406 221.367188 C 636.417969 215.183594 631.675781 209.378906 626.464844 203.960938 C 621.292969 198.390625 615.730469 193.246094 609.769531 188.527344 C 601.992188 182.519531 593.621094 177.5 584.660156 173.460938 C 572.574219 167.804688 560.035156 163.433594 547.050781 160.347656 C 534.066406 157.265625 520.902344 155.53125 507.5625 155.148438 C 500.800781 155.316406 494.074219 155.886719 487.382812 156.855469 C 480.6875 157.828125 474.078125 159.191406 467.546875 160.949219 C 461.015625 162.707031 454.613281 164.847656 448.339844 167.367188 C 442.0625 169.890625 435.960938 172.773438 430.027344 176.023438 C 420.503906 181.671875 411.46875 188.015625 402.917969 195.050781 C 394.367188 202.085938 386.402344 209.730469 379.023438 217.988281 C 356.582031 240.578125 333.8125 262.859375 311.414062 285.480469 C 310.660156 286.179688 309.949219 286.917969 309.277344 287.699219 C 308.601562 288.476562 307.976562 289.289062 307.394531 290.136719 C 306.8125 290.984375 306.28125 291.863281 305.796875 292.769531 C 305.3125 293.675781 304.878906 294.609375 304.5 295.5625 C 304.121094 296.519531 303.792969 297.492188 303.519531 298.484375 C 303.25 299.476562 303.03125 300.476562 302.871094 301.492188 C 302.710938 302.507812 302.609375 303.53125 302.5625 304.558594 C 302.515625 305.585938 302.523438 306.613281 302.59375 307.636719 C 302.660156 308.664062 302.785156 309.683594 302.964844 310.695312 C 303.144531 311.707031 303.382812 312.707031 303.671875 313.691406 C 303.964844 314.679688 304.3125 315.644531 304.710938 316.59375 C 305.109375 317.539062 305.558594 318.460938 306.0625 319.359375 C 306.5625 320.257812 307.113281 321.125 307.714844 321.960938 C 308.3125 322.796875 308.953125 323.597656 309.640625 324.359375 C 310.328125 325.125 311.058594 325.847656 311.824219 326.53125 C 312.59375 327.214844 313.398438 327.855469 314.234375 328.449219 C 314.882812 328.925781 315.546875 329.375 316.234375 329.792969 C 316.921875 330.210938 317.621094 330.597656 318.34375 330.953125 C 319.0625 331.308594 319.796875 331.632812 320.546875 331.925781 C 321.292969 332.21875 322.054688 332.476562 322.824219 332.703125 C 323.59375 332.925781 324.375 333.117188 325.164062 333.273438 C 325.949219 333.429688 326.742188 333.554688 327.542969 333.640625 C 328.339844 333.726562 329.140625 333.777344 329.945312 333.796875 C 330.746094 333.8125 331.550781 333.792969 332.351562 333.738281 C 333.152344 333.683594 333.949219 333.597656 334.742188 333.472656 C 335.539062 333.347656 336.324219 333.191406 337.105469 332.996094 C 337.882812 332.804688 338.652344 332.578125 339.414062 332.316406 C 340.171875 332.054688 340.917969 331.761719 341.652344 331.433594 C 342.386719 331.109375 343.105469 330.75 343.808594 330.363281 C 344.511719 329.972656 345.195312 329.550781 345.859375 329.101562 C 346.527344 328.652344 347.171875 328.175781 347.792969 327.667969 C 348.417969 327.164062 349.019531 326.628906 349.59375 326.070312 C 360.0625 316.234375 412.90625 264.773438 428.085938 249.507812 C 507.765625 328.433594 566.078125 386.703125 580.113281 401.097656 C 589.875 411.097656 598.867188 420.453125 598.867188 420.453125 C 605.152344 427.050781 611.542969 433.804688 618.234375 440.785156 C 622.765625 435.070312 627.792969 429.367188 632.695312 423.4375 C 637.632812 417.472656 642.226562 411.257812 646.480469 404.785156 C 650.078125 399.054688 653.328125 393.128906 656.230469 387.011719 C 659.136719 380.898438 661.671875 374.632812 663.839844 368.222656 C 666.007812 361.808594 667.796875 355.292969 669.203125 348.671875 C 670.605469 342.050781 671.621094 335.367188 672.242188 328.628906 C 672.695312 321.261719 672.640625 313.898438 672.074219 306.539062 C 671.507812 299.179688 670.433594 291.894531 668.859375 284.683594 C 667.28125 277.472656 665.214844 270.40625 662.65625 263.484375 C 660.101562 256.558594 657.078125 249.84375 653.59375 243.339844 C 649.773438 235.730469 645.472656 228.410156 640.691406 221.367188 Z M 428.054688 283.351562 C 406.03125 304.769531 371.890625 338.226562 363.375 345.703125 C 362.152344 346.71875 360.886719 347.675781 359.574219 348.578125 C 358.265625 349.476562 356.917969 350.316406 355.527344 351.089844 C 354.140625 351.867188 352.722656 352.578125 351.269531 353.222656 C 349.816406 353.871094 348.339844 354.449219 346.832031 354.957031 C 345.328125 355.46875 343.800781 355.90625 342.253906 356.277344 C 340.710938 356.648438 339.148438 356.945312 337.578125 357.171875 C 336.003906 357.398438 334.421875 357.554688 332.835938 357.636719 C 331.246094 357.714844 329.660156 357.726562 328.070312 357.660156 C 326.484375 357.597656 324.902344 357.460938 323.324219 357.25 C 321.75 357.039062 320.1875 356.757812 318.636719 356.40625 C 317.085938 356.054688 315.558594 355.628906 314.046875 355.136719 C 312.535156 354.644531 311.050781 354.082031 309.589844 353.449219 C 308.132812 352.820312 306.703125 352.125 305.308594 351.363281 C 303.914062 350.601562 302.554688 349.78125 301.234375 348.894531 C 299.914062 348.007812 298.640625 347.0625 297.40625 346.0625 C 296.171875 345.058594 294.988281 344 293.851562 342.890625 C 292.714844 341.777344 291.628906 340.617188 290.597656 339.40625 C 289.566406 338.195312 288.59375 336.941406 287.679688 335.636719 C 286.765625 334.335938 285.914062 332.996094 285.125 331.617188 C 284.335938 330.234375 283.613281 328.820312 282.957031 327.371094 C 282.296875 325.925781 281.710938 324.449219 281.1875 322.945312 C 280.667969 321.445312 280.21875 319.921875 279.839844 318.375 C 279.460938 316.832031 279.15625 315.273438 278.921875 313.699219 C 278.6875 312.128906 278.527344 310.546875 278.441406 308.957031 C 278.355469 307.371094 278.34375 305.78125 278.402344 304.195312 C 278.464844 302.605469 278.597656 301.023438 278.808594 299.445312 C 279.015625 297.867188 279.296875 296.304688 279.652344 294.753906 C 280.003906 293.203125 280.429688 291.671875 280.925781 290.164062 C 281.421875 288.652344 281.988281 287.167969 282.621094 285.710938 C 283.253906 284.25 283.957031 282.824219 284.722656 281.433594 C 285.488281 280.039062 286.320312 278.683594 287.210938 277.367188 C 288.105469 276.050781 289.054688 274.78125 290.066406 273.554688 C 296.78125 265.570312 304.414062 258.351562 311.828125 250.945312 C 330.230469 232.457031 348.757812 214.023438 367.679688 195.15625 C 365.105469 192.839844 362.457031 190.609375 359.734375 188.464844 C 357.011719 186.324219 354.222656 184.273438 351.363281 182.316406 C 348.503906 180.355469 345.585938 178.496094 342.605469 176.730469 C 339.625 174.964844 336.589844 173.296875 333.5 171.734375 C 330.40625 170.167969 327.269531 168.707031 324.082031 167.351562 C 320.894531 165.992188 317.667969 164.742188 314.398438 163.597656 C 311.125 162.453125 307.824219 161.417969 304.484375 160.492188 C 301.144531 159.566406 297.78125 158.75 294.390625 158.046875 C 290.996094 157.34375 287.585938 156.75 284.15625 156.273438 C 280.722656 155.796875 277.28125 155.429688 273.824219 155.179688 C 270.371094 154.929688 266.910156 154.792969 263.445312 154.769531 C 259.980469 154.746094 256.519531 154.839844 253.0625 155.046875 C 249.605469 155.25 246.15625 155.570312 242.71875 156.003906 C 239.28125 156.4375 235.863281 156.984375 232.460938 157.644531 C 229.0625 158.304688 225.6875 159.078125 222.335938 159.960938 C 218.988281 160.84375 215.667969 161.835938 212.386719 162.9375 C 146.089844 185.464844 107.644531 232.808594 99.832031 302.554688 C 99.167969 308.148438 98.808594 313.757812 98.761719 319.390625 C 98.710938 325.019531 98.972656 330.636719 99.539062 336.238281 C 100.109375 341.839844 100.984375 347.394531 102.164062 352.902344 C 103.34375 358.40625 104.824219 363.832031 106.601562 369.175781 C 108.378906 374.519531 110.441406 379.75 112.796875 384.867188 C 115.148438 389.980469 117.773438 394.953125 120.675781 399.78125 C 123.574219 404.605469 126.730469 409.261719 130.140625 413.742188 C 133.554688 418.21875 137.199219 422.5 141.082031 426.578125 C 151.855469 416.738281 161.738281 407.46875 171.84375 398.492188 C 172.492188 397.871094 173.164062 397.269531 173.851562 396.6875 C 174.539062 396.105469 175.242188 395.546875 175.960938 395.007812 C 176.683594 394.46875 177.417969 393.949219 178.171875 393.457031 C 178.921875 392.960938 179.6875 392.488281 180.46875 392.039062 C 181.25 391.589844 182.042969 391.164062 182.847656 390.761719 C 183.652344 390.359375 184.46875 389.984375 185.296875 389.628906 C 186.125 389.277344 186.960938 388.949219 187.808594 388.644531 C 188.65625 388.34375 189.515625 388.066406 190.378906 387.8125 C 191.242188 387.5625 192.113281 387.335938 192.992188 387.136719 C 193.871094 386.9375 194.753906 386.765625 195.640625 386.617188 C 196.527344 386.472656 197.421875 386.351562 198.316406 386.257812 C 199.210938 386.164062 200.109375 386.097656 201.007812 386.058594 C 201.90625 386.019531 202.804688 386.007812 203.707031 386.019531 C 204.605469 386.035156 205.503906 386.078125 206.402344 386.144531 C 207.300781 386.210938 208.195312 386.308594 209.085938 386.429688 C 209.980469 386.550781 210.867188 386.699219 211.75 386.875 C 212.632812 387.046875 213.507812 387.25 214.378906 387.476562 C 215.25 387.703125 216.113281 387.957031 216.972656 388.234375 C 217.828125 388.515625 218.671875 388.820312 219.511719 389.148438 C 220.347656 389.476562 221.175781 389.832031 221.992188 390.210938 C 222.808594 390.589844 223.613281 390.992188 224.40625 391.421875 C 225.199219 391.847656 225.976562 392.296875 226.742188 392.773438 C 227.507812 393.246094 228.257812 393.742188 228.992188 394.261719 C 229.730469 394.78125 230.449219 395.320312 231.152344 395.882812 C 231.855469 396.445312 232.539062 397.027344 233.210938 397.628906 C 233.878906 398.230469 234.527344 398.855469 235.160156 399.496094 C 235.789062 400.136719 236.402344 400.796875 236.992188 401.476562 C 237.585938 402.15625 238.15625 402.851562 238.707031 403.5625 C 239.257812 404.273438 239.785156 405.003906 240.289062 405.746094 C 240.796875 406.492188 241.28125 407.25 241.742188 408.023438 C 242.203125 408.796875 242.640625 409.582031 243.054688 410.382812 C 243.46875 411.179688 243.859375 411.992188 244.222656 412.816406 C 246.753906 419.421875 248.691406 426.199219 250.046875 433.144531 C 278.644531 435.65625 294.226562 451.664062 296.78125 480.488281 C 326.109375 483.144531 341.941406 499 344.296875 527.746094 C 345.125 528.019531 345.972656 528.21875 346.835938 528.34375 C 347.707031 528.367188 348.574219 528.414062 349.441406 528.488281 C 350.308594 528.5625 351.171875 528.660156 352.03125 528.785156 C 352.894531 528.90625 353.75 529.054688 354.605469 529.226562 C 355.457031 529.398438 356.304688 529.59375 357.144531 529.8125 C 357.988281 530.03125 358.820312 530.273438 359.648438 530.542969 C 360.476562 530.808594 361.296875 531.101562 362.109375 531.414062 C 362.921875 531.726562 363.722656 532.066406 364.515625 532.425781 C 365.304688 532.785156 366.085938 533.164062 366.859375 533.570312 C 367.628906 533.972656 368.386719 534.398438 369.132812 534.847656 C 369.878906 535.292969 370.613281 535.761719 371.332031 536.25 C 372.050781 536.738281 372.753906 537.25 373.445312 537.777344 C 374.136719 538.304688 374.8125 538.855469 375.472656 539.421875 C 376.128906 539.988281 376.773438 540.574219 377.398438 541.179688 C 378.027344 541.78125 378.632812 542.40625 379.222656 543.042969 C 379.816406 543.683594 380.386719 544.335938 380.941406 545.007812 C 381.492188 545.679688 382.027344 546.367188 382.542969 547.066406 C 383.054688 547.769531 383.550781 548.484375 384.023438 549.214844 C 384.496094 549.945312 384.949219 550.6875 385.382812 551.441406 C 385.8125 552.195312 386.222656 552.964844 386.609375 553.742188 C 386.996094 554.523438 387.363281 555.3125 387.707031 556.109375 C 388.046875 556.910156 388.367188 557.71875 388.664062 558.535156 C 388.960938 559.355469 389.234375 560.179688 389.484375 561.011719 C 389.734375 561.847656 389.960938 562.6875 390.160156 563.53125 C 390.363281 564.378906 390.542969 565.230469 390.695312 566.085938 C 390.847656 566.941406 390.976562 567.800781 391.082031 568.664062 C 391.1875 569.527344 391.265625 570.394531 391.320312 571.261719 C 391.378906 572.132812 391.40625 573 391.414062 573.871094 C 391.417969 574.738281 391.402344 575.609375 391.355469 576.476562 C 391.3125 577.347656 391.246094 578.214844 391.152344 579.078125 C 391.058594 579.945312 390.941406 580.804688 390.800781 581.664062 C 390.65625 582.523438 390.492188 583.375 390.300781 584.222656 C 390.109375 585.074219 389.894531 585.914062 389.65625 586.75 C 389.441406 587.75 389.445312 588.746094 389.667969 589.742188 C 389.890625 590.734375 390.308594 591.636719 390.929688 592.449219 C 399.394531 601.121094 407.832031 609.863281 416.902344 617.882812 C 417.8125 618.605469 418.78125 619.246094 419.800781 619.800781 C 420.820312 620.359375 421.878906 620.828125 422.980469 621.203125 C 424.078125 621.582031 425.203125 621.863281 426.351562 622.046875 C 427.5 622.230469 428.65625 622.320312 429.816406 622.308594 C 430.980469 622.296875 432.132812 622.1875 433.277344 621.976562 C 434.421875 621.769531 435.539062 621.464844 436.628906 621.066406 C 437.722656 620.667969 438.773438 620.179688 439.78125 619.601562 C 440.792969 619.027344 441.742188 618.367188 442.640625 617.628906 C 443.28125 617.136719 443.890625 616.613281 444.46875 616.054688 C 445.046875 615.496094 445.59375 614.90625 446.109375 614.285156 C 446.621094 613.664062 447.097656 613.019531 447.539062 612.34375 C 447.980469 611.671875 448.382812 610.972656 448.746094 610.253906 C 449.105469 609.535156 449.429688 608.800781 449.707031 608.042969 C 449.988281 607.289062 450.222656 606.519531 450.417969 605.738281 C 450.609375 604.957031 450.757812 604.167969 450.863281 603.371094 C 450.96875 602.570312 451.027344 601.769531 451.039062 600.964844 C 451.054688 600.160156 451.023438 599.355469 450.949219 598.554688 C 450.871094 597.753906 450.75 596.957031 450.585938 596.171875 C 450.417969 595.382812 450.210938 594.605469 449.957031 593.839844 C 449.703125 593.078125 449.410156 592.328125 449.074219 591.597656 C 448.734375 590.867188 448.359375 590.15625 447.941406 589.46875 C 447.523438 588.777344 447.070312 588.117188 446.578125 587.476562 C 446.089844 586.839844 445.5625 586.230469 445.003906 585.652344 C 444.441406 585.074219 443.851562 584.527344 443.230469 584.015625 C 421.890625 562.660156 400.449219 541.414062 379.125 520.042969 C 378.179688 519.085938 377.324219 518.050781 376.570312 516.933594 L 339.46875 479.835938 C 338.945312 479.289062 338.476562 478.699219 338.0625 478.0625 C 337.652344 477.429688 337.308594 476.757812 337.027344 476.054688 C 336.746094 475.351562 336.535156 474.628906 336.398438 473.886719 C 336.257812 473.140625 336.191406 472.390625 336.199219 471.636719 C 336.203125 470.878906 336.285156 470.128906 336.4375 469.386719 C 336.589844 468.644531 336.8125 467.925781 337.105469 467.230469 C 337.398438 466.53125 337.753906 465.867188 338.175781 465.238281 C 338.597656 464.609375 339.074219 464.027344 339.609375 463.492188 C 340.148438 462.957031 340.726562 462.480469 341.355469 462.058594 C 341.984375 461.636719 342.648438 461.277344 343.347656 460.984375 C 344.042969 460.695312 344.765625 460.472656 345.503906 460.320312 C 346.246094 460.164062 346.996094 460.085938 347.753906 460.078125 C 348.507812 460.074219 349.261719 460.140625 350.003906 460.28125 C 350.746094 460.417969 351.472656 460.628906 352.175781 460.910156 C 352.878906 461.191406 353.546875 461.535156 354.183594 461.945312 C 354.816406 462.355469 355.40625 462.824219 355.953125 463.351562 L 393.253906 500.652344 C 394.261719 501.359375 395.214844 502.136719 396.105469 502.984375 C 402.820312 509.367188 409.574219 515.714844 416.164062 522.21875 C 431.550781 537.425781 446.707031 552.867188 462.253906 567.90625 C 462.773438 568.441406 463.320312 568.945312 463.890625 569.425781 C 464.460938 569.902344 465.058594 570.347656 465.675781 570.761719 C 466.292969 571.179688 466.933594 571.558594 467.589844 571.90625 C 468.25 572.257812 468.921875 572.570312 469.613281 572.847656 C 470.304688 573.125 471.007812 573.367188 471.726562 573.570312 C 472.441406 573.773438 473.167969 573.941406 473.898438 574.066406 C 474.632812 574.195312 475.371094 574.285156 476.113281 574.335938 C 476.859375 574.386719 477.601562 574.398438 478.34375 574.371094 C 479.089844 574.34375 479.832031 574.277344 480.566406 574.175781 C 481.304688 574.070312 482.035156 573.925781 482.757812 573.746094 C 483.480469 573.566406 484.191406 573.347656 484.890625 573.089844 C 485.589844 572.835938 486.273438 572.542969 486.941406 572.21875 C 487.613281 571.890625 488.261719 571.53125 488.894531 571.132812 C 489.523438 570.738281 490.132812 570.3125 490.71875 569.851562 C 491.304688 569.394531 491.867188 568.90625 492.402344 568.386719 C 492.9375 567.871094 493.445312 567.328125 493.921875 566.757812 C 494.363281 566.214844 494.777344 565.652344 495.167969 565.070312 C 495.554688 564.492188 495.914062 563.894531 496.242188 563.277344 C 496.574219 562.660156 496.875 562.03125 497.144531 561.386719 C 497.414062 560.742188 497.652344 560.089844 497.863281 559.421875 C 498.070312 558.753906 498.246094 558.078125 498.386719 557.394531 C 498.53125 556.710938 498.640625 556.023438 498.71875 555.328125 C 498.796875 554.636719 498.839844 553.9375 498.851562 553.242188 C 498.863281 552.542969 498.839844 551.84375 498.785156 551.148438 C 498.730469 550.453125 498.640625 549.761719 498.519531 549.070312 C 498.394531 548.382812 498.242188 547.703125 498.054688 547.03125 C 497.867188 546.359375 497.652344 545.695312 497.402344 545.042969 C 497.152344 544.390625 496.871094 543.75 496.558594 543.125 C 496.25 542.5 495.910156 541.890625 495.539062 541.300781 C 495.171875 540.707031 494.773438 540.132812 494.347656 539.578125 C 493.925781 539.023438 493.476562 538.488281 493 537.976562 C 492.527344 537.464844 492.027344 536.976562 491.507812 536.511719 C 469.746094 514.601562 447.769531 492.84375 425.894531 471 C 415.464844 460.585938 404.910156 450.304688 394.753906 439.617188 C 394.179688 439.089844 393.667969 438.511719 393.210938 437.878906 C 392.757812 437.246094 392.371094 436.570312 392.054688 435.859375 C 391.742188 435.148438 391.5 434.410156 391.335938 433.648438 C 391.171875 432.886719 391.085938 432.117188 391.082031 431.335938 C 391.074219 430.558594 391.148438 429.785156 391.300781 429.023438 C 391.453125 428.257812 391.683594 427.519531 391.988281 426.800781 C 392.292969 426.085938 392.667969 425.40625 393.113281 424.765625 C 393.558594 424.125 394.0625 423.539062 394.628906 423.003906 C 395.179688 422.453125 395.773438 421.960938 396.417969 421.527344 C 397.0625 421.089844 397.742188 420.722656 398.457031 420.417969 C 399.171875 420.117188 399.910156 419.882812 400.671875 419.722656 C 401.429688 419.5625 402.199219 419.476562 402.976562 419.460938 C 403.753906 419.449219 404.523438 419.511719 405.289062 419.648438 C 406.050781 419.785156 406.796875 419.992188 407.523438 420.273438 C 408.246094 420.550781 408.9375 420.898438 409.59375 421.3125 C 410.253906 421.726562 410.863281 422.199219 411.429688 422.730469 C 412.886719 423.941406 414.265625 425.238281 415.566406 426.617188 C 446.566406 457.476562 477.480469 488.414062 508.648438 519.09375 C 512.050781 522.449219 516.050781 524.78125 520.648438 526.089844 C 521.75 526.371094 522.863281 526.558594 523.996094 526.652344 C 525.125 526.75 526.257812 526.75 527.390625 526.660156 C 528.519531 526.570312 529.636719 526.386719 530.738281 526.113281 C 531.839844 525.835938 532.910156 525.472656 533.953125 525.019531 C 534.992188 524.570312 535.988281 524.035156 536.941406 523.417969 C 537.894531 522.800781 538.792969 522.113281 539.628906 521.347656 C 540.46875 520.582031 541.238281 519.753906 541.941406 518.863281 C 542.644531 517.972656 543.269531 517.027344 543.816406 516.03125 C 544.390625 515.023438 544.878906 513.972656 545.28125 512.882812 C 545.683594 511.792969 545.992188 510.679688 546.214844 509.539062 C 546.433594 508.398438 546.558594 507.246094 546.589844 506.085938 C 546.621094 504.925781 546.558594 503.769531 546.402344 502.617188 C 546.246094 501.464844 545.996094 500.335938 545.652344 499.226562 C 545.3125 498.117188 544.882812 497.039062 544.363281 496 C 543.84375 494.960938 543.246094 493.96875 542.566406 493.027344 C 541.886719 492.085938 541.132812 491.207031 540.308594 490.386719 C 516.5625 466.414062 492.609375 442.625 468.730469 418.773438 C 460.179688 410.226562 451.421875 401.804688 443.015625 393.074219 C 442.398438 392.546875 441.84375 391.964844 441.34375 391.328125 C 440.847656 390.6875 440.417969 390.007812 440.054688 389.28125 C 439.695312 388.554688 439.410156 387.800781 439.199219 387.019531 C 438.988281 386.238281 438.859375 385.441406 438.808594 384.632812 C 438.757812 383.824219 438.789062 383.019531 438.902344 382.21875 C 439.011719 381.414062 439.203125 380.632812 439.472656 379.867188 C 439.742188 379.105469 440.085938 378.375 440.5 377.679688 C 440.914062 376.984375 441.394531 376.335938 441.941406 375.738281 C 442.535156 375.148438 443.175781 374.621094 443.875 374.15625 C 444.570312 373.695312 445.308594 373.304688 446.082031 372.992188 C 446.855469 372.675781 447.652344 372.4375 448.472656 372.28125 C 449.296875 372.125 450.125 372.050781 450.960938 372.058594 C 451.796875 372.066406 452.625 372.15625 453.441406 372.328125 C 454.261719 372.5 455.054688 372.753906 455.820312 373.082031 C 456.589844 373.414062 457.316406 373.816406 458.007812 374.292969 C 458.695312 374.769531 459.328125 375.308594 459.910156 375.910156 C 460.980469 376.832031 461.914062 377.9375 462.925781 378.941406 C 493.71875 409.652344 524.539062 440.351562 555.378906 471.039062 C 556.117188 471.890625 556.910156 472.6875 557.761719 473.425781 C 558.617188 474.164062 559.515625 474.839844 560.464844 475.449219 C 561.414062 476.058594 562.402344 476.597656 563.429688 477.0625 C 564.457031 477.53125 565.511719 477.921875 566.59375 478.238281 C 567.675781 478.554688 568.777344 478.792969 569.894531 478.949219 C 571.007812 479.105469 572.132812 479.183594 573.261719 479.179688 C 574.386719 479.175781 575.511719 479.09375 576.625 478.925781 C 577.742188 478.761719 578.839844 478.519531 579.921875 478.195312 L 580.527344 477.984375 C 580.960938 477.808594 581.386719 477.621094 581.808594 477.417969 C 582.230469 477.214844 582.644531 477 583.050781 476.769531 C 583.457031 476.539062 583.855469 476.296875 584.25 476.042969 C 584.640625 475.785156 585.023438 475.519531 585.398438 475.238281 C 585.769531 474.957031 586.136719 474.664062 586.492188 474.363281 C 586.847656 474.058594 587.191406 473.742188 587.527344 473.417969 C 587.863281 473.089844 588.1875 472.753906 588.5 472.40625 C 588.8125 472.0625 589.113281 471.703125 589.402344 471.335938 C 589.695312 470.972656 589.972656 470.59375 590.238281 470.210938 C 590.503906 469.828125 590.757812 469.433594 590.996094 469.03125 C 591.238281 468.632812 591.464844 468.222656 591.679688 467.808594 C 591.894531 467.394531 592.09375 466.972656 592.28125 466.542969 C 592.46875 466.113281 592.640625 465.679688 592.800781 465.238281 C 592.957031 464.800781 593.101562 464.355469 593.234375 463.90625 C 593.363281 463.457031 593.476562 463.003906 593.578125 462.550781 C 593.679688 462.09375 593.765625 461.632812 593.835938 461.171875 C 593.90625 460.710938 593.964844 460.246094 594.003906 459.78125 C 594.046875 459.3125 594.074219 458.847656 594.082031 458.378906 C 594.09375 457.914062 594.089844 457.445312 594.070312 456.980469 C 594.050781 456.511719 594.015625 456.046875 593.96875 455.582031 C 593.917969 455.117188 593.855469 454.652344 593.777344 454.191406 C 593.695312 453.730469 593.601562 453.273438 593.492188 452.820312 C 593.382812 452.367188 593.261719 451.914062 593.125 451.46875 C 592.984375 451.023438 592.832031 450.578125 592.667969 450.144531 C 592.5 449.707031 592.320312 449.273438 592.125 448.851562 C 591.929688 448.425781 591.722656 448.007812 591.503906 447.59375 C 591.28125 447.183594 591.046875 446.777344 590.796875 446.382812 C 590.550781 445.984375 590.292969 445.597656 590.019531 445.21875 C 589.746094 444.839844 589.460938 444.46875 589.164062 444.105469 C 588.867188 443.746094 588.5625 443.394531 588.242188 443.050781 C 587.921875 442.710938 587.59375 442.378906 587.25 442.058594 C 586.910156 441.738281 586.558594 441.429688 586.199219 441.132812 C 551.324219 406.234375 472.589844 327.632812 428.054688 283.351562 Z M 428.054688 283.351562 " fill-opacity="1" fill-rule="nonzero"/></svg>