<svg xmlns="http://www.w3.org/2000/svg" xmlns:xlink="http://www.w3.org/1999/xlink" width="1024" zoomAndPan="magnify" viewBox="0 0 768 767.999994" height="1024" preserveAspectRatio="xMidYMid meet" version="1.0"><defs><g/><clipPath id="886eb5426a"><path d="M 0.71875 1 L 7.441406 1 L 7.441406 3 L 0.71875 3 Z M 0.71875 1 " clip-rule="nonzero"/></clipPath><clipPath id="86b52b1d0a"><rect x="0" width="8" y="0" height="4"/></clipPath><clipPath id="15e82372fd"><path d="M 583 353 L 691.050781 353 L 691.050781 615.199219 L 583 615.199219 Z M 583 353 " clip-rule="nonzero"/></clipPath><clipPath id="75b7b46d30"><path d="M 203 353 L 566 353 L 566 615.199219 L 203 615.199219 Z M 203 353 " clip-rule="nonzero"/></clipPath><clipPath id="1ceaf25178"><path d="M 76.800781 192 L 466 192 L 466 561 L 76.800781 561 Z M 76.800781 192 " clip-rule="nonzero"/></clipPath><clipPath id="d4beafe4c4"><path d="M 427 152.449219 L 600 152.449219 L 600 337 L 427 337 Z M 427 152.449219 " clip-rule="nonzero"/></clipPath></defs><g transform="matrix(1, 0, 0, 1, 318, 340)"><g clip-path="url(#86b52b1d0a)"><g clip-path="url(#886eb5426a)"><g fill="#000000" fill-opacity="1"><g transform="translate(0.863747, 2.804254)"><g><path d="M 0.734375 -0.171875 L 0.78125 -0.0625 C 0.75 -0.03125 0.710938 -0.0078125 0.671875 0 C 0.640625 0.0078125 0.597656 0.015625 0.546875 0.015625 C 0.335938 0.015625 0.234375 -0.0859375 0.234375 -0.296875 L 0.234375 -0.953125 L 0.046875 -0.953125 L 0.046875 -1.078125 L 0.234375 -1.078125 L 0.234375 -1.3125 L 0.390625 -1.328125 L 0.390625 -1.078125 L 0.75 -1.078125 L 0.75 -0.953125 L 0.390625 -0.953125 L 0.390625 -0.3125 C 0.390625 -0.1875 0.445312 -0.125 0.5625 -0.125 C 0.613281 -0.125 0.660156 -0.140625 0.703125 -0.171875 Z M 0.734375 -0.171875 "/></g></g><g transform="translate(1.68406, 2.804254)"><g><path d="M 0.265625 -1.28125 C 0.234375 -1.28125 0.207031 -1.289062 0.1875 -1.3125 C 0.164062 -1.332031 0.15625 -1.359375 0.15625 -1.390625 C 0.15625 -1.429688 0.164062 -1.460938 0.1875 -1.484375 C 0.207031 -1.503906 0.234375 -1.515625 0.265625 -1.515625 C 0.296875 -1.515625 0.320312 -1.503906 0.34375 -1.484375 C 0.363281 -1.460938 0.375 -1.429688 0.375 -1.390625 C 0.375 -1.359375 0.363281 -1.332031 0.34375 -1.3125 C 0.320312 -1.289062 0.296875 -1.28125 0.265625 -1.28125 Z M 0.1875 0 L 0.1875 -1.078125 L 0.34375 -1.078125 L 0.34375 0 Z M 0.1875 0 "/></g></g><g transform="translate(2.218241, 2.804254)"><g><path d="M 0.625 0.015625 C 0.519531 0.015625 0.429688 -0.00390625 0.359375 -0.046875 C 0.285156 -0.0859375 0.226562 -0.148438 0.1875 -0.234375 C 0.144531 -0.316406 0.125 -0.414062 0.125 -0.53125 C 0.125 -0.65625 0.144531 -0.757812 0.1875 -0.84375 C 0.226562 -0.925781 0.285156 -0.988281 0.359375 -1.03125 C 0.429688 -1.070312 0.519531 -1.09375 0.625 -1.09375 C 0.738281 -1.09375 0.828125 -1.070312 0.890625 -1.03125 C 0.953125 -0.988281 1 -0.929688 1.03125 -0.859375 L 0.921875 -0.78125 L 0.90625 -0.78125 C 0.875 -0.84375 0.835938 -0.882812 0.796875 -0.90625 C 0.753906 -0.9375 0.695312 -0.953125 0.625 -0.953125 C 0.550781 -0.953125 0.488281 -0.9375 0.4375 -0.90625 C 0.394531 -0.875 0.359375 -0.828125 0.328125 -0.765625 C 0.296875 -0.703125 0.28125 -0.625 0.28125 -0.53125 C 0.28125 -0.445312 0.296875 -0.375 0.328125 -0.3125 C 0.359375 -0.25 0.394531 -0.203125 0.4375 -0.171875 C 0.488281 -0.140625 0.550781 -0.125 0.625 -0.125 C 0.695312 -0.125 0.753906 -0.140625 0.796875 -0.171875 C 0.847656 -0.203125 0.890625 -0.253906 0.921875 -0.328125 L 0.9375 -0.328125 L 1.046875 -0.265625 C 1.015625 -0.179688 0.960938 -0.113281 0.890625 -0.0625 C 0.816406 -0.0078125 0.726562 0.015625 0.625 0.015625 Z M 0.625 0.015625 "/></g></g><g transform="translate(3.328594, 2.804254)"><g><path d="M 0.1875 0 L 0.1875 -1.515625 L 0.34375 -1.515625 L 0.34375 -0.625 L 0.375 -0.625 L 0.78125 -1.078125 L 0.9375 -1.078125 L 0.9375 -1.0625 L 0.515625 -0.578125 L 0.984375 -0.03125 L 0.984375 0 L 0.796875 0 L 0.375 -0.5 L 0.34375 -0.5 L 0.34375 0 Z M 0.1875 0 "/></g></g><g transform="translate(4.330548, 2.804254)"><g><path d="M 1.03125 -0.5 L 0.28125 -0.5 C 0.289062 -0.375 0.320312 -0.28125 0.375 -0.21875 C 0.4375 -0.15625 0.519531 -0.125 0.625 -0.125 C 0.695312 -0.125 0.753906 -0.132812 0.796875 -0.15625 C 0.847656 -0.1875 0.890625 -0.234375 0.921875 -0.296875 L 0.9375 -0.296875 L 1.046875 -0.234375 C 1.015625 -0.148438 0.960938 -0.0859375 0.890625 -0.046875 C 0.816406 -0.00390625 0.726562 0.015625 0.625 0.015625 C 0.519531 0.015625 0.425781 -0.00390625 0.34375 -0.046875 C 0.269531 -0.0859375 0.210938 -0.148438 0.171875 -0.234375 C 0.140625 -0.316406 0.125 -0.414062 0.125 -0.53125 C 0.125 -0.65625 0.144531 -0.757812 0.1875 -0.84375 C 0.226562 -0.925781 0.285156 -0.988281 0.359375 -1.03125 C 0.429688 -1.070312 0.515625 -1.09375 0.609375 -1.09375 C 0.742188 -1.09375 0.847656 -1.050781 0.921875 -0.96875 C 1.003906 -0.894531 1.046875 -0.785156 1.046875 -0.640625 C 1.046875 -0.578125 1.046875 -0.535156 1.046875 -0.515625 Z M 0.890625 -0.640625 C 0.890625 -0.753906 0.863281 -0.835938 0.8125 -0.890625 C 0.769531 -0.941406 0.703125 -0.96875 0.609375 -0.96875 C 0.515625 -0.96875 0.441406 -0.941406 0.390625 -0.890625 C 0.335938 -0.835938 0.304688 -0.753906 0.296875 -0.640625 Z M 0.890625 -0.640625 "/></g></g><g transform="translate(5.478987, 2.804254)"><g><path d="M 0.734375 -0.171875 L 0.78125 -0.0625 C 0.75 -0.03125 0.710938 -0.0078125 0.671875 0 C 0.640625 0.0078125 0.597656 0.015625 0.546875 0.015625 C 0.335938 0.015625 0.234375 -0.0859375 0.234375 -0.296875 L 0.234375 -0.953125 L 0.046875 -0.953125 L 0.046875 -1.078125 L 0.234375 -1.078125 L 0.234375 -1.3125 L 0.390625 -1.328125 L 0.390625 -1.078125 L 0.75 -1.078125 L 0.75 -0.953125 L 0.390625 -0.953125 L 0.390625 -0.3125 C 0.390625 -0.1875 0.445312 -0.125 0.5625 -0.125 C 0.613281 -0.125 0.660156 -0.140625 0.703125 -0.171875 Z M 0.734375 -0.171875 "/></g></g><g transform="translate(6.2993, 2.804254)"><g><path d="M 0.484375 0.015625 C 0.421875 0.015625 0.359375 0.0078125 0.296875 0 C 0.242188 -0.0195312 0.195312 -0.046875 0.15625 -0.078125 C 0.113281 -0.109375 0.0859375 -0.144531 0.078125 -0.1875 L 0.171875 -0.28125 L 0.1875 -0.28125 C 0.21875 -0.226562 0.257812 -0.1875 0.3125 -0.15625 C 0.363281 -0.132812 0.421875 -0.125 0.484375 -0.125 C 0.566406 -0.125 0.628906 -0.140625 0.671875 -0.171875 C 0.710938 -0.203125 0.734375 -0.242188 0.734375 -0.296875 C 0.734375 -0.335938 0.71875 -0.367188 0.6875 -0.390625 C 0.664062 -0.421875 0.628906 -0.445312 0.578125 -0.46875 L 0.390625 -0.515625 C 0.296875 -0.535156 0.222656 -0.570312 0.171875 -0.625 C 0.128906 -0.675781 0.109375 -0.738281 0.109375 -0.8125 C 0.109375 -0.863281 0.125 -0.910156 0.15625 -0.953125 C 0.1875 -1.003906 0.226562 -1.039062 0.28125 -1.0625 C 0.34375 -1.082031 0.410156 -1.09375 0.484375 -1.09375 C 0.585938 -1.09375 0.664062 -1.078125 0.71875 -1.046875 C 0.78125 -1.023438 0.828125 -0.988281 0.859375 -0.9375 L 0.765625 -0.859375 L 0.75 -0.859375 C 0.71875 -0.890625 0.679688 -0.914062 0.640625 -0.9375 C 0.597656 -0.957031 0.546875 -0.96875 0.484375 -0.96875 C 0.421875 -0.96875 0.367188 -0.953125 0.328125 -0.921875 C 0.285156 -0.898438 0.265625 -0.863281 0.265625 -0.8125 C 0.265625 -0.769531 0.273438 -0.734375 0.296875 -0.703125 C 0.328125 -0.679688 0.378906 -0.660156 0.453125 -0.640625 L 0.625 -0.609375 C 0.71875 -0.585938 0.785156 -0.550781 0.828125 -0.5 C 0.867188 -0.445312 0.890625 -0.378906 0.890625 -0.296875 C 0.890625 -0.234375 0.875 -0.175781 0.84375 -0.125 C 0.8125 -0.0820312 0.765625 -0.046875 0.703125 -0.015625 C 0.648438 0.00390625 0.578125 0.015625 0.484375 0.015625 Z M 0.484375 0.015625 "/></g></g></g></g></g></g><g clip-path="url(#15e82372fd)"><path fill="#ffffff" d="M 632.042969 484.5625 C 632.042969 517.976562 658.289062 545.246094 691.191406 546.910156 L 691.191406 599.144531 C 691.191406 608.105469 683.894531 615.402344 674.929688 615.402344 L 583.648438 615.402344 L 583.648438 353.722656 L 674.929688 353.722656 C 683.894531 353.722656 691.191406 361.019531 691.191406 369.980469 L 691.191406 422.214844 C 658.289062 423.878906 632.042969 451.277344 632.042969 484.5625 Z M 632.042969 484.5625 " fill-opacity="1" fill-rule="nonzero"/></g><g clip-path="url(#75b7b46d30)"><path fill="#ffffff" d="M 219.292969 353.722656 C 210.328125 353.722656 203.03125 361.019531 203.03125 369.980469 L 203.03125 422.726562 C 233.246094 427.078125 256.546875 453.066406 256.546875 484.5625 C 256.546875 515.929688 233.246094 542.046875 203.03125 546.398438 L 203.03125 599.144531 C 203.03125 608.105469 210.328125 615.402344 219.292969 615.402344 L 565.984375 615.402344 L 565.984375 353.722656 Z M 430.402344 546.140625 L 294.699219 546.140625 C 289.832031 546.140625 285.863281 542.171875 285.863281 537.308594 C 285.863281 532.445312 289.832031 528.476562 294.699219 528.476562 L 430.402344 528.476562 C 435.269531 528.476562 439.238281 532.445312 439.238281 537.308594 C 439.238281 542.171875 435.269531 546.140625 430.402344 546.140625 Z M 494.671875 493.394531 L 294.699219 493.394531 C 289.832031 493.394531 285.863281 489.425781 285.863281 484.5625 C 285.863281 479.699219 289.832031 475.726562 294.699219 475.726562 L 494.671875 475.726562 C 499.539062 475.726562 503.507812 479.699219 503.507812 484.5625 C 503.507812 489.425781 499.539062 493.394531 494.671875 493.394531 Z M 494.671875 440.777344 L 294.699219 440.777344 C 289.832031 440.777344 285.863281 436.808594 285.863281 431.945312 C 285.863281 427.078125 289.832031 423.109375 294.699219 423.109375 L 494.671875 423.109375 C 499.539062 423.109375 503.507812 427.078125 503.507812 431.945312 C 503.507812 436.808594 499.539062 440.777344 494.671875 440.777344 Z M 494.671875 440.777344 " fill-opacity="1" fill-rule="nonzero"/></g><g clip-path="url(#1ceaf25178)"><path fill="#ffffff" d="M 238.75 484.5625 C 238.75 509.144531 218.78125 529.242188 194.070312 529.242188 C 189.207031 529.242188 185.238281 533.210938 185.238281 538.078125 L 185.238281 557.664062 L 179.859375 559.710938 C 171.410156 562.914062 162.0625 558.6875 158.863281 550.238281 L 140.171875 500.949219 C 166.929688 486.226562 179.476562 453.582031 168.335938 424.132812 C 157.199219 394.816406 126.089844 378.6875 96.386719 385.34375 L 77.824219 336.179688 C 76.289062 332.085938 76.414062 327.730469 78.207031 323.761719 C 80 319.792969 83.203125 316.722656 87.296875 315.183594 L 411.457031 192.28125 L 465.996094 336.054688 L 219.292969 336.054688 C 200.601562 336.054688 185.238281 351.289062 185.238281 370.109375 L 185.238281 431.046875 C 185.238281 435.914062 189.207031 439.882812 194.070312 439.882812 C 218.78125 439.882812 238.75 459.980469 238.75 484.5625 Z M 238.75 484.5625 " fill-opacity="1" fill-rule="nonzero"/></g><g clip-path="url(#d4beafe4c4)"><path fill="#ffffff" d="M 599.78125 336.054688 L 484.429688 336.054688 C 484.429688 335.285156 484.175781 334.390625 483.917969 333.492188 L 427.972656 186.007812 L 513.363281 153.617188 C 517.460938 152.082031 521.8125 152.210938 525.78125 154.003906 C 529.75 155.792969 532.824219 158.996094 534.359375 163.09375 L 552.925781 211.871094 C 522.710938 225.183594 507.859375 260.007812 519.636719 291.117188 C 525.527344 306.734375 537.175781 319.027344 552.410156 325.941406 C 566.621094 332.339844 582.371094 333.238281 597.09375 328.5 Z M 599.78125 336.054688 " fill-opacity="1" fill-rule="nonzero"/></g></svg>