<svg xmlns="http://www.w3.org/2000/svg" xmlns:xlink="http://www.w3.org/1999/xlink" width="1024" zoomAndPan="magnify" viewBox="0 0 768 767.999994" height="1024" preserveAspectRatio="xMidYMid meet" version="1.0"><defs><clipPath id="97ebe76a2c"><path d="M 114.210938 115.191406 L 653.460938 115.191406 L 653.460938 652.941406 L 114.210938 652.941406 Z M 114.210938 115.191406 " clip-rule="nonzero"/></clipPath></defs><g clip-path="url(#97ebe76a2c)"><path fill="#ffffff" d="M 624.351562 162.09375 C 588.246094 122.746094 526.261719 116.101562 481.773438 147.5625 C 490.636719 156.125 499.324219 164.605469 508.097656 172.988281 C 516.871094 181.371094 525.757812 189.714844 534.609375 198.054688 L 532.132812 200.992188 C 495.3125 172.902344 453.667969 157.007812 407.351562 151.9375 L 407.351562 115.320312 L 360.257812 115.320312 L 360.257812 152.203125 C 313.339844 156.875 272.199219 173.679688 233.972656 198.890625 C 251.324219 181.828125 268.71875 164.734375 286.148438 147.613281 C 242.628906 116.023438 179.765625 122.703125 143.789062 162.074219 C 108.316406 200.886719 103.933594 261.699219 135.101562 298.480469 C 143.898438 289.425781 152.542969 280.367188 161.371094 271.5 C 169.894531 262.945312 178.613281 254.582031 188.929688 244.484375 C 112.238281 367.472656 123.882812 478.769531 222.554688 582.597656 C 209.886719 594.886719 196.914062 607.171875 184.296875 619.808594 C 173.710938 630.398438 172.78125 640.34375 181.027344 647.984375 C 189.015625 655.394531 199.457031 653.984375 209.734375 643.917969 C 221.558594 632.335938 233.648438 620.980469 244.878906 608.84375 C 250.148438 603.144531 253.820312 603.316406 260.320312 606.917969 C 342.8125 652.394531 425.347656 652.324219 507.933594 606.714844 C 514.742188 602.9375 518.375 603.710938 523.386719 609.039062 C 534.445312 620.777344 546.078125 631.945312 557.558594 643.257812 C 568.527344 654.070312 578.988281 655.589844 587.195312 647.71875 C 595.558594 639.707031 594.1875 629.902344 582.582031 618.628906 C 569.898438 606.308594 556.914062 594.300781 545.03125 583.089844 C 644.300781 477.574219 655.503906 366.363281 581.890625 244.910156 L 633.457031 297.953125 C 663.867188 261.1875 659.574219 200.480469 624.351562 162.09375 Z M 384.285156 593.035156 C 275.890625 592.890625 186.554688 503.644531 186.761719 395.785156 C 186.972656 287.304688 275.792969 198.683594 384.308594 198.675781 C 492.347656 198.675781 581.574219 288.3125 581.148438 396.476562 C 580.722656 504.082031 491.476562 593.191406 384.285156 593.035156 Z M 384.285156 593.035156 " fill-opacity="1" fill-rule="nonzero"/></g><path fill="#ffffff" d="M 430.484375 422.359375 C 420.171875 411.699219 406.320312 403.304688 406.097656 385.75 C 406.074219 383.921875 403.554688 382.25 402.777344 380.277344 C 400.410156 374.207031 396.496094 368.035156 396.398438 361.882812 C 395.800781 324.847656 396.101562 287.800781 396.101562 250.761719 L 396.101562 237.164062 L 371.84375 237.164062 L 371.84375 251.773438 C 371.84375 286.640625 371.84375 321.503906 371.84375 356.367188 C 371.84375 365.820312 372.988281 375.074219 364.109375 382.503906 C 360.871094 385.21875 358.621094 393.011719 360.132812 396.804688 C 365.390625 409.964844 357.761719 416.699219 349.710938 424.40625 C 335.539062 437.949219 322.023438 452.167969 308.023438 465.894531 C 295.019531 478.648438 281.738281 491.128906 268.582031 503.726562 L 271.996094 508.945312 C 275.371094 507.246094 279.453125 506.269531 282.011719 503.746094 C 307.429688 478.652344 332.605469 453.324219 357.828125 428.035156 C 371.089844 414.738281 382.921875 414.707031 396.234375 427.996094 C 409.1875 440.921875 422.144531 453.847656 435.101562 466.769531 C 441.117188 472.746094 447.234375 478.613281 452.871094 484.144531 L 473.304688 465.1875 C 458.167969 450.0625 444.105469 436.421875 430.484375 422.359375 Z M 430.484375 422.359375 " fill-opacity="1" fill-rule="nonzero"/></svg>