<svg id="Layer_1" data-name="Layer 1" xmlns="http://www.w3.org/2000/svg" viewBox="45.42755126953125 195.90234375 757.1258544921875 247.01229858398438" width="800" height="261" style="">
  <defs>
    <style>
      .cls-1 {
        fill: #677c45;
      }

      .cls-2 {
        font-size: 68px;
      }

      .cls-2, .cls-3, .cls-4 {
        fill: #fff;
      }

      .cls-2, .cls-4 {
        font-family: Calibri-Bold, Calibri;
        font-weight: 700;
      }

      .cls-4 {
        font-size: 73.37px;
      }

      .cls-5 {
        fill: #d3413d;
      }
    </style>
  </defs>
  <g>
    <path class="cls-5" d="M145.45,317.47c1.83,7.14,4.48,14.05,7.97,20.53,1.5,2.8,6.55,7.94,2.35,10.63-5.2,3.33-8.26-4.29-9.74-7.83-2.96-7.09-3.75-14.62-6.2-21.35-.79-2.19-2.43-1.7-4.52-1.6-5.96.29-14.29,2.34-20.09,4.01-4.32,1.24-8.57,3.25-12.9,4.13-1.86-.83-.09-4.78.17-6.53.35-2.41,1.24-5.83-.45-7.75l-35.76-22.78-1.52-1.58c-.22-.82.44-1.18.92-1.64,3.15-3,11.63-4.78,8.04-10.35l-10.47-19.98c.23-.87.66-1.52,1.65-1.47l17.99,4.66c3.28-.2,1.91-6.24,4.49-5.72,4.18,2.48,8.11,6.91,12.41,9.05,1.16.58,2.09,1.17,3.51.79.36-.63.3-1.11.2-1.78-1.6-10.11-7.45-21.89-9.63-32.13-.36-1.24.23-2.47,1.61-2.39,1.62.1,6.61,3.55,9,4.04,3.5.73,4.36-1.7,5.71-4.29,3.87-7.44,6.78-15.76,10.75-23.2.73-.95,2.05-.6,2.65.36l11.45,22.6c3.58,5.32,10.51-3.66,14.25-5.04.69-.25,1.51-.46,2.11.15l.34,35.63c.46,1.42,2.28,1.9,3.55,1.21,4.55-3.27,8.24-8.09,13-11.11.94-.6,2.22-1.94,3.17-.65-7.71,17.52-10.36,38.38-2.85,56.43.62,1.49,4.18,7.66,3.96,8.53-6.96,6.7-17.99,6.52-27.11,6.4ZM137.8,300.63l-9.31-34.5-5.61-26.33c2.08,20.36,6.5,40.37,11.86,60.07l-37.49-20.85c3.23,2.42,6.6,4.65,9.98,6.86,5.88,3.83,26.56,15.1,29.6,19.38.97,1.36,1.31,3.14,2.05,4.46,1.03,1.84,1.8,1.07,1.61-.84-.16-1.53-1.15-3.35-1.15-4.6,0-2.06,4.4-10.77,5.6-13.15,2.09-4.16,4.65-8.08,6.65-12.29-3.85,4.44-7.16,9.89-10.01,15.05-1.22,2.21-2.07,4.94-3.76,6.76Z"/>
    <path class="cls-3" d="M168.22,437.61l-.78-1.13c.21-12.86-.87-26.43-.19-39.25,1.68-31.71,21.99-35.03,42.11-52.4,3.68-3.18,10.28-10.92,14.52-12.26,4.25-1.34,8.46,1.6,8.46,6.13,0,4.45-5.27,12.18-8.07,15.68-4.1,5.12-9.04,9.45-13.76,13.97,14.54-6.57,29.96-12.43,38.08-27.15,5.07-9.19,6.51-22.81,11.5-30.59,3.47-5.41,12.58-7.46,11.22,1.65-6.22,24.22-7.29,48.21-27.12,65.86-9.25,8.23-20.64,12.97-30.2,20.31-13.79,10.58-7.02,21.96-6.16,36.32.06.99.27,2.23-.57,2.87h-39.03Z"/>
    <path class="cls-3" d="M116.95,437.61c-.28-.08-.95-.89-.92-1.31.66-9.57,5.42-22.32.51-31.18-4.64-8.38-27.02-18.61-35.75-26.23-20.63-18-21.92-41.98-28.27-67-1.14-7.33,5.52-7.12,9.72-3.22,4.75,4.4,9.02,25.05,13.37,32.92,7.93,14.35,23.05,20.09,37.31,26.39-6.56-5.6-21.66-20.66-21.39-29.61.14-4.56,4.53-7.11,8.68-5.69s10.58,9.02,14.23,12.16c13.28,11.46,32.56,18.95,39.04,36.33,6.17,16.53,1.61,38.02,3.08,55.5l-.09.5c-.28.06-.76.45-.9.45h-38.64Z"/>
    <path class="cls-1" d="M195.96,314.02c3.61-5.09,7.02-11.18,9.76-16.83,2.71-5.58,5.29-10.93,3.92-17.33-1.17-5.43-7-8.22-10.63-12.32-10.2-11.55-15.37-28.98-12.61-44.2,12.71,6.12,21.34,18.27,23.99,32.06,1.3,6.77.32,15.03,1.75,20.82.1.38.11,1.15.65,1.06.83-5.91,3.7-12.29,4.21-18.18.48-5.54-1.65-10.58-1.92-16.05-.66-13.06,5.51-30.15,16.08-38.28.38-.3.49-.74,1.15-.57.48,3.15,1.48,6.24,1.87,9.42,1.56,12.88-1.75,26.24-8.82,37-.84,1.28-2.19,2.42-2.93,3.58-3.05,4.76-5.28,20.51-6.75,26.92-.62,2.69-1.2,5.42-2.11,8.03,2.16-2.66,9.14-7.71,10.35-10.49.76-1.75-.18-4.26.02-6.49.58-6.59,5.58-13.12,11.17-16.37,8.93-5.19,19.85-4.38,19.02,8.31-.7,10.66-13.01,20.33-23.51,18.89-1.75-.24-3.57-2.13-5.03-1.14-7.51,9.42-16.83,17.6-21.97,28.72,6.95-6.8,14.72-12.42,24.02-15.58,8.12-2.75,18.51-3.74,27.02-2.75.39.05,1.61.17,1.34.88-.64,1.66-4.87,6.71-6.27,8.27-12.24,13.72-25.98,19.49-44.4,19.14-4.5-.09-6.72-1.7-10.52,2.08-4.69,4.68-8.57,10.28-13.76,14.94-1.42,1.28-6.4,5.6-7.95,5.86-2.33.39-4.47-2.09-3.17-4.36.77-1.33,8.28-6.5,10.17-8.2,2.38-2.14,12-11.51,12.4-13.99M220.82,251.27l6.89-28.69c-.66.1-.67.76-.87,1.23-2.82,6.67-5.84,18.17-6.39,25.36-.03.45-.32,2.09.37,2.1ZM208.58,271.17c-1.11-10.82-6.01-21.45-12.24-30.22l12.24,30.22ZM240.24,273.95c-2.22-2.41-8.8,1.83-6.98,4.88,1.6,2.68,9.58-2.06,6.98-4.88ZM236.89,300.63c-10.39,2.73-20.18,7.35-29.72,12.17l-5.86,3.89,35.58-16.06Z"/>
    <path class="cls-3" d="M89.97,352.28c-13.02-8.56-17.61-24.94-20.66-39.41,3.35.02,6.05,3.77,7.47,6.49,3.59,6.92,5.23,15.96,8.42,23.33,1.42,3.27,3.36,6.31,4.77,9.58Z"/>
    <path class="cls-3" d="M233.84,352.28l4.77-9.2c3.45-6.43,6.93-27.75,14.34-30.04.69-.21,1.82-.45,1.79.62-.06,1.84-2.14,8.04-2.81,10.22-3.33,10.74-8.13,22.34-18.08,28.4Z"/>
    <path class="cls-3" d="M137.8,300.63c1.69-1.82,2.53-4.55,3.76-6.76,2.85-5.16,6.16-10.61,10.01-15.05-2,4.21-4.55,8.13-6.65,12.29-1.2,2.39-5.61,11.09-5.6,13.15,0,1.24,1,3.07,1.15,4.6.19,1.91-.57,2.68-1.61.84-.74-1.31-1.08-3.09-2.05-4.46-3.04-4.28-23.71-15.54-29.6-19.38-3.38-2.2-6.75-4.44-9.98-6.86l37.49,20.85c-5.36-19.7-9.77-39.71-11.86-60.07l5.61,26.33,9.31,34.5Z"/>
    <path class="cls-3" d="M236.89,300.63l-35.58,16.06,5.86-3.89c9.54-4.83,19.32-9.44,29.72-12.17Z"/>
    <path class="cls-3" d="M208.58,271.17l-12.24-30.22c6.23,8.78,11.12,19.41,12.24,30.22Z"/>
    <path class="cls-3" d="M240.24,273.95c2.6,2.82-5.38,7.56-6.98,4.88-1.82-3.05,4.76-7.29,6.98-4.88Z"/>
    <path class="cls-3" d="M220.82,251.27c-.69,0-.41-1.65-.37-2.1.55-7.19,3.57-18.69,6.39-25.36.2-.47.21-1.13.87-1.23l-6.89,28.69Z"/>
    <path class="cls-1" d="M188.36,289.79c-1.41,4.26-.99,9.96,1.73,13.63.93,1.26,2.57,2.13,2.98,3.39.65,2-.62,10.05-.61,10.22l3.1,3.42c-.09-4.24.07-8.51-.15-12.76.3-1.17,2.12-1.04,3.13-1.72,6.11-4.08,8.05-14.75,3.51-20.61-5.41-6.98-11.45-2.37-13.69,4.43ZM198,302.59c-2.36-.74-.89-5.98,1.37-5.75,2.64.27.68,6.42-1.37,5.75Z"/>
  </g>
  <g>
    <text class="cls-4" transform="translate(295.28 301.4)"><tspan x="0" y="0">HANDS OF HOPE </tspan></text>
    <text class="cls-2" transform="translate(305.33 374.72)"><tspan x="0" y="0">أيــــــــــــــــــــــــــــادي الأمــــــــــــــــــــــــــــــــــــــل</tspan><tspan x="487.65" y="0"> </tspan></text>
  </g>
</svg>