<svg xmlns="http://www.w3.org/2000/svg" xmlns:xlink="http://www.w3.org/1999/xlink" width="890" zoomAndPan="magnify" viewBox="0 0 667.5 314.999992" height="420" preserveAspectRatio="xMidYMid meet" version="1.0"><defs><clipPath id="7bfe252560"><path d="M 98 9.417969 L 126 9.417969 L 126 38 L 98 38 Z M 98 9.417969 " clip-rule="nonzero"/></clipPath><clipPath id="6a9e26c0b4"><path d="M 131 106 L 150 106 L 150 127.078125 L 131 127.078125 Z M 131 106 " clip-rule="nonzero"/></clipPath><clipPath id="46f054c8f7"><path d="M 196 21 L 209.886719 21 L 209.886719 38 L 196 38 Z M 196 21 " clip-rule="nonzero"/></clipPath><clipPath id="3e4a4b7779"><path d="M 14 98.511719 L 41 98.511719 L 41 127 L 14 127 Z M 14 98.511719 " clip-rule="nonzero"/></clipPath><clipPath id="d6a0ea4b29"><path d="M 47 195 L 65 195 L 65 216.171875 L 47 216.171875 Z M 47 195 " clip-rule="nonzero"/></clipPath><clipPath id="8b6f231c48"><path d="M 112 110 L 125.53125 110 L 125.53125 127 L 112 127 Z M 112 110 " clip-rule="nonzero"/></clipPath></defs><path fill="#000000" d="M 183.597656 55.792969 C 181.847656 56.773438 181.515625 56.164062 180.03125 57.519531 C 179.191406 58.285156 177.640625 56.085938 176.945312 54.214844 C 176.101562 51.933594 176.433594 51.757812 174.605469 49.320312 L 174.566406 49.722656 C 172.949219 47.996094 172.128906 46.445312 169.648438 44.199219 C 168.21875 42.902344 165.695312 41.660156 164.546875 40.722656 C 164.398438 41.304688 163.816406 42.328125 165.699219 45.96875 C 168.054688 50.527344 168.707031 51.320312 169.046875 51.734375 C 168.347656 51.609375 168.367188 51.597656 167.710938 51.292969 C 168.441406 53.628906 169.398438 53.144531 170.136719 55.480469 C 171.703125 60.433594 173.765625 60.121094 173.128906 62.152344 C 172.5625 63.953125 168.820312 65.351562 167.664062 65.871094 C 168.703125 68.222656 169.671875 67.515625 170.808594 67.144531 C 170.5625 67.390625 170.316406 67.636719 170.066406 67.882812 C 170.25 68.429688 170.238281 68.667969 170.785156 68.472656 C 174.683594 67.058594 176.4375 63.753906 176.832031 63.742188 C 177.6875 63.714844 178.824219 64.304688 180.308594 64.382812 C 181.039062 64.421875 182.222656 63.953125 185.417969 65.125 C 187.4375 65.867188 188.394531 66.984375 188.59375 67.214844 C 188.636719 66.734375 189.199219 65.0625 187.660156 62.882812 C 185.847656 60.308594 184.421875 60.199219 182.058594 59.964844 C 182.558594 58.75 182.835938 58.839844 182.953125 57.542969 C 183.003906 56.960938 183.378906 56.335938 183.597656 55.792969 Z M 183.597656 55.792969 " fill-opacity="1" fill-rule="nonzero"/><path fill="#000000" d="M 103.289062 94.179688 C 102.207031 94.785156 102.003906 94.40625 101.089844 95.246094 C 100.574219 95.71875 99.617188 94.359375 99.1875 93.207031 C 98.667969 91.800781 98.871094 91.695312 97.746094 90.191406 L 97.722656 90.4375 C 96.722656 89.375 96.21875 88.417969 94.691406 87.035156 C 93.808594 86.234375 92.253906 85.46875 91.546875 84.890625 C 91.453125 85.25 91.097656 85.878906 92.257812 88.125 C 93.707031 90.933594 94.109375 91.425781 94.320312 91.679688 C 93.886719 91.601562 93.898438 91.59375 93.496094 91.40625 C 93.949219 92.847656 94.535156 92.546875 94.992188 93.988281 C 95.957031 97.039062 97.226562 96.847656 96.835938 98.097656 C 96.488281 99.210938 94.179688 100.070312 93.46875 100.394531 C 94.109375 101.84375 94.707031 101.40625 95.40625 101.179688 C 95.253906 101.328125 95.101562 101.480469 94.949219 101.632812 C 95.0625 101.96875 95.054688 102.117188 95.390625 101.996094 C 97.792969 101.125 98.875 99.089844 99.121094 99.078125 C 99.644531 99.0625 100.347656 99.425781 101.261719 99.476562 C 101.710938 99.5 102.441406 99.210938 104.410156 99.933594 C 105.65625 100.390625 106.246094 101.078125 106.367188 101.222656 C 106.394531 100.925781 106.742188 99.894531 105.792969 98.550781 C 104.675781 96.964844 103.796875 96.898438 102.339844 96.753906 C 102.648438 96.003906 102.820312 96.058594 102.890625 95.257812 C 102.921875 94.898438 103.152344 94.515625 103.289062 94.179688 Z M 103.289062 94.179688 " fill-opacity="1" fill-rule="nonzero"/><path fill="#000000" d="M 156.941406 77.527344 C 156.625 77.433594 156.277344 77.28125 155.867188 77.023438 C 153.902344 75.800781 152.816406 75.882812 151.449219 75.8125 C 146.53125 75.546875 147.199219 77.765625 144.664062 79.75 C 144.03125 80.246094 143.679688 80.679688 143.527344 79.886719 C 143.347656 79.992188 141.648438 80.984375 141.105469 80.929688 C 140.265625 80.84375 140.546875 80.398438 141.167969 79.832031 C 139.5625 80.148438 138.683594 80.824219 137.300781 78.09375 C 143.089844 76.054688 143.933594 74.246094 144.210938 73.648438 C 145.144531 71.648438 142.898438 72.269531 141.019531 68.140625 C 139.070312 63.859375 138.269531 64.484375 134.632812 61.515625 L 136.050781 62.105469 C 133.675781 59.644531 133.683594 59.636719 131.90625 56.707031 C 130.703125 54.726562 130.800781 53.480469 130.824219 53.1875 C 133.828125 54.574219 133.902344 54.410156 135.140625 55.226562 C 136.242188 55.949219 137.554688 57.054688 138.269531 57.253906 C 138.871094 57.417969 138.339844 56.9375 138.472656 56.339844 C 142.675781 59.109375 143.84375 58.695312 146.933594 62.042969 C 148.453125 63.691406 148.589844 66.683594 149.535156 67.722656 C 151.554688 69.949219 152.226562 67.613281 153.46875 67.445312 C 154.855469 67.257812 154.875 67.253906 155.949219 66.339844 C 155.25 68.402344 155.433594 69.164062 154.378906 71.085938 C 154.773438 71.066406 156.746094 70.5625 159.0625 72.226562 C 161.996094 74.335938 160.515625 78.085938 160.515625 78.085938 C 159.359375 77.582031 158.667969 77.679688 157.953125 77.667969 C 156.90625 76.449219 155.707031 76.195312 155.640625 76.167969 C 156.214844 76.648438 156.660156 77.019531 156.941406 77.527344 Z M 156.941406 77.527344 " fill-opacity="1" fill-rule="evenodd"/><g clip-path="url(#7bfe252560)"><path fill="#000000" d="M 115.421875 28.324219 C 116.28125 27.175781 116.460938 27.183594 116.628906 26.0625 C 116.757812 25.1875 117.519531 24.652344 117.542969 24.632812 C 114.703125 23.09375 113.84375 26.132812 112.511719 25.019531 C 110.953125 23.714844 111.128906 21.960938 109.738281 20.4375 C 107.386719 17.863281 107.320312 17.941406 105.15625 15.1875 C 105.28125 15.800781 105.25 15.796875 105.453125 16.398438 C 104.011719 15.105469 104.058594 15.050781 103.285156 13.265625 C 103.308594 13.503906 103.332031 13.742188 103.355469 13.980469 C 101.828125 12.957031 100.628906 12.082031 99.085938 9.421875 C 98.925781 10.75 98.503906 10.910156 100.5 14.96875 C 103.101562 20.257812 103.242188 20.191406 105.042969 22.070312 L 104.582031 21.816406 C 105.210938 23.742188 105.882812 23.402344 108.113281 28.226562 C 108.785156 29.679688 106.074219 31.558594 104.882812 32.550781 C 105.949219 33.359375 106.007812 33.289062 106.867188 34.308594 C 107.25 34.089844 107.636719 33.867188 108.019531 33.648438 L 107.210938 34.53125 C 107.699219 35.171875 107.835938 34.722656 108.417969 34.179688 C 111.21875 31.558594 111.746094 31.484375 115.101562 33.335938 C 118.757812 35.355469 118.273438 36.761719 125.238281 37.488281 C 123.476562 36.078125 123.515625 35.949219 122.082031 34.199219 C 120.683594 32.488281 120.246094 31.242188 118.730469 30.441406 C 115.960938 28.980469 116.050781 28.464844 115.421875 28.324219 Z M 115.421875 28.324219 " fill-opacity="1" fill-rule="nonzero"/></g><path fill="#000000" d="M 67.476562 100.261719 C 68.023438 99.535156 68.136719 99.539062 68.242188 98.832031 C 68.324219 98.277344 68.804688 97.941406 68.820312 97.929688 C 67.023438 96.957031 66.480469 98.875 65.640625 98.171875 C 64.65625 97.347656 64.765625 96.242188 63.886719 95.277344 C 62.402344 93.652344 62.363281 93.699219 60.992188 91.960938 C 61.070312 92.347656 61.054688 92.347656 61.179688 92.726562 C 60.269531 91.910156 60.300781 91.875 59.8125 90.746094 C 59.824219 90.898438 59.839844 91.046875 59.855469 91.199219 C 58.890625 90.554688 58.132812 90 57.160156 88.316406 C 57.058594 89.15625 56.789062 89.257812 58.050781 91.824219 C 59.695312 95.164062 59.785156 95.121094 60.921875 96.308594 L 60.628906 96.148438 C 61.027344 97.367188 61.453125 97.152344 62.859375 100.199219 C 63.285156 101.117188 61.574219 102.304688 60.820312 102.929688 C 61.496094 103.441406 61.53125 103.398438 62.074219 104.042969 C 62.316406 103.902344 62.558594 103.761719 62.800781 103.625 L 62.292969 104.179688 C 62.601562 104.585938 62.6875 104.304688 63.054688 103.960938 C 64.824219 102.304688 65.15625 102.257812 67.277344 103.425781 C 69.585938 104.703125 69.28125 105.589844 73.679688 106.050781 C 72.566406 105.160156 72.589844 105.078125 71.6875 103.972656 C 70.800781 102.890625 70.527344 102.105469 69.566406 101.597656 C 67.820312 100.675781 67.875 100.347656 67.476562 100.261719 Z M 67.476562 100.261719 " fill-opacity="1" fill-rule="nonzero"/><g clip-path="url(#6a9e26c0b4)"><path fill="#000000" d="M 145.410156 127.394531 C 147.132812 126.132812 149.097656 123.171875 148.941406 120.210938 C 148.859375 118.621094 146.46875 118.816406 147.339844 117.824219 C 147.507812 117.632812 148.371094 117.265625 148.472656 117.121094 C 148.878906 116.539062 148.800781 116.484375 149.347656 116.019531 C 147.695312 116.050781 147.714844 115.882812 146.949219 115.730469 C 146.136719 115.566406 145.359375 116.503906 144.863281 115.203125 C 143.914062 112.699219 144.957031 112.003906 144.214844 110.65625 C 143.304688 109.003906 141.644531 108.476562 141.136719 108.242188 C 141.3125 108.488281 141.484375 108.734375 141.660156 108.980469 C 135.625 105.710938 134.09375 106.023438 131.671875 106.085938 C 133.632812 107.992188 134.191406 107.316406 135.996094 109.378906 L 135.332031 109.316406 C 137.246094 110.621094 137.683594 110.457031 138.882812 113.113281 C 138.984375 113.332031 138.941406 113.332031 138.964844 113.582031 C 139.019531 114.121094 140.417969 117.511719 139.460938 117.765625 C 137.097656 118.382812 134.539062 116.34375 134.195312 116.066406 C 134.503906 119.464844 135.714844 119.738281 136.359375 119.992188 C 136.039062 120.351562 136.035156 120.332031 135.65625 120.625 C 136.351562 120.734375 136.425781 120.601562 136.757812 121.222656 C 137.058594 121.78125 137.152344 121.824219 137.492188 122.640625 C 137.890625 122.191406 137.992188 122.046875 138.328125 121.738281 C 139.835938 120.378906 142.636719 119.671875 143.890625 120.480469 C 145.519531 121.53125 145.503906 125.472656 145.410156 127.394531 Z M 145.410156 127.394531 " fill-opacity="1" fill-rule="nonzero"/></g><g clip-path="url(#46f054c8f7)"><path fill="#000000" d="M 206.890625 37.488281 C 208.210938 36.523438 209.71875 34.25 209.597656 31.980469 C 209.535156 30.761719 207.703125 30.910156 208.371094 30.148438 C 208.496094 30.003906 209.160156 29.722656 209.238281 29.613281 C 209.550781 29.164062 209.492188 29.125 209.910156 28.765625 C 208.640625 28.789062 208.65625 28.664062 208.070312 28.542969 C 207.449219 28.417969 206.851562 29.140625 206.472656 28.140625 C 205.742188 26.21875 206.542969 25.6875 205.972656 24.65625 C 205.277344 23.386719 204.003906 22.984375 203.613281 22.804688 C 203.75 22.992188 203.882812 23.183594 204.015625 23.371094 C 199.390625 20.863281 198.214844 21.101562 196.359375 21.152344 C 197.859375 22.613281 198.289062 22.09375 199.671875 23.675781 L 199.164062 23.628906 C 200.628906 24.628906 200.964844 24.5 201.886719 26.539062 C 201.964844 26.707031 201.929688 26.707031 201.949219 26.898438 C 201.992188 27.3125 203.066406 29.914062 202.328125 30.105469 C 200.515625 30.578125 198.554688 29.015625 198.292969 28.804688 C 198.53125 31.40625 199.457031 31.617188 199.953125 31.8125 C 199.707031 32.089844 199.703125 32.074219 199.414062 32.300781 C 199.945312 32.382812 200.003906 32.28125 200.257812 32.757812 C 200.488281 33.1875 200.558594 33.214844 200.820312 33.84375 C 201.125 33.5 201.203125 33.386719 201.460938 33.152344 C 202.617188 32.109375 204.765625 31.570312 205.726562 32.1875 C 206.976562 32.992188 206.964844 36.015625 206.890625 37.488281 Z M 206.890625 37.488281 " fill-opacity="1" fill-rule="nonzero"/></g><path fill="#000000" d="M 99.242188 144.886719 C 97.492188 145.867188 97.160156 145.253906 95.671875 146.613281 C 94.835938 147.378906 93.28125 145.179688 92.589844 143.304688 C 91.746094 141.023438 92.078125 140.851562 90.25 138.410156 L 90.210938 138.8125 C 88.59375 137.089844 87.773438 135.539062 85.292969 133.292969 C 83.863281 131.996094 81.339844 130.75 80.191406 129.8125 C 80.042969 130.398438 79.460938 131.417969 81.34375 135.058594 C 83.699219 139.617188 84.351562 140.414062 84.691406 140.828125 C 83.992188 140.699219 84.011719 140.6875 83.355469 140.386719 C 84.085938 142.722656 85.042969 142.234375 85.78125 144.570312 C 87.347656 149.527344 89.410156 149.214844 88.773438 151.242188 C 88.207031 153.042969 84.464844 154.441406 83.308594 154.964844 C 84.347656 157.316406 85.316406 156.605469 86.453125 156.238281 C 86.207031 156.484375 85.960938 156.730469 85.710938 156.976562 C 85.894531 157.523438 85.882812 157.761719 86.429688 157.5625 C 90.328125 156.148438 92.082031 152.847656 92.476562 152.832031 C 93.332031 152.804688 94.46875 153.394531 95.953125 153.476562 C 96.683594 153.515625 97.867188 153.042969 101.0625 154.21875 C 103.082031 154.960938 104.039062 156.078125 104.238281 156.308594 C 104.28125 155.828125 104.84375 154.15625 103.304688 151.976562 C 101.492188 149.402344 100.066406 149.292969 97.703125 149.058594 C 98.203125 147.84375 98.480469 147.933594 98.597656 146.632812 C 98.648438 146.050781 99.023438 145.429688 99.242188 144.886719 Z M 99.242188 144.886719 " fill-opacity="1" fill-rule="nonzero"/><path fill="#000000" d="M 18.933594 183.273438 C 17.851562 183.878906 17.648438 183.5 16.734375 184.335938 C 16.21875 184.808594 15.261719 183.453125 14.832031 182.300781 C 14.3125 180.894531 14.515625 180.785156 13.390625 179.28125 L 13.367188 179.53125 C 12.367188 178.46875 11.863281 177.511719 10.335938 176.128906 C 9.453125 175.328125 7.898438 174.558594 7.191406 173.984375 C 7.097656 174.34375 6.742188 174.972656 7.902344 177.21875 C 9.351562 180.027344 9.753906 180.515625 9.964844 180.773438 C 9.53125 180.691406 9.542969 180.6875 9.140625 180.5 C 9.59375 181.9375 10.179688 181.640625 10.636719 183.078125 C 11.601562 186.132812 12.871094 185.941406 12.480469 187.191406 C 12.132812 188.300781 9.824219 189.164062 9.113281 189.484375 C 9.753906 190.933594 10.351562 190.496094 11.050781 190.269531 C 10.898438 190.421875 10.746094 190.574219 10.59375 190.726562 C 10.707031 191.0625 10.699219 191.210938 11.035156 191.085938 C 13.4375 190.214844 14.519531 188.179688 14.761719 188.171875 C 15.289062 188.15625 15.992188 188.519531 16.90625 188.566406 C 17.355469 188.59375 18.085938 188.300781 20.054688 189.023438 C 21.300781 189.484375 21.890625 190.171875 22.011719 190.3125 C 22.039062 190.015625 22.386719 188.988281 21.4375 187.644531 C 20.320312 186.058594 19.441406 185.988281 17.984375 185.84375 C 18.292969 185.09375 18.460938 185.152344 18.535156 184.351562 C 18.566406 183.992188 18.796875 183.609375 18.933594 183.273438 Z M 18.933594 183.273438 " fill-opacity="1" fill-rule="nonzero"/><path fill="#000000" d="M 72.585938 166.621094 C 72.269531 166.527344 71.921875 166.371094 71.511719 166.117188 C 69.546875 164.894531 68.460938 164.976562 67.09375 164.902344 C 62.175781 164.640625 62.84375 166.855469 60.308594 168.84375 C 59.675781 169.335938 59.324219 169.769531 59.171875 168.980469 C 58.992188 169.085938 57.292969 170.078125 56.75 170.023438 C 55.910156 169.933594 56.191406 169.488281 56.8125 168.925781 C 55.207031 169.238281 54.328125 169.917969 52.945312 167.183594 C 58.734375 165.144531 59.578125 163.339844 59.855469 162.742188 C 60.789062 160.738281 58.542969 161.359375 56.664062 157.234375 C 54.714844 152.949219 53.914062 153.578125 50.277344 150.609375 L 51.695312 151.195312 C 49.320312 148.738281 49.328125 148.730469 47.550781 145.800781 C 46.347656 143.820312 46.445312 142.574219 46.46875 142.28125 C 49.472656 143.664062 49.546875 143.503906 50.785156 144.316406 C 51.886719 145.039062 53.199219 146.148438 53.914062 146.34375 C 54.515625 146.511719 53.984375 146.027344 54.117188 145.429688 C 58.320312 148.203125 59.488281 147.785156 62.578125 151.136719 C 64.097656 152.78125 64.234375 155.777344 65.179688 156.816406 C 67.199219 159.039062 67.871094 156.707031 69.113281 156.539062 C 70.5 156.351562 70.519531 156.34375 71.59375 155.429688 C 70.894531 157.496094 71.078125 158.257812 70.023438 160.179688 C 70.417969 160.160156 72.390625 159.65625 74.707031 161.320312 C 77.640625 163.425781 76.160156 167.179688 76.160156 167.179688 C 75.003906 166.675781 74.3125 166.773438 73.597656 166.761719 C 72.550781 165.542969 71.351562 165.285156 71.285156 165.257812 C 71.859375 165.738281 72.304688 166.113281 72.585938 166.621094 Z M 72.585938 166.621094 " fill-opacity="1" fill-rule="evenodd"/><g clip-path="url(#3e4a4b7779)"><path fill="#000000" d="M 31.066406 117.417969 C 31.925781 116.265625 32.105469 116.277344 32.273438 115.15625 C 32.402344 114.277344 33.164062 113.746094 33.1875 113.726562 C 30.347656 112.1875 29.488281 115.226562 28.15625 114.109375 C 26.597656 112.804688 26.773438 111.054688 25.382812 109.527344 C 23.03125 106.953125 22.964844 107.035156 20.800781 104.277344 C 20.925781 104.894531 20.894531 104.890625 21.097656 105.492188 C 19.65625 104.199219 19.703125 104.144531 18.929688 102.355469 C 18.953125 102.597656 18.976562 102.835938 19 103.074219 C 17.472656 102.050781 16.273438 101.171875 14.730469 98.511719 C 14.570312 99.84375 14.144531 100.003906 16.144531 104.0625 C 18.746094 109.347656 18.886719 109.28125 20.6875 111.160156 L 20.226562 110.910156 C 20.855469 112.835938 21.527344 112.496094 23.757812 117.320312 C 24.429688 118.773438 21.71875 120.652344 20.527344 121.644531 C 21.59375 122.449219 21.652344 122.382812 22.511719 123.402344 C 22.894531 123.179688 23.277344 122.960938 23.664062 122.738281 L 22.855469 123.621094 C 23.34375 124.261719 23.480469 123.816406 24.0625 123.273438 C 26.863281 120.652344 27.390625 120.578125 30.746094 122.429688 C 34.402344 124.449219 33.917969 125.851562 40.882812 126.582031 C 39.121094 125.167969 39.160156 125.039062 37.726562 123.292969 C 36.324219 121.582031 35.890625 120.335938 34.371094 119.535156 C 31.605469 118.074219 31.695312 117.558594 31.066406 117.417969 Z M 31.066406 117.417969 " fill-opacity="1" fill-rule="nonzero"/></g><g clip-path="url(#d6a0ea4b29)"><path fill="#000000" d="M 61.050781 216.484375 C 62.777344 215.226562 64.742188 212.261719 64.585938 209.304688 C 64.5 207.714844 62.113281 207.90625 62.984375 206.914062 C 63.148438 206.726562 64.015625 206.359375 64.117188 206.214844 C 64.523438 205.632812 64.445312 205.578125 64.992188 205.109375 C 63.339844 205.140625 63.359375 204.976562 62.59375 204.820312 C 61.78125 204.660156 61.003906 205.597656 60.507812 204.292969 C 59.558594 201.789062 60.601562 201.097656 59.859375 199.75 C 58.949219 198.097656 57.289062 197.566406 56.78125 197.332031 C 56.957031 197.578125 57.128906 197.828125 57.304688 198.074219 C 51.269531 194.804688 49.738281 195.117188 47.316406 195.179688 C 49.277344 197.085938 49.835938 196.410156 51.640625 198.472656 L 50.976562 198.40625 C 52.890625 199.714844 53.328125 199.546875 54.527344 202.203125 C 54.628906 202.425781 54.585938 202.425781 54.609375 202.671875 C 54.664062 203.210938 56.0625 206.605469 55.105469 206.855469 C 52.742188 207.472656 50.183594 205.433594 49.839844 205.160156 C 50.148438 208.554688 51.359375 208.828125 52.003906 209.085938 C 51.683594 209.445312 51.679688 209.425781 51.300781 209.71875 C 51.996094 209.824219 52.070312 209.691406 52.402344 210.3125 C 52.703125 210.875 52.796875 210.914062 53.136719 211.734375 C 53.535156 211.285156 53.636719 211.136719 53.972656 210.832031 C 55.480469 209.46875 58.28125 208.765625 59.535156 209.574219 C 61.164062 210.625 61.148438 214.566406 61.050781 216.484375 Z M 61.050781 216.484375 " fill-opacity="1" fill-rule="nonzero"/></g><g clip-path="url(#8b6f231c48)"><path fill="#000000" d="M 122.535156 126.578125 C 123.855469 125.613281 125.363281 123.34375 125.242188 121.074219 C 125.179688 119.855469 123.347656 120.003906 124.015625 119.242188 C 124.140625 119.097656 124.804688 118.816406 124.882812 118.707031 C 125.195312 118.257812 125.136719 118.214844 125.554688 117.859375 C 124.285156 117.882812 124.300781 117.753906 123.714844 117.636719 C 123.09375 117.511719 122.496094 118.230469 122.117188 117.234375 C 121.386719 115.3125 122.1875 114.78125 121.617188 113.746094 C 120.921875 112.480469 119.648438 112.074219 119.257812 111.894531 C 119.394531 112.085938 119.527344 112.273438 119.660156 112.460938 C 115.035156 109.957031 113.859375 110.195312 112.003906 110.242188 C 113.503906 111.707031 113.933594 111.1875 115.316406 112.769531 L 114.808594 112.71875 C 116.273438 113.71875 116.609375 113.59375 117.53125 115.628906 C 117.609375 115.800781 117.574219 115.800781 117.59375 115.988281 C 117.636719 116.402344 118.710938 119.003906 117.972656 119.195312 C 116.160156 119.671875 114.199219 118.105469 113.9375 117.894531 C 114.175781 120.5 115.101562 120.710938 115.597656 120.90625 C 115.351562 121.179688 115.347656 121.164062 115.058594 121.390625 C 115.589844 121.472656 115.648438 121.371094 115.902344 121.847656 C 116.132812 122.277344 116.203125 122.308594 116.464844 122.9375 C 116.769531 122.59375 116.847656 122.480469 117.105469 122.246094 C 118.261719 121.199219 120.40625 120.660156 121.371094 121.28125 C 122.621094 122.085938 122.609375 125.105469 122.535156 126.578125 Z M 122.535156 126.578125 " fill-opacity="1" fill-rule="nonzero"/></g></svg>